<svg width="14" height="14" viewBox="0 0 14 14" fill="none" xmlns="http://www.w3.org/2000/svg">
<path d="M13.186 2.44198C13.6356 1.99242 13.6356 1.26355 13.186 0.813993C12.7365 0.364437 12.0076 0.364437 11.558 0.813993L9.12132 3.25069C7.94975 4.42226 6.05025 4.42227 4.87868 3.25069L2.44198 0.813994C1.99242 0.364438 1.26355 0.364437 0.813993 0.813993C0.364437 1.26355 0.364437 1.99242 0.813993 2.44198L3.25069 4.87868C4.42226 6.05025 4.42227 7.94975 3.25069 9.12132L0.813994 11.558C0.364438 12.0076 0.364437 12.7365 0.813993 13.186C1.26355 13.6356 1.99242 13.6356 2.44198 13.186L4.87868 10.7493C6.05025 9.57774 7.94975 9.57773 9.12132 10.7493L11.558 13.186C12.0076 13.6356 12.7365 13.6356 13.186 13.186C13.6356 12.7365 13.6356 12.0076 13.186 11.558L10.7493 9.12132C9.57773 7.94975 9.57773 6.05025 10.7493 4.87868L13.186 2.44198Z" fill="#181F51"/>
</svg>
