<svg width="20" height="20" viewBox="0 0 20 20" fill="none" xmlns="http://www.w3.org/2000/svg">
<path d="M16.0583 4.44162C14.9499 3.92496 13.7499 3.54996 12.4999 3.33329C12.489 3.33294 12.4781 3.335 12.468 3.33932C12.4579 3.34364 12.4489 3.35011 12.4416 3.35829C12.2916 3.63329 12.1166 3.99162 11.9999 4.26662C10.6741 4.06662 9.32577 4.06662 7.99994 4.26662C7.88327 3.98329 7.70827 3.63329 7.54994 3.35829C7.5416 3.34162 7.5166 3.33329 7.4916 3.33329C6.2416 3.54996 5.04993 3.92496 3.93327 4.44162C3.92493 4.44162 3.9166 4.44996 3.90827 4.45829C1.6416 7.84996 1.0166 11.15 1.32493 14.4166C1.32493 14.4333 1.33327 14.45 1.34993 14.4583C2.84993 15.5583 4.2916 16.225 5.7166 16.6666C5.7416 16.675 5.7666 16.6666 5.77493 16.65C6.10827 16.1916 6.40827 15.7083 6.6666 15.2C6.68327 15.1666 6.6666 15.1333 6.63327 15.125C6.15827 14.9416 5.70827 14.725 5.2666 14.475C5.23327 14.4583 5.23327 14.4083 5.25827 14.3833C5.34994 14.3166 5.4416 14.2416 5.53327 14.175C5.54993 14.1583 5.57493 14.1583 5.5916 14.1666C8.45827 15.475 11.5499 15.475 14.3833 14.1666C14.3999 14.1583 14.4249 14.1583 14.4416 14.175C14.5333 14.25 14.6249 14.3166 14.7166 14.3916C14.7499 14.4166 14.7499 14.4666 14.7083 14.4833C14.2749 14.7416 13.8166 14.95 13.3416 15.1333C13.3083 15.1416 13.2999 15.1833 13.3083 15.2083C13.5749 15.7166 13.8749 16.2 14.1999 16.6583C14.2249 16.6666 14.2499 16.675 14.2749 16.6666C15.7083 16.225 17.1499 15.5583 18.6499 14.4583C18.6666 14.45 18.6749 14.4333 18.6749 14.4166C19.0416 10.6416 18.0666 7.36662 16.0916 4.45829C16.0833 4.44996 16.0749 4.44162 16.0583 4.44162ZM7.09994 12.425C6.2416 12.425 5.52493 11.6333 5.52493 10.6583C5.52493 9.68329 6.22494 8.89162 7.09994 8.89162C7.98327 8.89162 8.68327 9.69162 8.67493 10.6583C8.67493 11.6333 7.97494 12.425 7.09994 12.425ZM12.9083 12.425C12.0499 12.425 11.3333 11.6333 11.3333 10.6583C11.3333 9.68329 12.0333 8.89162 12.9083 8.89162C13.7916 8.89162 14.4916 9.69162 14.4833 10.6583C14.4833 11.6333 13.7916 12.425 12.9083 12.425Z" fill="#FFB320"/>
</svg>
