<svg width="1582" height="996" viewBox="0 0 1582 996" fill="none" xmlns="http://www.w3.org/2000/svg">
<mask id="mask0_141_158" style="mask-type:alpha" maskUnits="userSpaceOnUse" x="853" y="4" width="435" height="597">
<path d="M914.267 571.704C929.72 562.715 944.614 552.798 958.868 542.008C963.293 543.07 969.828 542.512 978.892 537.289C983.833 534.454 988.519 531.198 992.9 527.558C1006.59 529.293 1027.94 525.353 1052.36 500.616C1071.83 480.68 1078.58 466.04 1080.56 456.073C1086.03 453.372 1091.13 449.962 1095.72 445.931C1103.01 439.481 1107.55 433.502 1110.35 428.39C1111.17 428.434 1111.99 428.428 1112.81 428.374C1130.82 426.887 1158.27 413.001 1178.01 374.186C1185.92 358.472 1185.71 348.823 1183.02 342.943C1193.49 337.052 1206.11 325.92 1219.29 306.001C1231.96 286.714 1235.42 271.217 1235.11 259.399C1243.22 258.066 1253.75 248.213 1259.77 235.27C1265.02 224.044 1265.45 213.817 1261.97 208.823C1289.97 164.608 1277.27 131.716 1267.51 133.141C1272.81 127.823 1278.02 109.576 1277.92 99.1142C1277.95 96.3095 1277.47 93.5228 1276.49 90.8957C1279.98 83.7685 1282.67 76.2724 1284.5 68.5475C1292.45 34.773 1282.42 6.78879 1266.24 4.72364C1262.95 4.33621 1259.61 4.89818 1256.62 6.34333C1243.56 12.2762 1230.97 32.5139 1223.72 58.5226C1221.33 67.0708 1219.79 75.8387 1219.15 84.6936C1212.68 89.8996 1202.38 101.02 1192.05 123.708C1190.86 126.303 1189.71 129.07 1188.62 131.95C1174.3 136.374 1157.59 154.064 1145.3 177.614C1132.54 202.198 1128.91 225.924 1137.7 236.617C1134.54 239.953 1131.66 243.542 1129.09 247.347C1126.76 250.725 1124.72 254.298 1123.01 258.025C1117.27 260.865 1111.01 265.755 1105.57 271.986C1098.05 280.674 1092.67 291.236 1091.47 299.357C1079.59 302.456 1064.72 312.977 1052.55 327.32C1037.95 344.578 1032.21 362.045 1039.28 369.98C1021.85 383.859 1015.05 396.504 1013.37 404.638C1011.16 414.956 1019.24 423.29 1030.94 421.874C1018.58 432.058 1015 442.107 1025.05 442.622C990.988 463.665 974.95 488.143 968.462 502.555C968.098 502.664 967.705 502.782 967.312 502.9C946.168 511.655 932.806 527.701 936.484 532.189C901.171 551.46 874.869 572.877 854.353 598.069C854.228 598.228 854.135 598.368 854.041 598.508C849.497 604.969 882.27 590.562 914.267 571.704Z" fill="white"/>
</mask>
<g mask="url(#mask0_141_158)">
<path d="M914.267 571.704C929.72 562.715 944.614 552.798 958.868 542.008C963.293 543.07 969.828 542.512 978.892 537.289C983.833 534.454 988.519 531.198 992.9 527.558C1006.59 529.293 1027.94 525.353 1052.36 500.616C1071.83 480.68 1078.58 466.04 1080.56 456.073C1086.03 453.372 1091.13 449.962 1095.72 445.931C1103.01 439.481 1107.55 433.502 1110.35 428.39C1111.17 428.434 1111.99 428.428 1112.81 428.374C1130.82 426.887 1158.27 413.001 1178.01 374.186C1185.92 358.472 1185.71 348.823 1183.02 342.943C1193.49 337.052 1206.11 325.92 1219.29 306.001C1231.96 286.714 1235.42 271.217 1235.11 259.399C1243.22 258.066 1253.75 248.213 1259.77 235.27C1265.02 224.044 1265.45 213.817 1261.97 208.823C1289.97 164.608 1277.27 131.716 1267.51 133.141C1272.81 127.823 1278.02 109.576 1277.92 99.1142C1277.95 96.3095 1277.47 93.5228 1276.49 90.8957C1279.98 83.7685 1282.67 76.2724 1284.5 68.5475C1292.45 34.773 1282.42 6.78879 1266.24 4.72364C1262.95 4.33621 1259.61 4.89818 1256.62 6.34333C1243.56 12.2762 1230.97 32.5139 1223.72 58.5226C1221.33 67.0708 1219.79 75.8387 1219.15 84.6936C1212.68 89.8996 1202.38 101.02 1192.05 123.708C1190.86 126.303 1189.71 129.07 1188.62 131.95C1174.3 136.374 1157.59 154.064 1145.3 177.614C1132.54 202.198 1128.91 225.924 1137.7 236.617C1134.54 239.953 1131.66 243.542 1129.09 247.347C1126.76 250.725 1124.72 254.298 1123.01 258.025C1117.27 260.865 1111.01 265.755 1105.57 271.986C1098.05 280.674 1092.67 291.236 1091.47 299.357C1079.59 302.456 1064.72 312.977 1052.55 327.32C1037.95 344.578 1032.21 362.045 1039.28 369.98C1021.85 383.859 1015.05 396.504 1013.37 404.638C1011.16 414.956 1019.24 423.29 1030.94 421.874C1018.58 432.058 1015 442.107 1025.05 442.622C990.988 463.665 974.95 488.143 968.462 502.555C968.098 502.664 967.705 502.782 967.312 502.9C946.168 511.655 932.806 527.701 936.484 532.189C901.171 551.46 874.869 572.877 854.353 598.069C854.228 598.228 854.135 598.368 854.041 598.508C849.497 604.969 882.27 590.562 914.267 571.704Z" fill="#FFFBED"/>
<g filter="url(#filter0_f_141_158)">
<path d="M914.267 571.704C929.72 562.715 944.614 552.798 958.867 542.008C963.293 543.07 969.828 542.512 978.892 537.289C983.833 534.454 988.519 531.198 992.9 527.558C1006.59 529.293 1027.94 525.353 1052.36 500.616C1071.83 480.68 1078.58 466.04 1080.56 456.073C1086.03 453.372 1091.13 449.962 1095.72 445.931C1103.01 439.481 1107.55 433.502 1110.35 428.39C1111.17 428.434 1111.99 428.428 1112.81 428.374C1130.82 426.887 1158.27 413.001 1178.01 374.186C1185.92 358.472 1185.71 348.823 1183.02 342.943C1193.49 337.052 1206.11 325.92 1219.29 306.001C1231.96 286.714 1235.42 271.217 1235.11 259.399C1243.22 258.066 1253.75 248.213 1259.77 235.27C1265.02 224.044 1265.45 213.817 1261.97 208.823C1289.97 164.608 1277.27 131.716 1267.51 133.141C1272.81 127.823 1278.02 109.576 1277.92 99.1142C1277.95 96.3095 1277.47 93.5228 1276.49 90.8957C1279.98 83.7685 1282.67 76.2724 1284.5 68.5475C1292.45 34.773 1282.42 6.78879 1266.24 4.72364C1262.95 4.33621 1259.61 4.89818 1256.62 6.34333C1251.48 25.8746 1247.58 47.9611 1259.06 61.9435C1247.35 71.2721 1244.04 88.5655 1249.59 93.6745C1240.59 101.38 1231.44 115.193 1222.25 134.266C1212.82 153.68 1212.13 168.799 1213.41 179.27L1213.87 178.523C1234.44 144.259 1251.64 148.08 1251.95 148.096C1251.95 148.096 1246.1 151.25 1236.67 162.978C1227.12 174.728 1214.01 195.069 1196.22 229.559C1196.12 229.541 1193.54 218.175 1204.58 195.416C1194.52 202.396 1183.98 214.287 1175.36 229.004C1171.41 235.698 1168.14 242.767 1165.6 250.107C1164.33 250.068 1163.06 250.149 1161.81 250.35C1153.67 251.706 1142.37 259.221 1134.9 270.502C1122.39 289.357 1122.38 308.32 1138.86 309.169C1139.03 309.212 1120.2 330.294 1132.08 349.037C1132.02 349.055 1118.1 342.64 1120.2 324.845C1108.79 332.691 1097.61 347.995 1094.58 353.969C1087.64 367.817 1090.53 373.737 1096.3 376.061C1096.31 376.091 1082.17 386.065 1077.4 396.116C1071.42 408.784 1082.92 407.299 1082.94 407.279C1065.67 423.134 1057.23 429.311 1064.54 442.375C1075.84 424.884 1094.63 408.727 1113.37 399.244C1092.32 414.729 1071.82 437.614 1063.51 456.403C1054.43 451.756 1026.04 469.485 1020.02 483.212C1008.06 482.292 986.557 494.7 974.066 507.685C964.035 518.212 963.914 526.892 974.132 529.072C950.411 531.383 930.706 552.106 895.102 575.406C883.121 583.224 868.732 593.148 854.07 598.494C849.497 604.969 882.27 590.562 914.267 571.704Z" fill="#CCE1F4"/>
</g>
</g>
<mask id="mask1_141_158" style="mask-type:alpha" maskUnits="userSpaceOnUse" x="904" y="227" width="113" height="189">
<path d="M920.738 407.291C924.924 404.59 928.939 401.577 932.761 398.268C934.016 398.685 935.837 398.604 938.293 397.036C939.632 396.185 940.893 395.193 942.063 394.069C945.922 394.851 951.839 393.895 958.288 386.18C963.429 379.958 965.09 375.272 965.487 372.04C966.978 371.242 968.352 370.205 969.573 368.957C971.516 366.96 972.692 365.074 973.395 363.444C973.625 363.471 973.855 363.482 974.084 363.477C979.103 363.272 986.571 359.155 991.493 346.759C993.461 341.739 993.252 338.577 992.408 336.611C995.246 334.846 998.607 331.399 1001.98 325.085C1005.23 318.97 1005.96 313.951 1005.69 310.078C1007.93 309.769 1010.73 306.708 1012.21 302.565C1013.51 298.973 1013.47 295.632 1012.42 293.943C1019.56 279.908 1015.49 268.943 1012.78 269.257C1014.18 267.599 1015.36 261.708 1015.17 258.282C1015.13 257.365 1014.95 256.445 1014.64 255.57C1015.5 253.291 1016.14 250.88 1016.53 248.38C1018.23 237.449 1014.98 228.132 1010.42 227.203C1009.49 227.025 1008.57 227.157 1007.76 227.583C1004.19 229.321 1000.98 235.749 999.36 244.149C998.822 246.909 998.53 249.756 998.489 252.644C996.757 254.247 994.047 257.726 991.51 264.991C991.217 265.822 990.939 266.709 990.68 267.635C986.74 268.859 982.337 274.389 979.263 281.905C976.074 289.753 975.429 297.462 978.057 301.1C977.225 302.142 976.475 303.272 975.814 304.477C975.215 305.547 974.701 306.684 974.279 307.877C972.716 308.717 971.04 310.22 969.615 312.175C967.645 314.901 966.303 318.274 966.096 320.914C962.819 321.743 958.819 324.954 955.636 329.459C951.817 334.879 950.483 340.507 952.586 343.215C947.923 347.486 946.218 351.519 945.874 354.154C945.416 357.497 947.808 360.352 951.063 360.071C947.759 363.211 946.914 366.445 949.737 366.77C940.529 373.126 936.422 380.887 934.83 385.503C934.73 385.534 934.622 385.566 934.514 385.599C928.731 388.134 925.241 393.178 926.34 394.704C916.755 400.46 909.726 407.06 904.375 414.985C904.343 415.035 904.319 415.08 904.295 415.124C903.124 417.168 912.074 412.964 920.738 407.291Z" fill="white"/>
</mask>
<g mask="url(#mask1_141_158)">
<path d="M920.738 407.291C924.924 404.59 928.939 401.577 932.761 398.268C934.016 398.685 935.837 398.604 938.293 397.036C939.632 396.185 940.893 395.193 942.063 394.069C945.922 394.851 951.839 393.895 958.288 386.18C963.429 379.958 965.09 375.272 965.487 372.04C966.978 371.242 968.352 370.205 969.573 368.957C971.516 366.96 972.692 365.074 973.395 363.444C973.625 363.471 973.855 363.482 974.084 363.477C979.103 363.272 986.571 359.155 991.493 346.759C993.461 341.739 993.252 338.577 992.408 336.611C995.246 334.846 998.607 331.399 1001.98 325.085C1005.23 318.97 1005.96 313.951 1005.69 310.078C1007.93 309.769 1010.73 306.708 1012.21 302.565C1013.51 298.973 1013.47 295.632 1012.42 293.943C1019.56 279.908 1015.49 268.943 1012.78 269.257C1014.18 267.599 1015.36 261.708 1015.17 258.282C1015.13 257.365 1014.95 256.445 1014.64 255.57C1015.5 253.291 1016.14 250.88 1016.53 248.38C1018.23 237.449 1014.98 228.132 1010.42 227.203C1009.49 227.025 1008.57 227.157 1007.76 227.583C1004.19 229.321 1000.98 235.749 999.36 244.149C998.822 246.909 998.53 249.756 998.489 252.644C996.757 254.247 994.047 257.726 991.51 264.991C991.217 265.822 990.939 266.709 990.68 267.635C986.74 268.859 982.337 274.389 979.263 281.905C976.074 289.753 975.429 297.462 978.057 301.1C977.225 302.142 976.475 303.272 975.814 304.477C975.215 305.547 974.701 306.684 974.279 307.877C972.716 308.717 971.04 310.22 969.615 312.175C967.645 314.901 966.303 318.274 966.096 320.914C962.819 321.743 958.819 324.954 955.636 329.459C951.817 334.879 950.483 340.507 952.586 343.215C947.923 347.486 946.218 351.519 945.874 354.154C945.416 357.497 947.808 360.352 951.063 360.071C947.759 363.211 946.914 366.445 949.737 366.77C940.529 373.126 936.422 380.887 934.83 385.503C934.73 385.534 934.622 385.566 934.514 385.599C928.731 388.134 925.241 393.178 926.34 394.704C916.755 400.46 909.726 407.06 904.375 414.985C904.343 415.035 904.319 415.08 904.295 415.124C903.124 417.168 912.074 412.964 920.738 407.291Z" fill="#FFF9E1"/>
<g filter="url(#filter1_f_141_158)">
<path d="M920.738 407.291C924.924 404.59 928.939 401.577 932.761 398.268C934.016 398.685 935.837 398.604 938.293 397.036C939.632 396.185 940.893 395.193 942.063 394.069C945.922 394.851 951.839 393.895 958.288 386.18C963.429 379.958 965.09 375.272 965.487 372.04C966.978 371.242 968.352 370.205 969.573 368.957C971.516 366.96 972.692 365.074 973.395 363.444C973.625 363.471 973.855 363.482 974.084 363.477C979.103 363.272 986.571 359.155 991.493 346.759C993.461 341.739 993.252 338.577 992.408 336.611C995.246 334.846 998.606 331.399 1001.98 325.085C1005.23 318.97 1005.96 313.951 1005.69 310.078C1007.93 309.769 1010.73 306.708 1012.21 302.565C1013.51 298.973 1013.47 295.632 1012.42 293.943C1019.56 279.908 1015.49 268.943 1012.78 269.257C1014.18 267.599 1015.36 261.708 1015.17 258.282C1015.13 257.365 1014.95 256.445 1014.64 255.57C1015.5 253.291 1016.14 250.88 1016.53 248.38C1018.23 237.449 1014.98 228.132 1010.42 227.203C1009.49 227.025 1008.57 227.157 1007.76 227.583C1006.62 233.896 1005.87 241.065 1009.31 245.821C1006.17 248.691 1005.52 254.3 1007.15 256.059C1004.75 258.441 1002.41 262.819 1000.13 268.918C997.794 275.126 997.836 280.064 998.359 283.511L998.475 283.274C1003.7 272.38 1008.58 273.899 1008.66 273.909C1008.66 273.909 1007.07 274.85 1004.62 278.542C1002.13 282.239 998.773 288.692 994.332 299.703C994.304 299.696 993.402 295.935 996.138 288.658C993.431 290.786 990.666 294.513 988.482 299.196C987.482 301.325 986.677 303.588 986.078 305.951C985.723 305.918 985.369 305.925 985.021 305.971C982.764 306.288 979.718 308.571 977.804 312.147C974.594 318.123 974.888 324.33 979.516 324.866C979.563 324.882 974.623 331.489 978.239 337.809C978.223 337.814 974.227 335.497 974.535 329.705C971.464 332.095 968.573 336.93 967.817 338.838C966.092 343.262 966.995 345.245 968.645 346.096C968.648 346.106 964.846 349.15 963.668 352.366C962.19 356.418 965.387 356.112 965.392 356.106C960.804 361.026 958.537 362.916 960.79 367.306C963.68 361.757 968.689 356.762 973.787 353.951C968.134 358.691 962.754 365.861 960.72 371.882C958.107 370.219 950.435 375.579 948.963 379.978C945.6 379.49 939.774 383.215 936.48 387.27C933.836 390.559 933.937 393.399 936.832 394.272C930.227 394.658 925.034 401.133 915.43 408.203C912.198 410.575 908.324 413.599 904.303 415.12C903.124 417.168 912.074 412.964 920.738 407.291Z" fill="#CCE1F4"/>
</g>
</g>
<mask id="mask2_141_158" style="mask-type:alpha" maskUnits="userSpaceOnUse" x="0" y="701" width="402" height="183">
<path d="M25.3023 732.704C32.6863 740.277 40.5224 747.397 48.7675 754.022C48.7952 756.715 50.0571 760.385 54.3598 764.834C56.6981 767.261 59.2416 769.482 61.9618 771.472C62.9376 779.577 68.2738 791.264 85.986 801.713C100.232 810.018 109.606 811.784 115.61 811.48C117.948 814.234 120.64 816.669 123.614 818.72C128.366 821.98 132.45 823.721 135.787 824.589C135.88 825.066 136.001 825.537 136.151 825.999C139.598 836.121 151.52 849.874 176.639 855.616C186.796 857.89 192.303 856.381 195.29 853.992C200.179 859.151 208.385 864.791 221.714 869.485C234.607 873.978 243.999 873.731 250.737 871.853C252.669 876.313 259.84 880.938 268.135 882.528C275.333 883.924 281.265 882.698 283.63 879.982C313.036 889.684 330.083 877.658 327.86 872.261C331.675 874.535 342.897 874.901 348.886 873.333C350.501 872.95 352.03 872.27 353.396 871.328C357.99 872.308 362.679 872.771 367.375 872.707C387.903 872.406 402.517 862.617 401.373 853.038C401.121 851.091 400.318 849.257 399.058 847.751C393.773 841.11 380.345 836.798 364.376 836.387C359.125 836.241 353.872 836.625 348.698 837.532C344.778 834.565 336.913 830.255 322.405 827.598C320.745 827.287 318.992 827.028 317.182 826.818C312.581 819.237 300.021 812.193 284.736 808.53C268.79 804.747 254.652 806.082 249.781 812.666C247.411 811.335 244.937 810.199 242.383 809.271C240.109 808.421 237.766 807.768 235.38 807.319C232.923 804.435 229.216 801.547 224.856 799.323C218.788 796.259 211.951 794.691 207.118 795.175C203.629 788.805 195.449 781.786 185.465 776.866C173.459 770.972 162.608 770.194 159.072 775.392C148.597 767.389 140.361 765.311 135.451 765.516C129.211 765.733 125.592 771.57 128.09 778.083C120.465 772.452 114.182 771.845 115.335 777.69C98.3531 761.172 81.9961 755.494 72.791 753.846C72.676 753.653 72.5516 753.445 72.4272 753.236C64.3576 742.363 53.2245 737.006 51.1786 739.763C35.0339 722.273 18.9551 710.263 1.54261 702.117C1.4336 702.068 1.3399 702.035 1.24624 702.002C-3.1164 700.325 9.87196 717.057 25.3023 732.704Z" fill="white"/>
</mask>
<g mask="url(#mask2_141_158)">
<path d="M25.3023 732.704C32.6863 740.277 40.5224 747.397 48.7675 754.022C48.7952 756.715 50.0571 760.385 54.3598 764.834C56.6981 767.261 59.2416 769.482 61.9618 771.472C62.9376 779.577 68.2738 791.264 85.986 801.713C100.232 810.018 109.606 811.784 115.61 811.48C117.948 814.234 120.64 816.669 123.614 818.72C128.366 821.98 132.45 823.721 135.787 824.589C135.88 825.066 136.001 825.537 136.151 825.999C139.598 836.121 151.52 849.874 176.639 855.616C186.796 857.89 192.303 856.381 195.29 853.992C200.179 859.151 208.385 864.791 221.714 869.485C234.607 873.978 243.999 873.731 250.737 871.853C252.669 876.313 259.84 880.938 268.135 882.528C275.333 883.924 281.265 882.698 283.63 879.982C313.036 889.684 330.083 877.658 327.86 872.261C331.675 874.535 342.897 874.901 348.886 873.333C350.501 872.95 352.03 872.27 353.396 871.328C357.99 872.308 362.679 872.771 367.375 872.707C387.903 872.406 402.517 862.617 401.373 853.038C401.121 851.091 400.318 849.257 399.058 847.751C393.773 841.11 380.345 836.798 364.376 836.387C359.125 836.241 353.872 836.625 348.698 837.532C344.778 834.565 336.913 830.255 322.405 827.598C320.745 827.287 318.992 827.028 317.182 826.818C312.581 819.237 300.021 812.193 284.736 808.53C268.79 804.747 254.652 806.082 249.781 812.666C247.411 811.335 244.937 810.199 242.383 809.271C240.109 808.421 237.766 807.768 235.38 807.319C232.923 804.435 229.216 801.547 224.856 799.323C218.788 796.259 211.951 794.691 207.118 795.175C203.629 788.805 195.449 781.786 185.465 776.866C173.459 770.972 162.608 770.194 159.072 775.392C148.597 767.389 140.361 765.311 135.451 765.516C129.211 765.733 125.592 771.57 128.09 778.083C120.465 772.452 114.182 771.845 115.335 777.69C98.3531 761.172 81.9961 755.494 72.791 753.846C72.676 753.653 72.5516 753.445 72.4272 753.236C64.3576 742.363 53.2245 737.006 51.1786 739.763C35.0339 722.273 18.9551 710.263 1.54261 702.117C1.4336 702.068 1.3399 702.035 1.24624 702.002C-3.1164 700.325 9.87196 717.057 25.3023 732.704Z" fill="white"/>
<g filter="url(#filter2_f_141_158)">
<path d="M25.3023 732.704C32.6863 740.277 40.5224 747.397 48.7674 754.022C48.7952 756.715 50.057 760.385 54.3598 764.834C56.6981 767.261 59.2416 769.482 61.9618 771.472C62.9376 779.577 68.2738 791.264 85.986 801.713C100.232 810.018 109.606 811.784 115.61 811.48C117.948 814.234 120.64 816.669 123.614 818.72C128.366 821.98 132.45 823.721 135.787 824.589C135.88 825.066 136.001 825.537 136.151 825.999C139.598 836.121 151.52 849.874 176.639 855.616C186.796 857.89 192.303 856.381 195.29 853.992C200.179 859.151 208.385 864.791 221.714 869.485C234.607 873.978 243.999 873.731 250.737 871.853C252.669 876.312 259.84 880.938 268.135 882.528C275.333 883.924 281.265 882.698 283.63 879.982C313.036 889.684 330.083 877.658 327.86 872.261C331.675 874.535 342.897 874.901 348.886 873.333C350.501 872.95 352.03 872.27 353.396 871.328C357.99 872.308 362.679 872.771 367.375 872.707C387.903 872.406 402.517 862.617 401.373 853.038C401.121 851.091 400.318 849.257 399.058 847.751C387.108 847.61 373.872 848.555 367.501 857.156C360.462 851.782 350.061 852.372 347.928 856.294C342.21 852.239 332.966 848.978 320.696 846.448C308.196 843.833 299.42 845.614 293.596 847.858L294.09 848.013C316.717 854.886 317.002 865.307 317.036 865.484C317.036 865.484 314.384 862.581 306.296 858.862C298.176 855.07 284.615 850.477 262.261 845.237C262.256 845.178 268.407 842.056 283.057 845.114C277.604 840.348 269.262 836.012 259.574 833.182C255.164 831.883 250.636 831.025 246.057 830.62C245.897 829.886 245.668 829.17 245.372 828.479C243.422 824.005 237.482 818.603 229.933 815.944C217.309 811.475 206.426 814.201 208.313 823.783C208.312 823.885 193.502 816.119 184.456 825.632C184.437 825.6 186.115 816.691 196.628 815.33C190.482 809.912 180.09 805.7 176.224 804.821C167.278 802.835 164.298 805.349 163.794 808.992C163.779 809.001 156.019 802.325 149.564 801.037C141.432 799.426 143.941 805.812 143.954 805.82C132.369 798.192 127.608 794.237 121.165 800.319C132.829 804.283 144.808 812.74 152.949 822.128C141.03 812.276 124.945 803.81 112.965 801.746C114.325 795.868 100.062 782.128 91.3167 780.649C90.1221 773.652 79.9044 763.1 70.6538 757.801C63.168 753.561 58.1691 754.741 58.3899 760.919C53.6474 747.639 38.9169 739.315 20.4177 722.239C14.2056 716.489 6.4381 709.661 1.25802 702.016C-3.11635 700.325 9.87194 717.057 25.3023 732.704Z" fill="#CCE1F4"/>
</g>
</g>
<mask id="mask3_141_158" style="mask-type:alpha" maskUnits="userSpaceOnUse" x="1215" y="189" width="334" height="376">
<path d="M1543.44 229.571C1541.1 240.139 1537.9 250.632 1533.86 260.992C1535.93 263.126 1537.39 266.799 1536.05 272.986C1535.33 276.355 1534.22 279.69 1532.74 282.954C1537.97 289.935 1541.13 302.456 1529.49 321.738C1520.06 337.168 1510.96 344.414 1504.01 347.927C1503.55 351.554 1502.44 355.149 1500.72 358.621C1497.95 364.152 1494.75 368.074 1491.7 370.841C1491.96 371.274 1492.2 371.72 1492.39 372.176C1496.44 382.287 1493.85 400.547 1470.26 420.758C1460.69 428.893 1453.35 431.149 1448.15 431.138C1446.71 438.247 1441.95 447.809 1430.71 459.829C1419.81 471.417 1409.12 477.092 1400.13 479.826C1401.45 484.539 1397.05 492.656 1389.02 499.09C1382.06 504.685 1374.48 507.428 1369.72 506.771C1344.43 532.775 1315.99 533.974 1314.26 528.343C1311.77 532.514 1299.52 539.815 1291.6 542.325C1289.5 543.033 1287.26 543.454 1285 543.567C1280.63 547.209 1275.75 550.502 1270.45 553.387C1247.28 565.979 1223.3 567.417 1217.11 559.172C1215.87 557.485 1215.33 555.541 1215.57 553.57C1216.29 545.047 1227.93 533.266 1245.45 522.963C1251.21 519.568 1257.38 516.587 1263.87 514.067C1265.93 509.284 1271.36 500.981 1285.5 489.827C1287.11 488.545 1288.87 487.246 1290.72 485.95C1289.95 477.116 1298.49 463.73 1312.71 451.299C1327.58 438.36 1344.42 430.574 1355 432.706C1356.61 430.179 1358.49 427.74 1360.62 425.414C1362.49 423.325 1364.6 421.347 1366.92 419.504C1367.41 415.702 1369.3 411.114 1372.44 406.642C1376.83 400.44 1383.24 394.936 1389.02 392.297C1387.95 385.109 1391.61 374.48 1398.93 364.374C1407.75 352.237 1419.27 344.845 1427.27 346.721C1432.73 333.884 1440.31 327.104 1445.96 324.197C1453.1 320.468 1461.7 322.795 1464 329.475C1468.12 320.284 1474.67 315.881 1477.94 321.195C1484.03 297.6 1497.88 282.914 1506.88 275.867C1506.85 275.643 1506.83 275.401 1506.81 275.16C1507.34 261.57 1515.6 250.402 1520.04 251.29C1524.43 227.453 1533.02 207.966 1546.12 190.681C1546.2 190.575 1546.28 190.49 1546.36 190.405C1549.93 186.361 1548.47 207.63 1543.44 229.571Z" fill="white"/>
</mask>
<g mask="url(#mask3_141_158)">
<path d="M1543.44 229.571C1541.1 240.139 1537.9 250.632 1533.86 260.992C1535.93 263.126 1537.39 266.799 1536.05 272.986C1535.33 276.355 1534.22 279.69 1532.74 282.954C1537.97 289.935 1541.13 302.456 1529.49 321.738C1520.06 337.168 1510.96 344.414 1504.01 347.927C1503.55 351.554 1502.44 355.149 1500.72 358.621C1497.95 364.152 1494.75 368.074 1491.7 370.841C1491.96 371.274 1492.2 371.72 1492.39 372.176C1496.44 382.287 1493.85 400.547 1470.26 420.758C1460.69 428.893 1453.35 431.149 1448.15 431.138C1446.71 438.247 1441.95 447.809 1430.71 459.829C1419.81 471.417 1409.12 477.092 1400.13 479.826C1401.45 484.539 1397.05 492.656 1389.02 499.09C1382.06 504.685 1374.48 507.428 1369.72 506.771C1344.43 532.775 1315.99 533.974 1314.26 528.343C1311.77 532.514 1299.52 539.815 1291.6 542.325C1289.5 543.033 1287.26 543.454 1285 543.567C1280.63 547.209 1275.75 550.502 1270.45 553.387C1247.28 565.979 1223.3 567.417 1217.11 559.172C1215.87 557.485 1215.33 555.541 1215.57 553.57C1216.29 545.047 1227.93 533.266 1245.45 522.963C1251.21 519.568 1257.38 516.587 1263.87 514.067C1265.93 509.284 1271.36 500.981 1285.5 489.827C1287.11 488.545 1288.87 487.246 1290.72 485.95C1289.95 477.116 1298.49 463.73 1312.71 451.299C1327.58 438.36 1344.42 430.574 1355 432.706C1356.61 430.179 1358.49 427.74 1360.62 425.414C1362.49 423.325 1364.6 421.347 1366.92 419.504C1367.41 415.702 1369.3 411.114 1372.44 406.642C1376.83 400.44 1383.24 394.936 1389.02 392.297C1387.95 385.109 1391.61 374.48 1398.93 364.374C1407.75 352.237 1419.27 344.845 1427.27 346.721C1432.73 333.884 1440.31 327.104 1445.96 324.197C1453.1 320.468 1461.7 322.795 1464 329.475C1468.12 320.284 1474.67 315.881 1477.94 321.195C1484.03 297.6 1497.88 282.914 1506.88 275.867C1506.85 275.643 1506.83 275.401 1506.81 275.16C1507.34 261.57 1515.6 250.402 1520.04 251.29C1524.43 227.453 1533.02 207.966 1546.12 190.681C1546.2 190.575 1546.28 190.49 1546.36 190.405C1549.93 186.361 1548.47 207.63 1543.44 229.571Z" fill="white"/>
<g filter="url(#filter3_f_141_158)">
<path d="M1543.44 229.571C1541.1 240.139 1537.9 250.632 1533.86 260.992C1535.93 263.126 1537.39 266.799 1536.05 272.986C1535.33 276.355 1534.22 279.69 1532.74 282.954C1537.97 289.935 1541.13 302.456 1529.49 321.738C1520.06 337.168 1510.96 344.414 1504.01 347.927C1503.55 351.554 1502.44 355.149 1500.72 358.621C1497.95 364.152 1494.75 368.073 1491.7 370.841C1491.96 371.274 1492.2 371.72 1492.39 372.176C1496.44 382.287 1493.85 400.547 1470.26 420.758C1460.69 428.893 1453.35 431.149 1448.15 431.138C1446.71 438.247 1441.95 447.809 1430.71 459.829C1419.81 471.417 1409.12 477.092 1400.13 479.826C1401.45 484.539 1397.05 492.656 1389.02 499.09C1382.06 504.685 1374.48 507.428 1369.72 506.771C1344.43 532.775 1315.99 533.974 1314.26 528.343C1311.77 532.514 1299.52 539.815 1291.6 542.325C1289.5 543.033 1287.26 543.454 1285 543.567C1280.63 547.209 1275.75 550.502 1270.45 553.387C1247.28 565.979 1223.3 567.417 1217.11 559.172C1215.87 557.485 1215.33 555.541 1215.57 553.57C1228.81 545.992 1244.34 538.463 1258.17 541.242C1261.84 532.619 1273.93 526.583 1279.37 528.333C1282.6 521.572 1290.38 513.232 1302.12 503.576C1314.05 493.71 1325.24 489.625 1333.51 487.749L1333.07 488.179C1313.15 507.722 1320.97 516.091 1321.07 516.251C1321.07 516.251 1321.77 512.312 1327.9 504.335C1334.01 496.28 1345.58 484.195 1366.48 466.106C1366.43 466.057 1357.13 467.447 1343.14 479.006C1345.51 471.852 1351.45 463.23 1360.07 454.952C1363.98 451.175 1368.37 447.671 1373.17 444.491C1372.78 443.814 1372.48 443.108 1372.27 442.38C1370.96 437.645 1373.38 429.687 1379.74 422.879C1390.36 411.477 1404.65 406.819 1410.02 415.53C1410.1 415.61 1420.59 400.251 1438.12 402.074C1438.12 402.037 1429.29 396.083 1416.48 401.583C1419.12 393.484 1427.44 383.679 1431.08 380.573C1439.52 373.42 1444.82 373.534 1448.22 376.083C1448.25 376.08 1451.71 365.984 1457.92 360.937C1465.75 354.589 1467.93 361.177 1467.92 361.191C1474.91 347.956 1477.14 341.872 1489.09 342.626C1479.15 353.031 1472.37 367.164 1470.6 379.631C1476.23 364.439 1487.59 347.732 1499.37 338.624C1493.26 334.853 1498.48 315.139 1507.09 308.512C1502.97 302.265 1506.15 287.585 1512.35 277.64C1517.41 269.629 1523.91 267.433 1528.49 272.427C1523.42 259.024 1533.39 243.276 1540.73 218.293C1543.19 209.891 1546.54 199.67 1546.36 190.424C1549.93 186.361 1548.47 207.63 1543.44 229.571Z" fill="#CCE1F4"/>
</g>
</g>
<mask id="mask4_141_158" style="mask-type:alpha" maskUnits="userSpaceOnUse" x="300" y="461" width="98" height="46">
<path d="M390.466 496.93C390.793 495.973 390.917 494.97 390.824 494.022C390.732 493.074 390.426 492.213 389.938 491.526L389.7 491.171C388.094 488.804 384.078 487.166 379.234 487.393C378.564 485.534 376.468 484.016 373.744 483.532C372.777 483.357 371.774 483.338 370.759 483.474C367.984 479.474 362.383 473.123 351.229 470.608C340.173 467.977 331.51 472.83 331.446 472.885C329.051 468.332 321.382 464.625 316.439 464.348C311.22 464.118 310.003 466.035 310.024 466.067C308.34 462.966 303.886 460.675 302.074 461.694C300.642 462.523 300.365 464.539 301.602 466.757L301.837 467.142C304.276 471.233 306.798 472.253 306.784 472.254C306.785 481.841 316.03 486.05 320.509 486.909C321.915 487.23 324.744 487.927 324.74 487.925C324.736 487.923 329.347 496.635 339.721 501.113C345.833 503.92 357.608 504.859 361.266 501.434C371.408 509.08 393.914 506.569 397.056 501.645C398.341 499.79 397.768 495.748 390.466 496.93Z" fill="white"/>
</mask>
<g mask="url(#mask4_141_158)">
<path d="M390.466 496.93C390.793 495.973 390.917 494.97 390.824 494.022C390.732 493.074 390.426 492.213 389.938 491.526L389.7 491.171C388.094 488.804 384.078 487.166 379.234 487.393C378.564 485.534 376.468 484.016 373.744 483.532C372.777 483.357 371.774 483.338 370.759 483.474C367.984 479.474 362.383 473.123 351.229 470.608C340.173 467.977 331.51 472.83 331.446 472.885C329.051 468.332 321.382 464.625 316.439 464.348C311.22 464.118 310.003 466.035 310.024 466.067C308.34 462.966 303.886 460.675 302.074 461.694C300.642 462.523 300.365 464.539 301.602 466.757L301.837 467.142C304.276 471.233 306.798 472.253 306.784 472.254C306.785 481.841 316.03 486.05 320.509 486.909C321.915 487.23 324.744 487.927 324.74 487.925C324.736 487.923 329.347 496.635 339.721 501.113C345.833 503.92 357.608 504.859 361.266 501.434C371.408 509.08 393.914 506.569 397.056 501.645C398.341 499.79 397.768 495.748 390.466 496.93Z" fill="#FFF9E1"/>
<g filter="url(#filter4_f_141_158)">
<path d="M397.044 501.628C393.902 506.552 371.396 509.063 361.253 501.417C357.591 504.853 345.826 503.912 339.708 501.096C329.334 496.618 324.702 487.837 324.728 487.908C324.753 487.979 321.898 487.211 320.496 486.892C316.03 486.038 306.772 481.824 306.771 472.237C306.771 472.237 304.284 471.224 301.824 467.125L301.589 466.74C301.987 467.028 302.386 467.298 302.775 467.546C308.122 471.095 316.726 472.634 319.475 478.882C320.837 476.266 318.27 472.149 314.897 469.998C317.256 469.588 320.504 471.004 322.591 473.255C324.678 475.506 325.453 478.65 324.229 480.485C327.623 481.212 330.807 482.612 333.661 484.631C336.844 486.776 338.464 489.307 338.977 492.234C339.568 487.696 337.545 484.182 331.905 481.471C332.812 479.115 333.878 477.79 336.56 476.927C339.241 476.064 342.955 476.506 345.722 478.387C348.489 480.268 349.701 483.746 347.671 485.467C348.382 485.128 350.349 485.474 351.244 486.389C351.929 487.1 351.756 488.359 351.375 488.776C352.918 487.26 356.023 486.854 358.709 487.723C361.396 488.592 363.495 490.7 363.622 492.761C365.075 489.309 361.376 484.83 356.523 483.575C364.045 483.079 372.62 486.601 372.395 492.403C376.69 486.739 388.319 489.167 389.952 491.489C391.076 493.24 391.119 495.618 390.48 496.893C397.768 495.749 398.341 499.79 397.044 501.628Z" fill="#CCE1F4"/>
</g>
</g>
<mask id="mask5_141_158" style="mask-type:alpha" maskUnits="userSpaceOnUse" x="108" y="436" width="219" height="130">
<path d="M308.737 554.612C303.411 555.007 298.062 554.953 292.745 554.45C292.266 556.099 290.978 557.653 287.932 558.057C286.219 558.282 284.483 558.271 282.773 558.023C280.805 562.612 275.833 567.138 264.548 564.33C255.519 562.008 250.46 558.1 247.666 554.585C245.859 555.169 243.947 555.354 242.061 555.128C239.461 554.858 236.964 553.962 234.785 552.517C234.621 552.788 234.44 553.049 234.243 553.298C230.024 558.415 220.468 561.64 206.796 552.412C201.312 548.641 199.296 544.648 198.785 541.337C194.844 542.479 189.17 542.252 181.399 538.761C173.889 535.351 169.702 530.346 167.551 525.52C164.838 527.811 159.67 527.566 155.211 524.539C151.34 521.923 149.198 518.027 149.433 514.838C131.511 507.215 129.821 490.1 134.102 487.352C131.186 487.13 125.981 481.926 124.241 477.932C123.73 476.801 123.46 475.577 123.448 474.336C120.777 472.802 118.359 470.863 116.281 468.589C106.947 458.469 106.439 444.816 114.1 439.149C115.569 438.035 117.247 437.23 119.034 436.781C126.367 434.939 135.286 438.196 141.731 445.185C143.898 447.535 145.664 450.225 146.959 453.147C150.414 452.947 156.206 453.595 162.854 458.532C163.653 459.115 164.415 459.749 165.133 460.429C171.408 457.354 179.693 458.318 186.296 463.152C193.182 468.227 196.548 476.284 194.977 483.409C196.374 483.666 197.725 484.13 198.984 484.787C200.141 485.371 201.207 486.119 202.148 487.01C204.397 486.219 206.838 486.168 209.118 486.864C210.728 487.386 212.217 488.229 213.494 489.34C214.772 490.452 215.811 491.81 216.551 493.333C220.33 490.75 225.702 490.27 230.705 492.379C236.688 494.919 240.451 500.49 239.999 505.972C246.304 506.412 249.827 509.732 251.613 512.644C253.85 516.334 253.678 522.233 250.863 525.163C255.503 525.71 258.255 528.888 256.267 532.087C267.71 530.767 276.086 536.642 280.841 540.797C280.935 540.736 281.037 540.676 281.138 540.615C287.144 538.375 293.491 541.501 294.033 544.341C305.253 542.817 315.356 545.077 326.335 550.102L326.523 550.192C329.255 551.65 319.554 553.866 308.737 554.612Z" fill="white"/>
</mask>
<g mask="url(#mask5_141_158)">
<path d="M308.737 554.612C303.411 555.007 298.062 554.953 292.745 554.45C292.266 556.099 290.978 557.653 287.932 558.057C286.219 558.282 284.483 558.271 282.773 558.023C280.805 562.612 275.833 567.138 264.548 564.33C255.519 562.008 250.46 558.1 247.666 554.585C245.859 555.169 243.947 555.354 242.061 555.128C239.461 554.858 236.964 553.962 234.785 552.517C234.621 552.788 234.44 553.049 234.243 553.298C230.024 558.415 220.468 561.64 206.796 552.412C201.312 548.641 199.296 544.648 198.785 541.337C194.844 542.479 189.17 542.252 181.399 538.761C173.889 535.351 169.702 530.346 167.551 525.52C164.838 527.811 159.67 527.566 155.211 524.539C151.34 521.923 149.198 518.027 149.433 514.838C131.511 507.215 129.821 490.1 134.102 487.352C131.186 487.13 125.981 481.926 124.241 477.932C123.73 476.801 123.46 475.577 123.448 474.336C120.777 472.802 118.359 470.863 116.281 468.589C106.947 458.469 106.439 444.816 114.1 439.149C115.569 438.035 117.247 437.23 119.034 436.781C126.367 434.939 135.286 438.196 141.731 445.185C143.898 447.535 145.664 450.225 146.959 453.147C150.414 452.947 156.206 453.595 162.854 458.532C163.653 459.115 164.415 459.749 165.133 460.429C171.408 457.354 179.693 458.318 186.296 463.152C193.182 468.227 196.548 476.284 194.977 483.409C196.374 483.666 197.725 484.13 198.984 484.787C200.141 485.371 201.207 486.119 202.148 487.01C204.397 486.219 206.838 486.168 209.118 486.864C210.728 487.386 212.217 488.229 213.494 489.34C214.772 490.452 215.811 491.81 216.551 493.333C220.33 490.75 225.702 490.27 230.705 492.379C236.688 494.919 240.451 500.49 239.999 505.972C246.304 506.412 249.827 509.732 251.613 512.644C253.85 516.334 253.678 522.233 250.863 525.163C255.503 525.71 258.255 528.888 256.267 532.087C267.71 530.767 276.086 536.642 280.841 540.797C280.935 540.736 281.037 540.676 281.138 540.615C287.144 538.375 293.491 541.501 294.033 544.341C305.253 542.817 315.356 545.077 326.335 550.102L326.523 550.192C329.255 551.65 319.554 553.866 308.737 554.612Z" fill="#FFFBED"/>
<g filter="url(#filter5_f_141_158)">
<path d="M308.738 554.612C303.412 555.007 298.062 554.953 292.746 554.45C292.266 556.099 290.978 557.653 287.933 558.057C286.219 558.282 284.483 558.271 282.773 558.023C280.806 562.612 275.833 567.138 264.548 564.33C255.519 562.008 250.461 558.1 247.666 554.585C245.859 555.169 243.947 555.354 242.062 555.128C239.461 554.858 236.965 553.962 234.786 552.517C234.621 552.789 234.44 553.049 234.243 553.298C230.024 558.415 220.469 561.64 206.797 552.412C201.312 548.641 199.297 544.648 198.785 541.337C194.845 542.479 189.171 542.252 181.4 538.762C173.89 535.351 169.703 530.347 167.551 525.52C164.839 527.811 159.671 527.566 155.211 524.539C151.341 521.923 149.198 518.027 149.434 514.838C131.511 507.215 129.821 490.1 134.103 487.353C131.186 487.13 125.981 481.927 124.242 477.932C123.731 476.801 123.461 475.577 123.449 474.336C120.777 472.802 118.359 470.864 116.281 468.589C106.948 458.469 106.439 444.816 114.101 439.149C115.569 438.035 117.247 437.23 119.035 436.781C124.562 442.252 129.305 448.906 126.312 457.78C132.932 457.415 136.716 462.673 135.14 466.416C140.072 466.306 145.815 468.391 152.006 472.471C158.31 476.601 160.498 482.124 161.54 486.587L161.267 486.457C148.852 480.301 142.542 487.637 142.52 487.752C142.731 487.537 152.998 485.137 174.819 500.294C174.832 500.267 174.052 494.881 166.987 489.818C171.535 489.107 176.788 490.15 181.646 493.019C183.928 494.368 185.985 496.065 187.743 498.049C188.124 497.624 188.538 497.23 188.981 496.871C191.765 494.684 196.316 493.898 200.078 495.928C206.335 499.318 209 507.037 204.565 512.811C204.61 512.869 212.951 515.251 213.24 526.853C213.26 526.863 215.643 519.648 212.244 513.06C216.599 512.525 221.962 515.218 223.738 516.721C227.807 520.217 228.163 523.6 227.189 526.396C227.205 526.404 232.447 526.037 235.458 528.724C239.281 532.11 236.393 535.099 236.377 535.099C243.545 536.258 246.56 536.292 247.878 543.959C241.601 540.154 234.075 539.33 227.694 541.448C235.867 541.059 245.184 544.211 251.292 549.473C252.147 544.722 261.954 543.575 266.375 547.546C268.516 543.627 275.564 542.604 281.07 544.516C285.517 546.084 287.791 549.637 286.556 553.37C291.415 547.733 300.307 550.892 312.992 551.176C317.234 551.274 322.552 551.647 326.531 550.204C329.256 551.65 319.554 553.867 308.738 554.612Z" fill="#CCE1F4"/>
</g>
</g>
<mask id="mask6_141_158" style="mask-type:alpha" maskUnits="userSpaceOnUse" x="608" y="405" width="210" height="158">
<path d="M608.144 555.937C608.256 556.477 608.418 557.006 608.628 557.516C609.334 559.251 615.258 562.446 628.295 562.357C643.904 562.299 662.893 557.728 672.947 548.098C673.634 552.641 683.607 551.855 691.641 549.93C700.171 547.932 708.907 545.498 717.062 541.051C725.217 536.603 732.808 529.817 734.993 523.605C745.071 525.203 762.572 515.026 769.181 503.046C778.927 502.209 792.533 492.685 799.555 481.004C806.578 469.324 806.549 457.551 800.461 453.936C806.416 449.507 809.29 439.005 805.337 437.262C811.941 433.479 817.548 422.703 817.322 415.44C817.097 408.178 812.414 404.873 806.825 405.755C803.057 406.352 798.953 408.538 794.899 411.472C793.985 410.766 792.897 410.322 791.75 410.186C790.471 410.057 789.18 410.21 787.967 410.636C782.743 412.41 777.01 418.537 774.372 424.914C771.71 419.795 763.105 421.734 757.56 427.906C752.23 433.925 750.748 442.892 754.855 446.001C752.84 444.737 749.436 445.846 746.314 447.134C739.042 450.117 736.753 456.325 735.94 457.573C730.033 454.433 720.292 457.134 710.028 465.303C699.763 473.472 695.552 482.61 697.989 487.9C693.602 487.169 687.132 489.928 683.744 493.91C680.355 497.892 680.708 502.704 684.751 504.194C674.916 503.82 662.669 507.573 653.335 513.652C644.001 519.73 637.79 528.208 638.585 535.39C628.294 536.703 606.081 544.29 608.144 555.937Z" fill="white"/>
</mask>
<g mask="url(#mask6_141_158)">
<path d="M608.144 555.937C608.256 556.477 608.418 557.006 608.628 557.516C609.334 559.251 615.258 562.446 628.295 562.357C643.904 562.299 662.893 557.728 672.947 548.098C673.634 552.641 683.607 551.855 691.641 549.93C700.171 547.932 708.907 545.498 717.062 541.051C725.217 536.603 732.808 529.817 734.993 523.605C745.071 525.203 762.572 515.026 769.181 503.046C778.927 502.209 792.533 492.685 799.555 481.004C806.578 469.324 806.549 457.551 800.461 453.936C806.416 449.507 809.29 439.005 805.337 437.262C811.941 433.479 817.548 422.703 817.322 415.44C817.097 408.178 812.414 404.873 806.825 405.755C803.057 406.352 798.953 408.538 794.899 411.472C793.985 410.766 792.897 410.322 791.75 410.186C790.471 410.057 789.18 410.21 787.967 410.636C782.743 412.41 777.01 418.537 774.372 424.914C771.71 419.795 763.105 421.734 757.56 427.906C752.23 433.925 750.748 442.892 754.855 446.001C752.84 444.737 749.436 445.846 746.314 447.134C739.042 450.117 736.753 456.325 735.94 457.573C730.033 454.433 720.292 457.134 710.028 465.303C699.763 473.472 695.552 482.61 697.989 487.9C693.602 487.169 687.132 489.928 683.744 493.91C680.355 497.892 680.708 502.704 684.751 504.194C674.916 503.82 662.669 507.573 653.335 513.652C644.001 519.73 637.79 528.208 638.585 535.39C628.294 536.703 606.081 544.29 608.144 555.937Z" fill="#FFF9E1"/>
<g filter="url(#filter6_f_141_158)">
<path d="M806.84 405.745C803.071 406.341 798.968 408.528 794.913 411.462C790.259 414.984 786.886 419.934 785.311 425.555C796.116 415.314 802.609 421.783 802.64 421.906C794.635 421.999 789.478 426.197 785.419 430.195C781.032 434.55 777.992 440.062 777.506 444.353C777.385 444.982 777.391 445.63 777.527 446.256C777.663 446.882 777.924 447.474 778.295 447.996C778.666 448.519 779.138 448.961 779.685 449.295C780.231 449.63 780.84 449.85 781.474 449.943C770.116 454.193 762.726 461.608 760.769 466.205C768.758 459.729 774.391 461.365 774.419 461.389C751.041 476.375 744.264 490.621 744.205 490.964C744.126 490.852 740.46 484.758 753.259 472.397C748.786 469.245 740.465 469.396 732.294 475.743C722.205 483.576 716.585 494.004 721.65 500.604C717.36 502.844 714.772 508.079 717.351 509.68C713.663 510.264 709.789 510.823 705.943 512.648C702.096 514.473 698.307 518.001 698.655 520.538C693.55 523.692 690.569 528.893 692.587 531.674C683.186 531.563 670.729 536.013 662.373 542.257C664.415 533.229 678.979 522.756 692.183 519.688C689.271 514.925 678.836 514.932 670.473 519.103C662.11 523.274 656.956 531.303 660.432 535.9C653.434 537.145 646.939 543.522 649.787 546.888C645.5 542.833 634.931 544.479 628.948 546.758C637.882 546.006 643.015 550.701 643.014 555.094C638.885 552.112 628.775 547.317 608.092 555.974C608.203 556.515 608.366 557.043 608.576 557.553C609.282 559.288 615.205 562.483 628.243 562.394C643.851 562.336 662.841 557.765 672.895 548.135C673.582 552.678 683.554 551.892 691.589 549.967C700.119 547.969 708.854 545.535 717.01 541.088C725.165 536.64 732.756 529.854 734.941 523.642C745.018 525.24 762.52 515.063 769.129 503.083C778.875 502.246 792.481 492.722 799.503 481.041C806.526 469.361 806.497 457.588 800.409 453.973C806.364 449.544 809.238 439.042 805.285 437.299C811.889 433.516 817.496 422.74 817.27 415.478C817.044 408.215 812.429 404.863 806.84 405.745Z" fill="#CCE1F4"/>
</g>
</g>
<mask id="mask7_141_158" style="mask-type:alpha" maskUnits="userSpaceOnUse" x="197" y="313" width="79" height="95">
<path d="M274.719 406.191C274.602 406.42 274.464 406.638 274.306 406.842C273.774 407.535 270.714 408.242 264.856 406.593C257.838 404.64 249.856 400.239 246.519 394.664C245.649 396.623 241.257 395.039 237.879 393.181C234.286 391.228 230.655 389.055 227.533 386.046C224.412 383.038 221.832 379.046 221.616 375.981C216.883 375.456 210.261 368.715 208.765 362.507C204.482 360.928 199.534 354.961 197.815 348.837C196.096 342.713 197.562 337.418 200.749 336.542C198.615 333.813 198.618 328.732 200.612 328.435C198.107 325.918 196.913 320.375 197.911 317.134C198.909 313.893 201.425 312.984 203.831 314.071C205.454 314.804 207.031 316.295 208.494 318.116C208.992 317.911 209.537 317.845 210.07 317.926C210.661 318.025 211.223 318.254 211.717 318.595C213.849 320.038 215.673 323.504 216.074 326.7C217.903 324.724 221.537 326.659 223.271 330.122C224.927 333.489 224.488 337.707 222.255 338.6C223.318 338.28 224.713 339.199 225.959 340.164C228.864 342.404 229.128 345.481 229.34 346.143C232.386 345.459 236.438 347.877 240.049 352.821C243.661 357.765 244.428 362.397 242.678 364.478C244.743 364.69 247.314 366.731 248.348 368.941C249.382 371.152 248.629 373.274 246.625 373.446C251.098 374.491 256.147 377.692 259.598 381.58C263.049 385.468 264.798 390.051 263.554 393.185C268.023 395.047 277.085 401.203 274.719 406.191Z" fill="white"/>
</mask>
<g mask="url(#mask7_141_158)">
<path d="M274.719 406.191C274.602 406.42 274.464 406.638 274.306 406.842C273.774 407.535 270.714 408.242 264.856 406.593C257.838 404.64 249.856 400.239 246.519 394.664C245.649 396.623 241.257 395.039 237.879 393.181C234.286 391.228 230.655 389.055 227.533 386.046C224.412 383.038 221.832 379.046 221.616 375.981C216.883 375.456 210.261 368.715 208.765 362.507C204.482 360.928 199.534 354.961 197.815 348.837C196.096 342.713 197.562 337.418 200.749 336.542C198.615 333.813 198.618 328.732 200.612 328.435C198.107 325.918 196.913 320.375 197.911 317.134C198.909 313.893 201.425 312.984 203.831 314.071C205.454 314.804 207.031 316.295 208.494 318.116C208.992 317.911 209.537 317.845 210.07 317.926C210.661 318.025 211.223 318.254 211.717 318.595C213.849 320.038 215.673 323.504 216.074 326.7C217.903 324.724 221.537 326.659 223.271 330.122C224.927 333.489 224.488 337.707 222.255 338.6C223.318 338.28 224.713 339.199 225.959 340.164C228.864 342.404 229.128 345.481 229.34 346.143C232.386 345.459 236.438 347.877 240.049 352.821C243.661 357.765 244.428 362.397 242.678 364.478C244.743 364.69 247.314 366.731 248.348 368.941C249.382 371.152 248.629 373.274 246.625 373.446C251.098 374.491 256.147 377.692 259.598 381.58C263.049 385.468 264.798 390.051 263.554 393.185C268.023 395.047 277.085 401.203 274.719 406.191Z" fill="#FFF9E1"/>
<g filter="url(#filter7_f_141_158)">
<path d="M203.826 314.064C205.449 314.798 207.026 316.288 208.488 318.109C210.148 320.269 211.055 322.914 211.071 325.638C207.471 319.694 203.751 321.805 203.721 321.856C207.313 322.886 209.116 325.412 210.449 327.713C211.886 330.215 212.574 333.071 212.263 335.062C212.24 335.36 212.157 335.651 212.019 335.916C211.881 336.181 211.69 336.415 211.459 336.605C211.227 336.794 210.96 336.935 210.673 337.018C210.385 337.101 210.084 337.125 209.787 337.088C214.375 340.403 216.786 344.653 217.099 346.964C214.303 343.063 211.566 343.104 211.55 343.111C220.222 352.742 221.515 359.99 221.498 360.152C221.548 360.111 223.95 357.821 219.715 350.677C222.117 349.811 225.844 350.906 228.738 354.771C232.313 359.542 233.555 364.93 230.461 367.275C232.115 368.813 232.634 371.489 231.275 371.891C232.863 372.609 234.538 373.339 236.044 374.635C237.55 375.931 238.82 377.987 238.35 379.085C240.258 381.135 240.958 383.844 239.706 384.847C243.952 385.957 249.009 389.498 251.999 393.34C252.195 389.024 246.932 382.513 241.368 379.502C243.266 377.717 247.962 379.009 251.212 381.918C254.461 384.828 255.79 389.078 253.658 390.718C256.653 392.142 258.79 395.814 257.092 396.978C259.523 395.682 264.077 397.727 266.488 399.491C262.56 398.05 259.67 399.53 259.128 401.507C261.354 400.675 266.497 399.764 274.738 406.214C274.621 406.443 274.483 406.661 274.325 406.865C273.793 407.558 270.733 408.265 264.875 406.616C257.857 404.663 249.875 400.262 246.538 394.687C245.668 396.646 241.276 395.062 237.898 393.204C234.305 391.251 230.674 389.078 227.552 386.069C224.43 383.061 221.851 379.07 221.635 376.004C216.902 375.479 210.28 368.738 208.784 362.53C204.501 360.951 199.553 354.984 197.834 348.86C196.115 342.736 197.581 337.441 200.767 336.565C198.634 333.836 198.636 328.755 200.631 328.458C198.126 325.941 196.932 320.398 197.93 317.157C198.928 313.916 201.419 312.977 203.826 314.064Z" fill="#CCE1F4"/>
</g>
</g>
<defs>
<filter id="filter0_f_141_158" x="833.641" y="-15.3955" width="473.639" height="635.463" filterUnits="userSpaceOnUse" color-interpolation-filters="sRGB">
<feFlood flood-opacity="0" result="BackgroundImageFix"/>
<feBlend mode="normal" in="SourceGraphic" in2="BackgroundImageFix" result="shape"/>
<feGaussianBlur stdDeviation="10" result="effect1_foregroundBlur_141_158"/>
</filter>
<filter id="filter1_f_141_158" x="884.198" y="207.126" width="152.792" height="228.521" filterUnits="userSpaceOnUse" color-interpolation-filters="sRGB">
<feFlood flood-opacity="0" result="BackgroundImageFix"/>
<feBlend mode="normal" in="SourceGraphic" in2="BackgroundImageFix" result="shape"/>
<feGaussianBlur stdDeviation="10" result="effect1_foregroundBlur_141_158"/>
</filter>
<filter id="filter2_f_141_158" x="-19.6011" y="681.898" width="441.037" height="221.749" filterUnits="userSpaceOnUse" color-interpolation-filters="sRGB">
<feFlood flood-opacity="0" result="BackgroundImageFix"/>
<feBlend mode="normal" in="SourceGraphic" in2="BackgroundImageFix" result="shape"/>
<feGaussianBlur stdDeviation="10" result="effect1_foregroundBlur_141_158"/>
</filter>
<filter id="filter3_f_141_158" x="1195.51" y="169.921" width="372.818" height="414.408" filterUnits="userSpaceOnUse" color-interpolation-filters="sRGB">
<feFlood flood-opacity="0" result="BackgroundImageFix"/>
<feBlend mode="normal" in="SourceGraphic" in2="BackgroundImageFix" result="shape"/>
<feGaussianBlur stdDeviation="10" result="effect1_foregroundBlur_141_158"/>
</filter>
<filter id="filter4_f_141_158" x="297.589" y="462.74" width="104.002" height="47.5347" filterUnits="userSpaceOnUse" color-interpolation-filters="sRGB">
<feFlood flood-opacity="0" result="BackgroundImageFix"/>
<feBlend mode="normal" in="SourceGraphic" in2="BackgroundImageFix" result="shape"/>
<feGaussianBlur stdDeviation="2" result="effect1_foregroundBlur_141_158"/>
</filter>
<filter id="filter5_f_141_158" x="92.7778" y="420.781" width="250.217" height="160.415" filterUnits="userSpaceOnUse" color-interpolation-filters="sRGB">
<feFlood flood-opacity="0" result="BackgroundImageFix"/>
<feBlend mode="normal" in="SourceGraphic" in2="BackgroundImageFix" result="shape"/>
<feGaussianBlur stdDeviation="8" result="effect1_foregroundBlur_141_158"/>
</filter>
<filter id="filter6_f_141_158" x="588.092" y="385.607" width="249.184" height="196.789" filterUnits="userSpaceOnUse" color-interpolation-filters="sRGB">
<feFlood flood-opacity="0" result="BackgroundImageFix"/>
<feBlend mode="normal" in="SourceGraphic" in2="BackgroundImageFix" result="shape"/>
<feGaussianBlur stdDeviation="10" result="effect1_foregroundBlur_141_158"/>
</filter>
<filter id="filter7_f_141_158" x="191.106" y="307.632" width="89.6313" height="105.996" filterUnits="userSpaceOnUse" color-interpolation-filters="sRGB">
<feFlood flood-opacity="0" result="BackgroundImageFix"/>
<feBlend mode="normal" in="SourceGraphic" in2="BackgroundImageFix" result="shape"/>
<feGaussianBlur stdDeviation="3" result="effect1_foregroundBlur_141_158"/>
</filter>
</defs>
</svg>
