<svg width="180" height="48" viewBox="0 0 180 48" fill="none" xmlns="http://www.w3.org/2000/svg">
<g clip-path="url(#clip0_1_33)">
<path d="M5.81834 25.0524C7.78519 25.5182 9.50397 25.768 10.9842 25.8756C11.033 26.6771 11.3449 27.4908 12.2769 27.9049C12.7916 28.1365 13.3425 28.2718 13.9037 28.3043C14.1921 30.6156 15.3535 33.0531 18.981 33.0079C21.8996 32.9685 23.8119 31.9277 25.0536 30.7425C25.5009 31.2248 26.0303 31.607 26.6664 31.807C27.6251 32.1072 28.4524 32.0347 29.1345 31.7872C29.1494 31.9329 29.1681 32.076 29.196 32.2195C29.8216 35.1985 32.0375 38.0565 37.0907 36.8443C39.1388 36.3506 40.3195 35.1383 40.9991 33.8679C41.893 35.2122 43.4418 36.3558 46.0577 36.8228C48.5876 37.2707 50.5443 36.4195 52.0217 35.1224C52.1423 35.9229 52.5247 36.6576 53.106 37.206C53.6874 37.7545 54.4333 38.0841 55.2213 38.1408C55.9029 38.1894 56.5834 38.0316 57.1782 37.6868C57.7729 37.3421 58.2557 36.8257 58.5666 36.2019C64.2387 38.7149 68.4326 33.7478 68.2422 31.3757C68.9382 32.2588 71.2947 32.3115 72.6518 31.6655C73.0642 31.473 73.423 31.1705 73.7202 30.8121C74.6306 31.2633 75.6169 31.5315 76.6258 31.6021C81.0036 31.9153 84.799 28.5317 85.1042 24.0457C85.163 23.191 85.089 22.3321 84.885 21.5012C84.0761 18.1712 81.2536 15.6046 77.7311 15.3538C76.5373 15.2678 75.3399 15.4593 74.2284 15.9143C73.4769 14.6457 71.8774 12.7862 68.7593 12.2157C68.3879 12.1469 68.0115 12.1103 67.6341 12.1061C66.8217 9.00772 64.1686 6.63008 60.871 6.39427C57.4261 6.14805 54.3635 8.31622 53.25 11.4898C52.7688 11.2139 52.2417 11.0321 51.6956 10.9537C51.1246 10.8711 50.6322 10.9033 50.2112 11.0019C49.7072 10.1562 48.9277 9.47836 48.0033 9.18401C46.7156 8.78296 45.2567 9.14855 44.2301 10.0297C43.8585 9.05183 43.2235 8.20241 42.3991 7.58046C41.5747 6.95851 40.5948 6.58965 39.5737 6.51689C36.9848 6.33181 34.6962 8.05016 34.0078 10.5107C31.7387 9.54732 29.9862 10.4457 28.9701 11.4504C27.6749 12.7316 27.0011 15.3958 27.5705 17.1255C25.939 16.6614 24.6335 17.7201 24.9251 19.4348C21.2623 17.2296 17.7775 19.0523 15.8791 20.5254C15.8534 20.488 15.8246 20.4506 15.7957 20.4132C13.9605 18.8029 11.5644 19.7913 11.2132 21.0755C7.56504 19.5825 3.95617 20.2197 0.224533 22.4415C0.201692 22.4562 0.181706 22.4708 0.161086 22.4854C-0.762067 23.1565 2.35953 24.2324 5.81834 25.0524Z" fill="white"/>
<path d="M5.81824 25.0524C7.7851 25.5181 9.50387 25.7679 10.9841 25.8756C11.0329 26.677 11.3448 27.4908 12.2768 27.9049C12.7915 28.1365 13.3424 28.2718 13.9036 28.3043C14.192 30.6156 15.3534 33.0531 18.9809 33.0079C21.8995 32.9685 23.8118 31.9277 25.0535 30.7424C25.5008 31.2248 26.0302 31.607 26.6663 31.807C27.625 32.1072 28.4523 32.0347 29.1344 31.7872C29.1493 31.9329 29.168 32.076 29.1959 32.2194C29.8215 35.1985 32.0374 38.0565 37.0906 36.8443C39.1387 36.3505 40.3194 35.1383 40.999 33.8679C41.8929 35.2121 43.4417 36.3558 46.0576 36.8228C48.5875 37.2707 50.5442 36.4195 52.0216 35.1224C52.1422 35.9229 52.5246 36.6576 53.1059 37.206C53.6873 37.7544 54.4332 38.084 55.2212 38.1408C55.9028 38.1894 56.5833 38.0315 57.1781 37.6868C57.7728 37.3421 58.2556 36.8257 58.5665 36.2019C64.2386 38.7149 68.4325 33.7478 68.2421 31.3757C68.9381 32.2588 71.2946 32.3115 72.6517 31.6655C73.0641 31.473 73.4229 31.1705 73.7201 30.8121C74.6305 31.2633 75.6168 31.5315 76.6257 31.6021C81.0035 31.9153 84.7989 28.5317 85.1041 24.0457C85.1629 23.191 85.0889 22.3321 84.8849 21.5012C82.249 20.8107 79.2971 20.9762 77.4933 24.7242C76.2282 22.1947 73.927 22.4871 73.2969 24.2278C72.2459 22.4715 70.3689 21.1421 67.8031 20.476C65.1884 19.7929 63.2377 21.0696 61.918 22.3394L62.0192 22.3758C66.6617 24.0672 66.2581 28.7509 66.2581 28.7509C66.2581 28.7509 64.5371 24.0652 55.3037 23.4817C55.3037 23.4817 56.6957 21.6089 59.745 21.8554C59.2205 21.0274 58.5261 20.3267 57.7104 19.8022C56.8946 19.2776 55.977 18.9418 55.0217 18.8182C54.0692 18.6965 53.1024 18.7887 52.1881 19.0884C52.1698 18.8243 52.1343 18.5616 52.0819 18.3023C51.7475 16.7115 50.5518 15.1909 48.9698 15.0552C46.3183 14.824 44.0063 17.3935 44.2906 20.7824C44.2906 20.7824 41.2534 19.8508 39.251 24.7014C39.251 24.7014 39.6951 21.1421 41.9158 19.1454C40.6665 17.9494 38.4937 17.9647 37.6864 18.2542C35.8147 18.9281 35.1882 20.3358 35.0657 21.7221C35.0657 21.7221 33.4649 20.5716 32.1183 21.2247C30.4277 22.0434 30.9413 23.8561 30.9413 23.8561C28.5507 23.1577 27.5504 22.732 26.2234 25.9543C28.6363 25.1737 31.1104 26.0756 32.7144 28.1462C30.3288 26.4959 26.9991 26.4058 24.5297 27.9312C24.8251 25.6645 21.8132 23.8083 19.997 25.134C19.7061 23.0927 17.4795 21.8268 15.5047 22.2099C13.908 22.5238 12.9129 24.0034 13.0458 25.8307C11.8831 22.8312 8.7314 23.589 4.5807 23.2661C3.18233 23.1571 1.43437 23.2082 0.162571 22.4854C-0.762169 23.1564 2.35943 24.2324 5.81824 25.0524Z" fill="#CCE1F4"/>
<path d="M174.181 25.0524C172.215 25.5182 170.496 25.768 169.016 25.8756C168.966 26.6771 168.655 27.4908 167.723 27.9049C167.208 28.1365 166.657 28.2718 166.096 28.3043C165.808 30.6156 164.646 33.0531 161.018 33.0079C158.1 32.9685 156.188 31.9277 154.946 30.7425C154.499 31.2248 153.969 31.607 153.333 31.807C152.375 32.1072 151.547 32.0347 150.865 31.7872C150.85 31.9329 150.832 32.076 150.804 32.2195C150.178 35.1985 147.962 38.0565 142.909 36.8443C140.861 36.3506 139.68 35.1383 139 33.8679C138.107 35.2122 136.558 36.3558 133.942 36.8228C131.412 37.2707 129.455 36.4195 127.978 35.1224C127.858 35.9229 127.475 36.6576 126.894 37.206C126.312 37.7545 125.567 38.0841 124.778 38.1408C124.097 38.1894 123.416 38.0316 122.822 37.6868C122.227 37.3421 121.744 36.8257 121.433 36.2019C115.761 38.7149 111.567 33.7478 111.758 31.3757C111.061 32.2588 108.705 32.3115 107.348 31.6655C106.936 31.473 106.577 31.1705 106.279 30.8121C105.369 31.2633 104.383 31.5315 103.374 31.6021C98.9962 31.9153 95.2004 28.5317 94.8956 24.0457C94.8367 23.191 94.9106 22.3322 95.1145 21.5012C95.9238 18.1712 98.7459 15.6046 102.269 15.3538C103.462 15.2677 104.66 15.4593 105.771 15.9143C106.523 14.6457 108.122 12.7862 111.24 12.2157C111.612 12.1469 111.988 12.1103 112.366 12.1061C113.178 9.00772 115.831 6.63008 119.129 6.39427C122.573 6.14805 125.636 8.31622 126.749 11.4898C127.231 11.2139 127.758 11.0321 128.304 10.9537C128.875 10.8711 129.367 10.9033 129.788 11.0019C130.292 10.1562 131.072 9.47836 131.996 9.18401C133.284 8.78296 134.743 9.14855 135.769 10.0297C136.141 9.05183 136.776 8.20241 137.6 7.58046C138.425 6.95851 139.405 6.58965 140.426 6.51689C143.015 6.33181 145.303 8.05016 145.991 10.5107C148.261 9.54732 150.013 10.4457 151.029 11.4504C152.325 12.7316 152.998 15.3958 152.429 17.1255C154.061 16.6614 155.366 17.7201 155.074 19.4348C158.737 17.2296 162.222 19.0523 164.12 20.5254C164.146 20.488 164.175 20.4506 164.204 20.4132C166.039 18.8029 168.435 19.7913 168.786 21.0755C172.434 19.5825 176.043 20.2197 179.775 22.4415C179.798 22.4562 179.818 22.4708 179.838 22.4854C180.762 23.1565 177.64 24.2324 174.181 25.0524Z" fill="white"/>
<path d="M174.181 25.0524C172.215 25.5181 170.496 25.7679 169.016 25.8756C168.966 26.677 168.655 27.4908 167.723 27.9049C167.208 28.1365 166.657 28.2718 166.096 28.3043C165.808 30.6156 164.646 33.0531 161.018 33.0079C158.1 32.9685 156.188 31.9277 154.946 30.7424C154.499 31.2248 153.969 31.607 153.333 31.807C152.375 32.1072 151.547 32.0347 150.865 31.7872C150.85 31.9329 150.832 32.076 150.804 32.2194C150.178 35.1985 147.962 38.0565 142.909 36.8443C140.861 36.3505 139.68 35.1383 139 33.8679C138.107 35.2121 136.558 36.3558 133.942 36.8228C131.412 37.2707 129.455 36.4195 127.978 35.1224C127.858 35.9229 127.475 36.6576 126.894 37.206C126.312 37.7544 125.567 38.084 124.778 38.1408C124.097 38.1894 123.416 38.0315 122.822 37.6868C122.227 37.3421 121.744 36.8257 121.433 36.2019C115.761 38.7149 111.567 33.7478 111.758 31.3757C111.061 32.2588 108.705 32.3115 107.348 31.6655C106.936 31.473 106.577 31.1705 106.279 30.8121C105.369 31.2633 104.383 31.5315 103.374 31.6021C98.9962 31.9153 95.2004 28.5317 94.8956 24.0457C94.8367 23.191 94.9106 22.3321 95.1145 21.5012C97.7507 20.8107 100.702 20.9762 102.508 24.7242C103.773 22.1947 106.074 22.4871 106.704 24.2278C107.755 22.4715 109.632 21.1421 112.198 20.476C114.812 19.7929 116.763 21.0696 118.083 22.3394L117.982 22.3758C113.339 24.0672 113.743 28.7509 113.743 28.7509C113.743 28.7509 115.464 24.0652 124.697 23.4817C124.697 23.4817 123.305 21.6089 120.256 21.8554C120.781 21.0274 121.475 20.3267 122.291 19.8022C123.106 19.2776 124.024 18.9418 124.979 18.8182C125.932 18.6965 126.898 18.7887 127.813 19.0884C127.831 18.8243 127.867 18.5617 127.919 18.3023C128.253 16.7115 129.449 15.1909 131.031 15.0552C133.683 14.824 135.994 17.3935 135.71 20.7824C135.71 20.7824 138.747 19.8508 140.75 24.7014C140.75 24.7014 140.306 21.1421 138.085 19.1454C139.334 17.9494 141.507 17.9647 142.314 18.2542C144.186 18.9281 144.813 20.3358 144.935 21.7221C144.935 21.7221 146.536 20.5716 147.883 21.2247C149.573 22.0434 149.059 23.8561 149.059 23.8561C151.45 23.1577 152.451 22.732 153.778 25.9543C151.365 25.1737 148.89 26.0756 147.286 28.1462C149.672 26.4959 153.002 26.4058 155.471 27.9312C155.176 25.6645 158.187 23.8083 160.004 25.134C160.295 23.0927 162.521 21.8268 164.496 22.2099C166.093 22.5238 167.088 24.0034 166.955 25.8307C168.118 22.8312 171.269 23.589 175.42 23.2661C176.818 23.1571 178.566 23.2082 179.838 22.4854C180.762 23.1564 177.64 24.2324 174.181 25.0524Z" fill="#CCE1F4"/>
<path d="M43.5854 20.8484C44.8226 21.1412 45.9038 21.2973 46.8345 21.3659C46.8663 21.8701 47.0617 22.382 47.6479 22.6426C47.9716 22.7882 48.3181 22.8732 48.671 22.8937C48.8525 24.3476 49.5831 25.8812 51.8646 25.8535C53.7001 25.8291 54.9031 25.1744 55.6841 24.4289C55.9655 24.7323 56.2986 24.9727 56.6993 25.0983C57.302 25.2872 57.8226 25.2414 58.2515 25.0859C58.261 25.1776 58.2728 25.2674 58.2902 25.3578C58.6839 27.2316 60.0775 29.0293 63.2559 28.2669C64.5442 27.9563 65.2862 27.1936 65.7141 26.3947C66.2766 27.2404 67.2499 27.9596 68.896 28.2533C70.4872 28.5349 71.7178 27.9996 72.6479 27.1838C72.7237 27.6873 72.9642 28.1494 73.3298 28.4944C73.6954 28.8393 74.1645 29.0466 74.6602 29.0823C75.0889 29.1129 75.5169 29.0136 75.891 28.7967C76.2652 28.5799 76.5689 28.255 76.7644 27.8626C80.332 29.4434 82.9704 26.3193 82.8508 24.8273C83.2886 25.3825 84.7707 25.4157 85.6254 25.0095C85.8849 24.8829 86.1143 24.6998 86.2976 24.4728C86.8702 24.7565 87.4904 24.9251 88.1249 24.9695C88.7794 25.0165 89.4366 24.9308 90.0589 24.7174C90.6811 24.504 91.2563 24.167 91.7515 23.7257C92.2467 23.2843 92.6523 22.7473 92.9451 22.1452C93.2379 21.5432 93.4122 20.8879 93.4579 20.2168C93.4948 19.6791 93.4482 19.1389 93.3199 18.6162C93.0644 17.5667 92.4913 16.6272 91.6829 15.9322C90.8744 15.2373 89.8721 14.8227 88.8196 14.7479C88.0687 14.6938 87.3156 14.8143 86.6164 15.1005C86.1437 14.3016 85.1378 13.1327 83.1766 12.7739C82.9429 12.7306 82.7061 12.7077 82.4686 12.7053C82.2121 11.7272 81.6644 10.8555 80.902 10.2115C80.1395 9.5675 79.2002 9.18333 78.2148 9.11246C77.1845 9.03932 76.1591 9.31265 75.2941 9.89099C74.429 10.4693 73.7716 11.3211 73.4213 12.3172C73.1186 12.1439 72.7871 12.0296 72.4436 11.9803C72.1333 11.9316 71.8168 11.9418 71.51 12.0105C71.1928 11.4781 70.7027 11.0523 70.1212 10.8672C69.3113 10.6148 68.3938 10.8448 67.7479 11.3997C67.5143 10.7847 67.1149 10.2504 66.5963 9.85934C66.0778 9.46824 65.4614 9.2364 64.8192 9.19085C64.0435 9.13563 63.2727 9.35491 62.6356 9.81207C61.9985 10.2692 61.5336 10.9366 61.3185 11.7028C59.891 11.0969 58.7889 11.6615 58.1497 12.2938C57.335 13.0998 56.9125 14.7755 57.2693 15.8635C56.2431 15.5708 55.4221 16.2372 55.6055 17.3148C53.3017 15.9279 51.1099 17.0745 49.9158 18.0008C49.8997 17.9774 49.8816 17.954 49.8632 17.9302C48.7091 16.9174 47.2019 17.5399 46.9811 18.3469C44.6862 17.4079 42.4164 17.8086 40.0692 19.2072C40.0549 19.2163 40.0425 19.2254 40.0298 19.2348C39.4464 19.6557 41.4095 20.3326 43.5854 20.8484Z" fill="white"/>
<path d="M43.5859 20.8484C44.8232 21.1412 45.9043 21.2973 46.8351 21.3659C46.8668 21.8701 47.0622 22.382 47.6484 22.6425C47.9721 22.7882 48.3186 22.8732 48.6715 22.8936C48.853 24.3475 49.5836 25.8811 51.8651 25.8535C53.7007 25.8291 54.9036 25.1744 55.6847 24.4289C55.966 24.7323 56.2991 24.9727 56.6998 25.0982C57.3025 25.2872 57.8231 25.2414 58.252 25.0859C58.2615 25.1776 58.2733 25.2674 58.2907 25.3578C58.6844 27.2316 60.078 29.0293 63.2564 28.2669C64.5447 27.9563 65.2867 27.1936 65.7147 26.3947C66.2771 27.2404 67.2504 27.9595 68.8965 28.2532C70.4878 28.5349 71.7183 27.9995 72.6485 27.1838C72.7243 27.6873 72.9647 28.1494 73.3303 28.4943C73.6959 28.8393 74.165 29.0466 74.6607 29.0823C75.0894 29.1129 75.5174 29.0136 75.8916 28.7967C76.2657 28.5799 76.5694 28.255 76.7649 27.8626C80.3325 29.4434 82.971 26.3193 82.8514 24.8273C83.2892 25.3825 84.7713 25.4157 85.6259 25.0094C85.8854 24.8829 86.1149 24.6997 86.2981 24.4728C86.8707 24.7565 87.491 24.9251 88.1254 24.9694C88.7799 25.0164 89.4371 24.9308 90.0594 24.7174C90.6816 24.504 91.2568 24.167 91.752 23.7256C92.2473 23.2843 92.6528 22.7473 92.9456 22.1452C93.2384 21.5432 93.4127 20.8879 93.4584 20.2168C93.4953 19.6791 93.4487 19.1389 93.3204 18.6162C91.6626 18.182 89.8058 18.286 88.6704 20.6435C87.8748 19.0523 86.4272 19.2364 86.031 20.3313C85.3699 19.2277 84.1891 18.3904 82.5757 17.9712C80.9308 17.5422 79.7038 18.3449 78.8739 19.1421L78.9373 19.1649C81.8559 20.2278 81.6021 23.1743 81.6021 23.1743C81.6021 23.1743 80.5197 20.2272 74.7121 19.8606C74.7121 19.8606 75.5876 18.6828 77.5053 18.838C77.1754 18.3172 76.7387 17.8765 76.2256 17.5466C75.7125 17.2166 75.1353 17.0055 74.5344 16.9278C73.9355 16.8512 73.3274 16.9093 72.7525 17.0979C72.7407 16.9316 72.7183 16.7664 72.6856 16.6031C72.4752 15.6027 71.7231 14.6464 70.7282 14.5608C69.0602 14.4155 67.6063 16.0317 67.7849 18.1631C67.7849 18.1631 65.8745 17.5776 64.6151 20.6282C64.6151 20.6282 64.8937 18.3895 66.2917 17.1336C65.5059 16.3813 64.1396 16.3908 63.6317 16.5732C62.4541 16.9961 62.0601 17.8834 61.9821 18.7541C61.9821 18.7541 60.9752 18.0307 60.1282 18.4415C59.0648 18.9564 59.3877 20.0964 59.3877 20.0964C57.884 19.6573 57.255 19.3896 56.4203 21.4163C57.938 20.9258 59.4943 21.4924 60.5031 22.7951C59.0026 21.7569 56.9082 21.7003 55.3547 22.6598C55.5406 21.2342 53.6461 20.0665 52.5037 20.8995C52.3207 19.6157 50.9204 18.8178 49.6781 19.0601C48.6737 19.2576 48.0482 20.1885 48.1316 21.337C47.4004 19.4505 45.4186 19.927 42.8071 19.724C41.9278 19.6554 40.8282 19.6876 40.0282 19.2338C39.447 19.6557 41.41 20.3326 43.5859 20.8484Z" fill="#CCE1F4"/>
<path d="M136.414 20.8484C135.177 21.1412 134.096 21.2973 133.165 21.3659C133.133 21.8701 132.938 22.382 132.352 22.6426C132.028 22.7881 131.682 22.8732 131.329 22.8937C131.147 24.3476 130.417 25.8812 128.135 25.8535C126.3 25.8291 125.096 25.1744 124.315 24.4289C124.034 24.7324 123.701 24.9727 123.3 25.0983C122.697 25.2872 122.177 25.2414 121.748 25.0859C121.738 25.1776 121.727 25.2674 121.709 25.3578C121.316 27.2316 119.922 29.0293 116.744 28.2669C115.455 27.9563 114.713 27.1936 114.285 26.3947C113.723 27.2404 112.749 27.9596 111.103 28.2533C109.512 28.5349 108.28 27.9996 107.352 27.1838C107.276 27.6873 107.035 28.1495 106.67 28.4945C106.304 28.8394 105.835 29.0467 105.339 29.0824C104.91 29.1129 104.482 29.0136 104.108 28.7967C103.734 28.5798 103.431 28.255 103.235 27.8626C99.6672 29.4434 97.029 26.3193 97.1486 24.8273C96.7105 25.3825 95.2287 25.4157 94.3741 25.0095C94.1145 24.883 93.885 24.6998 93.7019 24.4728C93.1292 24.7565 92.5088 24.9251 91.8743 24.9695C91.2198 25.0165 90.5626 24.9308 89.9404 24.7174C89.3181 24.504 88.743 24.167 88.2478 23.7256C87.7526 23.2843 87.347 22.7473 87.0543 22.1452C86.7615 21.5432 86.5873 20.8879 86.5415 20.2168C86.5046 19.6791 86.5512 19.1389 86.6796 18.6162C86.9351 17.5667 87.5082 16.627 88.3167 15.9321C89.1252 15.2372 90.1276 14.8226 91.1802 14.7479C91.931 14.6938 92.684 14.8143 93.383 15.1005C93.8557 14.3016 94.862 13.1327 96.8231 12.7739C97.0568 12.7306 97.2935 12.7077 97.5309 12.7053C97.7875 11.7272 98.3352 10.8555 99.0977 10.2115C99.8602 9.56755 100.8 9.18337 101.785 9.11247C102.815 9.03929 103.841 9.31261 104.706 9.89097C105.571 10.4693 106.228 11.3212 106.578 12.3172C106.881 12.1439 107.212 12.0297 107.556 11.9803C107.866 11.9316 108.183 11.9418 108.49 12.0105C108.807 11.4781 109.297 11.0523 109.878 10.8672C110.688 10.6148 111.606 10.8448 112.252 11.3997C112.485 10.7847 112.885 10.2506 113.403 9.85951C113.922 9.46843 114.538 9.23654 115.181 9.19086C115.956 9.13564 116.727 9.35492 117.364 9.81208C118.001 10.2692 118.466 10.9366 118.681 11.7028C120.109 11.0969 121.211 11.6615 121.85 12.2938C122.665 13.0998 123.087 14.7755 122.73 15.8635C123.756 15.5708 124.577 16.2373 124.394 17.3148C126.698 15.9279 128.89 17.0745 130.084 18.0008C130.1 17.9774 130.118 17.954 130.136 17.9302C131.291 16.9174 132.798 17.5399 133.019 18.3469C135.314 17.4079 137.583 17.8086 139.93 19.2072C139.945 19.2163 139.957 19.2254 139.97 19.2348C140.553 19.6557 138.59 20.3326 136.414 20.8484Z" fill="white"/>
<path d="M136.414 20.8484C135.177 21.1412 134.096 21.2973 133.165 21.3659C133.133 21.8701 132.938 22.382 132.352 22.6425C132.028 22.7881 131.682 22.8732 131.329 22.8936C131.147 24.3475 130.417 25.8811 128.135 25.8535C126.3 25.8291 125.096 25.1744 124.315 24.4289C124.034 24.7323 123.701 24.9727 123.3 25.0982C122.697 25.2872 122.177 25.2414 121.748 25.0859C121.738 25.1776 121.727 25.2674 121.709 25.3578C121.316 27.2316 119.922 29.0293 116.744 28.2669C115.455 27.9563 114.713 27.1936 114.285 26.3947C113.723 27.2404 112.749 27.9595 111.103 28.2532C109.512 28.5349 108.28 27.9995 107.352 27.1838C107.276 27.6873 107.035 28.1495 106.67 28.4944C106.304 28.8394 105.835 29.0467 105.339 29.0823C104.91 29.1129 104.482 29.0135 104.108 28.7967C103.734 28.5798 103.431 28.255 103.235 27.8626C99.6672 29.4434 97.029 26.3193 97.1486 24.8273C96.7105 25.3825 95.2287 25.4157 94.3741 25.0094C94.1145 24.883 93.885 24.6998 93.7019 24.4728C93.1292 24.7565 92.5088 24.9251 91.8743 24.9694C91.2198 25.0164 90.5626 24.9308 89.9404 24.7174C89.3181 24.504 88.743 24.167 88.2478 23.7256C87.7526 23.2843 87.347 22.7472 87.0543 22.1452C86.7615 21.5431 86.5873 20.8879 86.5415 20.2168C86.5046 19.6791 86.5512 19.1389 86.6796 18.6162C88.3374 18.1819 90.1939 18.286 91.3293 20.6435C92.1252 19.0523 93.5727 19.2364 93.969 20.3313C94.6301 19.2277 95.809 18.3904 97.4243 17.9712C99.0689 17.5422 100.296 18.3449 101.126 19.1421L101.063 19.1649C98.1441 20.2278 98.3979 23.1743 98.3979 23.1743C98.3979 23.1743 99.4803 20.2272 105.288 19.8606C105.288 19.8606 104.412 18.6828 102.494 18.838C102.824 18.3172 103.261 17.8765 103.774 17.5466C104.287 17.2167 104.864 17.0055 105.465 16.9278C106.064 16.8512 106.672 16.9093 107.247 17.0979C107.259 16.9316 107.281 16.7663 107.314 16.6031C107.525 15.6027 108.277 14.6464 109.272 14.5608C110.939 14.4155 112.394 16.0317 112.215 18.1631C112.215 18.1631 114.125 17.5776 115.385 20.6282C115.385 20.6282 115.106 18.3895 113.708 17.1336C114.494 16.3813 115.86 16.3908 116.368 16.5732C117.546 16.9961 117.94 17.8834 118.018 18.7541C118.018 18.7541 119.025 18.0307 119.872 18.4415C120.935 18.9564 120.612 20.0964 120.612 20.0964C122.116 19.6573 122.745 19.3896 123.58 21.4163C122.062 20.9258 120.506 21.4924 119.497 22.7951C120.997 21.7569 123.092 21.7003 124.645 22.6598C124.459 21.2342 126.354 20.0665 127.496 20.8995C127.679 19.6157 129.08 18.8178 130.322 19.0601C131.326 19.2576 131.952 20.1885 131.868 21.337C132.6 19.4505 134.581 19.927 137.193 19.724C138.072 19.6554 139.172 19.6876 139.972 19.2338C140.553 19.6557 138.59 20.3326 136.414 20.8484Z" fill="#CCE1F4"/>
<path d="M43.5854 34.507C44.8226 34.7997 45.9038 34.9558 46.8345 35.0244C46.8663 35.5286 47.0617 36.0406 47.6479 36.3011C47.9716 36.4467 48.3181 36.5317 48.671 36.5522C48.8525 38.0061 49.5831 39.5397 51.8646 39.512C53.7001 39.4876 54.9031 38.8329 55.6841 38.0874C55.9655 38.3909 56.2986 38.6312 56.6993 38.7568C57.302 38.9458 57.8226 38.8999 58.2515 38.7444C58.261 38.8361 58.2728 38.9262 58.2902 39.0163C58.6839 40.8902 60.0775 42.6879 63.2559 41.9255C64.5442 41.6148 65.2862 40.8521 65.7141 40.0533C66.2766 40.8989 67.2499 41.6181 68.896 41.9118C70.4872 42.1935 71.7178 41.6581 72.6479 40.8423C72.7237 41.3458 72.9642 41.8079 73.3298 42.1529C73.6954 42.4978 74.1645 42.7052 74.6602 42.7409C75.0889 42.7715 75.517 42.6722 75.8911 42.4554C76.2653 42.2385 76.5689 41.9136 76.7644 41.5212C80.332 43.1019 82.9704 39.9778 82.8508 38.4858C83.2886 39.0414 84.7707 39.0742 85.6254 38.668C85.8849 38.5414 86.1143 38.3583 86.2976 38.1313C86.8702 38.4151 87.4904 38.5836 88.1249 38.628C88.7795 38.6749 89.4368 38.5891 90.0591 38.3755C90.6815 38.1619 91.2566 37.8247 91.7518 37.3831C92.247 36.9416 92.6525 36.4043 92.9451 35.802C93.2378 35.1998 93.4118 34.5443 93.4573 33.873C93.4942 33.3354 93.4476 32.7951 93.3193 32.2724C93.0636 31.2233 92.4906 30.284 91.6822 29.5893C90.8739 28.8945 89.8718 28.48 88.8196 28.4051C88.0687 28.3511 87.3156 28.4716 86.6164 28.7577C86.1437 27.9589 85.1378 26.7902 83.1766 26.4311C82.9429 26.3879 82.7061 26.3649 82.4686 26.3625C82.2121 25.3844 81.6644 24.5127 80.902 23.8687C80.1395 23.2247 79.2002 22.8406 78.2148 22.7697C77.1845 22.6965 76.1591 22.9699 75.2941 23.5482C74.429 24.1266 73.7716 24.9784 73.4213 25.9745C73.1186 25.8011 72.7871 25.6868 72.4436 25.6375C72.1333 25.5888 71.8168 25.599 71.51 25.6677C71.1928 25.1353 70.7027 24.7095 70.1212 24.5245C69.3113 24.2721 68.3938 24.502 67.7479 25.0569C67.5143 24.4419 67.1149 23.9077 66.5963 23.5166C66.0778 23.1255 65.4614 22.8936 64.8192 22.8481C64.0435 22.7929 63.2727 23.0121 62.6356 23.4693C61.9985 23.9265 61.5336 24.5938 61.3185 25.36C59.891 24.7541 58.7889 25.3187 58.1497 25.951C57.335 26.757 56.9125 28.4328 57.2693 29.5207C56.2431 29.228 55.4221 29.8945 55.6055 30.9721C53.3017 29.5852 51.1099 30.7317 49.9158 31.658C49.8997 31.6346 49.8816 31.6112 49.8632 31.5878C48.7091 30.5746 47.2019 31.1975 46.9811 32.0041C44.6862 31.0651 42.4164 31.4658 40.0692 32.8644C40.0549 32.8735 40.0425 32.8829 40.0298 32.8921C39.4464 33.3142 41.4095 33.9911 43.5854 34.507Z" fill="white"/>
<path d="M43.5858 34.5071C44.823 34.7998 45.9042 34.956 46.8349 35.0246C46.8667 35.5287 47.0621 36.0407 47.6483 36.3012C47.972 36.4468 48.3185 36.5319 48.6714 36.5523C48.8529 38.0062 49.5835 39.5398 51.865 39.5122C53.7005 39.4878 54.9035 38.833 55.6845 38.0876C55.9659 38.391 56.299 38.6314 56.6997 38.7569C57.3024 38.9459 57.823 38.9 58.2519 38.7446C58.2614 38.8363 58.2732 38.9264 58.2906 39.0165C58.6843 40.8903 60.0779 42.688 63.2563 41.9256C64.5446 41.615 65.2866 40.8522 65.7146 40.0534C66.277 40.8991 67.2503 41.6182 68.8964 41.9119C70.4877 42.1936 71.7182 41.6582 72.6483 40.8425C72.7242 41.346 72.9646 41.8081 73.3302 42.153C73.6958 42.498 74.1649 42.7053 74.6606 42.741C75.0893 42.7717 75.5174 42.6724 75.8915 42.4555C76.2657 42.2386 76.5693 41.9138 76.7648 41.5213C80.3324 43.1021 82.9709 39.978 82.8513 38.486C83.289 39.0415 84.7712 39.0744 85.6258 38.6681C85.8853 38.5416 86.1148 38.3584 86.298 38.1315C86.8706 38.4152 87.4908 38.5838 88.1253 38.6281C88.78 38.675 89.4372 38.5892 90.0596 38.3756C90.6819 38.162 91.2571 37.8248 91.7522 37.3833C92.2474 36.9417 92.6529 36.4045 92.9456 35.8022C93.2382 35.1999 93.4122 34.5444 93.4577 33.8732C93.4946 33.3355 93.448 32.7953 93.3197 32.2726C91.6618 31.8384 89.8051 31.9424 88.6697 34.2999C87.874 32.7091 86.4265 32.8928 86.0303 33.9877C85.3692 32.8841 84.1884 32.0469 82.575 31.6279C80.9301 31.1986 79.703 32.0013 78.8731 32.7988L78.9366 32.8216C81.8574 33.8862 81.6036 36.833 81.6036 36.833C81.6036 36.833 80.5212 33.8862 74.7136 33.5193C74.7136 33.5193 75.5891 32.3415 77.5068 32.4967C77.1769 31.9759 76.7402 31.5352 76.2271 31.2052C75.7139 30.8753 75.1368 30.6641 74.5359 30.5864C73.9369 30.5099 73.3289 30.568 72.754 30.7566C72.7422 30.5903 72.7198 30.4251 72.6871 30.2618C72.4767 29.2613 71.7246 28.3051 70.7297 28.2195C69.0617 28.0741 67.6078 29.6904 67.7864 31.8221C67.7864 31.8221 65.876 31.2366 64.6166 34.2869C64.6166 34.2869 64.8951 32.0482 66.2932 30.7923C65.5074 30.04 64.1411 30.0494 63.6332 30.2319C62.4556 30.6547 62.0616 31.542 61.9835 32.4128C61.9835 32.4128 60.9766 31.6894 60.1296 32.1002C59.0663 32.6151 59.3892 33.7554 59.3892 33.7554C57.8855 33.316 57.2564 33.0483 56.4218 35.075C57.9394 34.5845 59.4958 35.1511 60.5046 36.4538C59.0041 35.4156 56.9097 35.359 55.3562 36.3185C55.5421 34.8929 53.6476 33.7252 52.5052 34.5582C52.3222 33.2744 50.9219 32.4765 49.6796 32.7192C48.6752 32.9163 48.0497 33.8472 48.1331 34.996C47.4019 33.1095 45.4201 33.586 42.8086 33.383C41.9292 33.3144 40.8297 33.3466 40.0296 32.8928C39.4469 33.3144 41.4099 33.9912 43.5858 34.5071Z" fill="#CCE1F4"/>
<path d="M136.414 34.507C135.177 34.7997 134.096 34.9558 133.165 35.0245C133.133 35.5286 132.938 36.0406 132.352 36.3011C132.028 36.4467 131.682 36.5317 131.329 36.5522C131.147 38.0061 130.417 39.5397 128.135 39.512C126.3 39.4877 125.096 38.8329 124.315 38.0874C124.034 38.3909 123.701 38.6312 123.3 38.7568C122.697 38.9458 122.177 38.8999 121.748 38.7444C121.738 38.8362 121.727 38.9263 121.709 39.0164C121.316 40.8902 119.922 42.6879 116.744 41.9255C115.455 41.6148 114.713 40.8521 114.285 40.0533C113.723 40.8989 112.749 41.6181 111.103 41.9118C109.512 42.1935 108.28 41.6581 107.352 40.8424C107.276 41.3459 107.035 41.808 106.67 42.153C106.304 42.498 105.835 42.7053 105.339 42.7409C104.91 42.7715 104.482 42.6722 104.108 42.4553C103.734 42.2385 103.431 41.9136 103.235 41.5212C99.6672 43.1019 97.029 39.9778 97.1486 38.4859C96.7105 39.0414 95.2287 39.0742 94.3741 38.668C94.1145 38.5415 93.8851 38.3584 93.7019 38.1313C93.1292 38.4151 92.5088 38.5837 91.8743 38.628C91.2197 38.6749 90.5625 38.589 89.9402 38.3754C89.3179 38.1618 88.7428 37.8246 88.2477 37.383C87.7525 36.9414 87.3471 36.4042 87.0545 35.8019C86.762 35.1997 86.588 34.5442 86.5425 33.873C86.5056 33.3354 86.5522 32.7951 86.6805 32.2724C86.9361 31.2232 87.5092 30.2839 88.3175 29.5892C89.1259 28.8945 90.128 28.48 91.1802 28.4051C91.931 28.351 92.684 28.4716 93.3831 28.7577C93.8557 27.9589 94.862 26.7902 96.8232 26.4311C97.0568 26.3879 97.2935 26.3649 97.5309 26.3625C97.7875 25.3844 98.3352 24.5127 99.0977 23.8687C99.8602 23.2248 100.8 22.8406 101.785 22.7697C102.815 22.6965 103.841 22.9698 104.706 23.5482C105.571 24.1265 106.228 24.9784 106.578 25.9745C106.881 25.8011 107.212 25.6869 107.556 25.6375C107.866 25.5888 108.183 25.599 108.49 25.6677C108.807 25.1353 109.297 24.7095 109.878 24.5245C110.688 24.2721 111.606 24.502 112.252 25.0569C112.485 24.442 112.885 23.9078 113.403 23.5167C113.922 23.1257 114.538 22.8938 115.181 22.8481C115.956 22.7929 116.727 23.0121 117.364 23.4693C118.001 23.9265 118.466 24.5939 118.681 25.3601C120.109 24.7541 121.211 25.3187 121.85 25.951C122.665 26.757 123.087 28.4328 122.73 29.5208C123.756 29.228 124.577 29.8945 124.394 30.9721C126.698 29.5852 128.89 30.7317 130.084 31.658C130.1 31.6346 130.118 31.6112 130.136 31.5878C131.291 30.5746 132.798 31.1975 133.019 32.0041C135.314 31.0651 137.583 31.4658 139.93 32.8644C139.945 32.8735 139.957 32.883 139.97 32.8921C140.553 33.3142 138.59 33.9911 136.414 34.507Z" fill="white"/>
<path d="M136.414 34.5071C135.177 34.7998 134.096 34.956 133.165 35.0246C133.133 35.5287 132.938 36.0407 132.352 36.3012C132.028 36.4468 131.682 36.5318 131.329 36.5523C131.147 38.0062 130.417 39.5398 128.135 39.5122C126.3 39.4878 125.096 38.833 124.315 38.0876C124.034 38.391 123.701 38.6314 123.3 38.7569C122.697 38.9459 122.177 38.9 121.748 38.7446C121.738 38.8363 121.727 38.9264 121.709 39.0165C121.316 40.8903 119.922 42.688 116.744 41.9256C115.455 41.615 114.713 40.8522 114.285 40.0534C113.723 40.8991 112.749 41.6182 111.103 41.9119C109.512 42.1936 108.28 41.6582 107.352 40.8425C107.276 41.346 107.035 41.8082 106.67 42.1531C106.304 42.4981 105.835 42.7054 105.339 42.741C104.91 42.7717 104.482 42.6724 104.108 42.4555C103.734 42.2386 103.431 41.9137 103.235 41.5213C99.6672 43.1021 97.029 39.978 97.1486 38.486C96.7105 39.0415 95.2287 39.0744 94.3741 38.6681C94.1145 38.5417 93.8851 38.3585 93.7019 38.1315C93.1292 38.4152 92.5088 38.5838 91.8743 38.6281C91.2197 38.675 90.5625 38.5892 89.9402 38.3755C89.3179 38.1619 88.7428 37.8247 88.2477 37.3831C87.7525 36.9416 87.3471 36.4043 87.0545 35.8021C86.762 35.1998 86.588 34.5444 86.5425 33.8732C86.5056 33.3355 86.5522 32.7953 86.6805 32.2726C88.3384 31.8384 90.1948 31.9424 91.3302 34.2999C92.1262 32.7091 93.5737 32.8928 93.9699 33.9877C94.6311 32.8841 95.8099 32.0469 97.4253 31.6279C99.0698 31.1986 100.297 32.0013 101.127 32.7988L101.064 32.8216C98.1451 33.8846 98.3989 36.8311 98.3989 36.8311C98.3989 36.8311 99.4813 33.8842 105.289 33.5173C105.289 33.5173 104.413 32.3396 102.495 32.4947C102.825 31.974 103.262 31.5333 103.775 31.2033C104.288 30.8734 104.865 30.6622 105.466 30.5845C106.065 30.508 106.673 30.566 107.248 30.7546C107.26 30.5883 107.282 30.4231 107.315 30.2599C107.526 29.2594 108.278 28.3031 109.273 28.2176C110.94 28.0722 112.395 29.6884 112.216 31.8201C112.216 31.8201 114.126 31.2347 115.386 34.285C115.386 34.285 115.107 32.0462 113.709 30.7904C114.495 30.0381 115.861 30.0475 116.369 30.23C117.547 30.6528 117.941 31.5401 118.019 32.4108C118.019 32.4108 119.026 31.6874 119.873 32.0982C120.936 32.6131 120.613 33.7535 120.613 33.7535C122.117 33.3141 122.746 33.0464 123.581 35.0731C122.063 34.5826 120.507 35.1492 119.498 36.4518C120.998 35.4136 123.093 35.357 124.646 36.3165C124.46 34.8909 126.355 33.7232 127.497 34.5562C127.68 33.2724 129.081 32.4746 130.323 32.7172C131.327 32.9143 131.953 33.8452 131.869 34.994C132.601 33.1075 134.582 33.584 137.194 33.3811C138.073 33.3124 139.173 33.3446 139.972 32.8909C140.553 33.3144 138.59 33.9912 136.414 34.5071Z" fill="#CCE1F4"/>
<path d="M146.48 30.1527C146.442 30.0476 146.401 29.9426 146.36 29.8398C146.26 29.5929 146.152 29.3519 146.034 29.1141C145.186 27.3948 143.894 25.9422 142.183 24.8005C141.316 24.2276 140.388 23.7554 139.419 23.3925C138.191 22.9222 136.839 22.5836 135.379 22.3842C131.878 21.9054 128.372 21.4817 124.86 21.1131C124.846 21.1131 124.832 21.1108 124.817 21.1108C124.81 21.1108 124.802 21.1108 124.796 21.1108C124.565 21.0919 124.334 21.1038 124.106 21.1463C124.099 21.1485 124.092 21.1495 124.079 21.1528C124.002 21.1684 123.932 21.1853 123.867 21.2048L123.83 21.2182L123.808 21.2247C123.806 21.2257 123.803 21.2269 123.8 21.2282C123.485 21.0482 123.138 20.9374 122.779 20.903C122.572 20.8831 122.365 20.862 122.158 20.8435C120.416 20.6754 118.674 20.5205 116.931 20.3787C116.862 20.3731 116.788 20.3709 116.702 20.3722H116.664C116.597 20.3741 116.528 20.3777 116.459 20.3855L116.398 20.392C116.337 20.4008 116.275 20.4096 116.214 20.4219C116.201 20.4252 116.187 20.4284 116.174 20.4307C116.167 20.4327 116.161 20.4342 116.154 20.4353C116.104 20.4473 116.053 20.4606 116.003 20.4749C115.998 20.4749 115.994 20.4782 115.988 20.4795C115.972 20.4837 115.957 20.4893 115.94 20.4938C115.88 20.5127 115.822 20.5348 115.764 20.5589C115.747 20.5654 115.732 20.5732 115.71 20.5823C115.654 20.6076 115.597 20.633 115.538 20.6639C115.535 20.6665 115.531 20.6684 115.527 20.6694C115.473 20.6994 115.415 20.7345 115.349 20.7768C115.339 20.7846 115.328 20.7911 115.318 20.7979C115.281 20.8223 115.248 20.8464 115.215 20.8721C115.194 20.8874 115.174 20.9046 115.154 20.9196L115.134 20.9362C115.088 20.9749 115.043 21.0158 114.998 21.0578C114.989 21.0679 114.978 21.0776 114.966 21.0877C114.926 21.1274 114.888 21.1684 114.85 21.2126C113.908 22.3113 112.975 23.4135 112.05 24.5192C111.743 24.8829 111.559 25.3398 111.529 25.8202C111.346 28.7675 111.162 31.7153 110.978 34.6637C109.845 34.5752 109.31 34.4282 109.086 34.3417C109.049 34.167 109.006 33.8174 109.041 33.2101C109.247 29.5397 109.454 25.8698 109.661 22.2004C109.682 21.8451 109.616 21.49 109.469 21.1674C109.943 20.5943 110.419 20.0224 110.897 19.4517C110.9 19.4465 110.904 19.4416 110.909 19.437C110.916 19.426 110.925 19.4162 110.933 19.4045C110.937 19.3988 110.941 19.3932 110.945 19.3879C110.975 19.351 111.003 19.3126 111.03 19.2728C111.044 19.2539 111.057 19.2341 111.07 19.2129C111.102 19.1645 111.131 19.1154 111.158 19.0649C111.165 19.0493 111.173 19.035 111.181 19.0194C111.183 19.0149 111.186 19.0106 111.188 19.0061C111.21 18.9609 111.231 18.9153 111.252 18.8688C111.261 18.8457 111.27 18.8226 111.28 18.7982C111.298 18.7507 111.314 18.7007 111.329 18.6522C111.331 18.6472 111.333 18.6419 111.333 18.6366C111.337 18.6276 111.341 18.6183 111.343 18.6089C111.361 18.5447 111.375 18.4795 111.386 18.4138C111.39 18.3949 111.393 18.377 111.396 18.3585C111.407 18.2866 111.414 18.2222 111.418 18.1659C111.419 18.159 111.42 18.1519 111.42 18.1448C111.448 17.6758 111.476 17.2063 111.505 16.7364C111.571 15.6635 111.636 14.5908 111.701 13.5183C111.8 13.5238 111.898 13.5307 111.996 13.5372C112.861 13.5925 113.678 13.2418 114.185 12.5959C114.747 11.8803 115.312 11.1656 115.88 10.4518C116.187 10.0647 116.496 9.67864 116.806 9.29353C117.025 9.01934 117.246 8.74612 117.466 8.4729C117.488 8.44623 117.507 8.41956 117.527 8.39192C117.533 8.38443 117.54 8.37533 117.545 8.36785C117.55 8.36036 117.558 8.34996 117.564 8.34118C117.6 8.29044 117.632 8.23709 117.664 8.18505C117.677 8.16293 117.688 8.13984 117.7 8.11772C117.722 8.07674 117.741 8.03576 117.761 7.99478C117.764 7.98925 117.766 7.98372 117.769 7.97721C117.776 7.96356 117.782 7.94956 117.788 7.93526C117.812 7.87786 117.833 7.81911 117.851 7.75929C117.859 7.73815 117.864 7.71733 117.869 7.69716C117.886 7.64415 117.899 7.59113 117.909 7.53811C117.913 7.52478 117.915 7.51047 117.918 7.49713C117.93 7.43501 117.939 7.36703 117.946 7.29124C117.946 7.28474 117.946 7.27791 117.948 7.2714C117.953 7.21611 117.957 7.16179 117.961 7.10649C118.054 5.8922 118.147 4.6779 118.241 3.4636C118.34 2.18696 117.26 1.05311 115.831 0.948054C110.283 0.54083 104.729 0.265013 99.1698 0.120598C99.0933 0.118321 99.0111 0.120596 98.9217 0.126125C98.9055 0.126125 98.8899 0.128405 98.8741 0.129381C98.8582 0.130357 98.8385 0.132631 98.8214 0.134908C98.7932 0.137185 98.7643 0.139461 98.7361 0.142714C98.5971 0.118129 98.4565 0.103674 98.3154 0.0994557C93.2796 -0.0189384 88.2433 -0.0297803 83.2065 0.0669298C82.9505 0.0720137 82.6962 0.111489 82.4502 0.184348C82.4462 0.183315 82.4422 0.182556 82.4382 0.182073C82.4323 0.179985 82.4262 0.17846 82.4201 0.177518C82.3747 0.16646 82.328 0.157678 82.2817 0.148896C82.2743 0.14691 82.2668 0.145389 82.2592 0.144341C82.2354 0.140113 82.2107 0.13556 82.1869 0.132307C82.1308 0.123525 82.0736 0.117996 82.0165 0.112467C82.0087 0.111123 82.0007 0.110359 81.9928 0.110188C81.9766 0.107911 81.961 0.106935 81.9452 0.105634C81.8557 0.100104 81.7713 0.099131 81.6914 0.100107C80.1109 0.136536 78.5306 0.184132 76.9503 0.242896C75.5208 0.295913 74.402 1.39008 74.4581 2.66997C74.482 3.25197 74.5064 3.83429 74.5314 4.41693C73.6336 3.41124 72.7291 2.40933 71.8178 1.41122C71.3042 0.849175 70.5079 0.53953 69.6923 0.587018C68.0124 0.683294 66.3332 0.791713 64.6546 0.912276C63.227 1.01506 62.145 2.14826 62.2436 3.42359C62.6224 8.45252 63.0018 13.4812 63.3818 18.5097C63.3881 18.5959 63.3993 18.6815 63.4152 18.7664C63.4289 18.838 63.4463 18.9089 63.4672 18.9787C63.4672 18.9843 63.4704 18.9898 63.4713 18.9963C63.5136 19.1336 63.5689 19.2663 63.6366 19.3925L63.6559 19.4289C63.6877 19.4865 63.7216 19.5427 63.7562 19.5938C63.7598 19.5984 63.763 19.6031 63.766 19.6081C63.808 19.6704 63.8534 19.7302 63.9018 19.7873C63.944 19.8381 63.9903 19.8878 64.0442 19.9412C64.0572 19.9542 64.0712 19.9675 64.0842 19.9809C64.0972 19.9942 64.109 20.0053 64.122 20.0173C64.3228 20.2001 64.5223 20.3813 64.7218 20.5637C64.7088 20.5582 64.6962 20.5517 64.6819 20.5462C64.6676 20.5406 64.653 20.5341 64.6387 20.5273C64.5816 20.5042 64.5223 20.4821 64.463 20.4623L64.41 20.4457L64.3983 20.4424C64.3466 20.4268 64.2958 20.4135 64.2397 20.4005C64.2203 20.3959 64.2009 20.3913 64.1816 20.3881C64.1223 20.3761 64.0639 20.3673 63.9928 20.3582L63.9443 20.3517C63.8761 20.3448 63.8073 20.3406 63.739 20.3383H63.6981C63.6141 20.3383 63.5341 20.3406 63.4662 20.3461C61.5173 20.501 59.5697 20.6728 57.6234 20.8617C56.2717 20.9918 55.2759 22.1461 55.4053 23.4205C55.4237 23.6052 55.4418 23.7887 55.4602 23.9734C54.4504 23.2644 53.2687 22.7202 51.9449 22.3585C49.9003 21.803 47.5093 21.6937 44.8595 22.0541C42.0811 22.4314 39.6996 23.3031 37.8051 24.6161C35.8325 25.9848 34.4256 27.7448 33.6198 29.8268C33.4144 30.3547 33.2502 30.8985 33.1288 31.4531C32.7769 33.0384 32.7598 34.7531 33.0653 36.5508C33.2486 37.6562 33.5583 38.7356 33.9878 39.7667C34.4305 40.8219 35.0192 41.8063 35.7358 42.6894C35.7745 42.7382 35.8135 42.7834 35.85 42.8254C36.4966 43.5991 37.243 44.2791 38.0684 44.8465C38.2064 44.9441 38.3501 45.0391 38.5087 45.1377C39.3174 45.6365 40.1797 46.0377 41.0783 46.3333C41.9303 46.6139 42.8076 46.8059 43.6971 46.9064C44.9087 47.1699 46.1168 47.4409 47.3212 47.7196C47.3374 47.7228 47.3529 47.727 47.3697 47.7306C48.8607 48.0403 50.5031 48.0845 52.2609 47.8688C52.3081 47.8633 52.3579 47.8565 52.4033 47.85C54.5903 47.568 56.4893 46.9916 58.0593 46.1177C58.5204 45.862 58.9635 45.5737 59.3853 45.2547C60.1879 45.6 60.9881 45.9481 61.7858 46.2991C62.1343 46.4519 62.5141 46.5146 62.8917 46.4816C67.8829 46.0434 72.8804 45.7263 77.8842 45.5302C79.1367 45.4815 80.1261 44.4084 80.0884 43.1285L80.0789 42.8055C80.7741 43.386 81.5357 43.8775 82.3468 44.2692C84.1433 45.1442 86.245 45.5735 88.6157 45.5624C91.0539 45.5514 93.187 45.1054 94.9781 44.2149C96.5288 43.4427 97.8158 42.3798 98.8106 41.0443C99.6599 42.5701 100.926 43.7764 102.574 44.6475C104.164 45.4847 106.157 45.9726 108.516 46.1118C110.876 46.251 112.91 46.0087 114.583 45.3637C115.476 45.0255 116.315 44.5542 117.074 43.9651C117.084 43.9609 117.096 43.9563 117.108 43.9531L117.127 43.9462C117.121 44.0113 117.116 44.0802 117.11 44.1476C117.007 45.4242 117.938 46.5506 119.187 46.669C122.129 46.9465 125.067 47.2669 128.001 47.6301C130.261 47.9089 132.325 47.7518 134.158 47.149C134.522 47.0274 134.862 46.8957 135.196 46.7451C136.53 46.7126 137.799 46.5119 138.974 46.1479C139.407 46.013 139.833 45.8533 140.249 45.6698C140.773 45.441 141.279 45.1703 141.761 44.8602C142.393 44.4583 142.982 43.9884 143.517 43.4587C143.77 43.2126 144.011 42.9533 144.239 42.682C145.053 41.7127 145.713 40.5766 146.195 39.3035C146.528 38.4124 146.775 37.4897 146.932 36.5489C147.329 34.2194 147.185 32.0655 146.48 30.1527ZM48.8071 36.4575C48.7779 36.4728 48.737 36.4949 48.6802 36.5203C48.567 35.4749 48.6533 35.0182 48.6977 34.8666C48.6977 34.8666 48.6977 34.8644 48.6977 34.8621C48.7075 34.8566 48.7202 34.8488 48.7386 34.84C48.7386 34.84 48.7408 34.84 48.7421 34.8377C48.7197 35.0196 48.7197 35.2036 48.7421 35.3854C48.7627 35.5513 48.783 35.7185 48.8036 35.8844C48.8449 36.2018 48.8233 36.3775 48.8071 36.4575ZM76.2346 25.2536C75.2052 27.1707 74.7531 29.3909 74.8632 31.8479C74.9006 32.7091 75.0117 33.5652 75.195 34.4064C73.2548 34.496 71.3159 34.6032 69.3782 34.7281C69.1955 31.7511 69.0122 28.7731 68.8285 25.7942C68.799 25.3194 68.6204 24.8672 68.3193 24.5052C67.577 23.6027 66.8292 22.7028 66.0761 21.8056C66.4418 22.1428 66.8061 22.4809 67.169 22.8201C67.6632 23.28 68.3409 23.5181 69.0324 23.4748C70.3392 23.3917 71.6459 23.3165 72.9525 23.2491C74.2912 23.1804 75.3381 22.0921 75.2861 20.8119C75.2775 20.6008 75.269 20.3891 75.2591 20.177C75.8418 20.8353 76.4208 21.4951 76.9963 22.1562C77.2716 22.4693 77.6198 22.706 78.0083 22.8441C77.3099 23.5582 76.7129 24.3693 76.2346 25.2536ZM90.7957 33.7705C90.513 33.8681 89.8291 34.0307 88.4145 34.0385C87.3096 34.0441 86.6634 33.952 86.3008 33.8648C86.3052 32.824 86.4356 32.3687 86.4971 32.2109C86.5038 32.2086 86.5102 32.2054 86.5187 32.2031C86.7456 32.1192 87.3118 31.9754 88.5582 31.9686C89.812 31.964 90.403 32.1068 90.6438 32.1911C90.6945 32.2096 90.7072 32.2164 90.7107 32.2164C90.7138 32.222 90.7161 32.2285 90.7202 32.2373C90.7763 32.3657 90.9105 32.7639 90.934 33.7055C90.8919 33.7343 90.8458 33.7565 90.7973 33.7712L90.7957 33.7705ZM100.2 19.7799C100.175 19.7932 100.151 19.8075 100.126 19.8208L100.05 19.8674C100.012 19.8904 99.9758 19.9148 99.939 19.9412L99.9238 19.9513C99.9076 19.9623 99.8921 19.9744 99.8753 19.9838C99.8321 20.0163 99.7903 20.0515 99.7484 20.0869C99.7439 20.0902 99.7396 20.0939 99.7357 20.098L99.7119 20.1178C99.6589 20.1653 99.6072 20.2154 99.5587 20.2684L99.538 20.2925C99.4981 20.3367 99.4603 20.3822 99.4239 20.4288C99.414 20.4431 99.4032 20.4564 99.3921 20.4707C99.388 20.4762 99.3848 20.4818 99.3804 20.4873C99.3534 20.5237 99.3287 20.5615 99.3039 20.6002C99.2887 20.6246 99.2722 20.6499 99.2586 20.6753C99.238 20.7098 99.2195 20.7449 99.2024 20.7794C99.1853 20.8139 99.1723 20.8379 99.158 20.8679C99.1437 20.8978 99.1301 20.9329 99.1161 20.9706C99.113 20.9775 99.1095 20.9853 99.1063 20.9928C99.0968 21.0171 99.087 21.0406 99.0746 21.0737C98.9117 21.5484 98.7496 22.024 98.5883 22.5006C97.7822 21.7395 96.839 21.0835 95.7848 20.5514C94.3325 19.8202 92.6366 19.3369 90.7472 19.1245C90.7472 18.8047 90.7472 18.485 90.7472 18.1643C92.7172 18.1686 94.687 18.1903 96.6566 18.2294C97.812 18.2528 98.8176 17.5379 99.1057 16.4837C99.4252 15.3128 99.7475 14.1418 100.073 12.9709L100.394 12.981C100.332 15.2485 100.267 17.515 100.202 19.7805L100.2 19.7799Z" fill="black"/>
<path d="M77.0347 2.56263C77.1032 4.51288 77.1718 6.46302 77.2406 8.41305C77.3531 9.5096 77.4651 10.6062 77.5765 11.7027L77.2593 11.7144C76.4199 10.5851 75.5731 9.45865 74.7189 8.33499C73.1099 6.51354 71.4773 4.70294 69.8211 2.90317C68.1518 2.99945 66.4832 3.10787 64.8154 3.22843L65.8499 18.336C67.3536 18.2276 68.8576 18.13 70.362 18.0433C70.2522 16.0722 70.1425 14.1012 70.033 12.1301C69.9144 11.1708 69.7953 10.2119 69.6758 9.25352L69.9965 9.23465C70.7482 10.187 71.4943 11.1419 72.2349 12.0992C73.9423 13.9566 75.6236 15.827 77.279 17.7102C78.8804 17.6495 80.4822 17.6003 82.0844 17.5626C81.9715 12.5159 81.8585 7.46904 81.7453 2.42212C80.1758 2.45768 78.6056 2.50452 77.0347 2.56263Z" fill="url(#paint0_linear_1_33)"/>
<path d="M83.2529 2.38806C83.3451 7.43542 83.4376 12.4827 83.5302 17.5298C85.036 17.501 86.5421 17.4822 88.0486 17.4735C88.039 15.7171 88.0294 13.9615 88.0197 12.2066C91.2398 12.1878 94.46 12.2147 97.6801 12.2873C97.7072 11.022 97.7343 9.75679 97.7613 8.49153C94.5074 8.41846 91.2532 8.39124 87.9988 8.40989C87.9943 7.65616 87.9901 6.90243 87.9861 6.14869C91.3849 6.12918 94.7837 6.15943 98.1823 6.23944L98.268 2.42058C93.2626 2.30241 88.2576 2.29156 83.2529 2.38806Z" fill="url(#paint1_linear_1_33)"/>
<path d="M99.1176 2.44165L99.0225 6.26018C100.982 6.31114 102.941 6.37869 104.9 6.46282L104.438 17.7776C105.943 17.8426 107.448 17.9174 108.953 18.002C109.155 14.2329 109.357 10.4637 109.559 6.6944C111.509 6.80434 113.457 6.93086 115.405 7.07398C115.494 5.80374 115.583 4.53371 115.672 3.2639C110.159 2.85928 104.641 2.5852 99.1176 2.44165Z" fill="url(#paint2_linear_1_33)"/>
<path d="M46.9215 39.2844C46.6721 38.7139 46.4859 37.9604 46.3628 37.0239C46.2086 35.8443 46.2258 34.9227 46.4142 34.2592C46.6026 33.5957 47.0219 33.1007 47.672 32.7744C48.3224 32.4469 49.2636 32.2042 50.4986 32.053C50.5798 32.0429 50.6607 32.0344 50.7384 32.026C50.5969 30.9723 50.1863 30.2527 49.5066 29.8669C48.803 29.4691 47.6086 29.3771 45.9301 29.6044C44.7732 29.7616 43.8486 29.9857 43.1562 30.2767C43.0233 30.3307 42.9005 30.3886 42.7844 30.4478C42.0653 30.8212 41.6041 31.3762 41.4006 32.1128C41.2937 32.4979 41.242 32.9621 41.2442 33.502C41.2518 34.0613 41.2979 34.6193 41.3822 35.1719C41.5677 36.4534 41.8589 37.4224 42.2559 38.079C42.6521 38.7351 43.2374 39.1377 44.0108 39.2932C44.7344 39.4406 45.7039 39.435 46.9215 39.2844Z" fill="#181F51"/>
<path d="M59.0853 36.658C58.5264 36.7122 57.9676 36.768 57.4091 36.8255C57.3076 37.7717 57.0275 38.6886 56.5843 39.5251C55.8695 40.8749 54.7649 41.9678 53.2739 42.8154C52.8662 43.0472 52.4448 43.2528 52.0123 43.4311C50.8157 43.9314 49.441 44.2892 47.8882 44.5045C47.8476 44.5113 47.8067 44.5168 47.7664 44.5224C47.0534 44.6213 46.335 44.6749 45.6155 44.6827C45.1077 44.6872 44.6 44.6628 44.0947 44.6099C45.2171 44.854 46.336 45.1044 47.4514 45.3609L47.8378 45.45C49.0893 45.7102 50.4708 45.7427 51.9936 45.5577C52.0291 45.5534 52.0672 45.5486 52.1027 45.543C54.0232 45.2981 55.6395 44.8138 56.9627 44.0771C58.0572 43.4682 58.9232 42.7075 59.5609 41.7951L59.0853 36.658Z" fill="#181F51"/>
<path d="M66.4153 25.9582C65.5006 24.8554 64.578 23.7564 63.6475 22.6614C64.0186 27.5706 64.39 32.4797 64.7616 37.3887C65.5691 37.3237 66.3765 37.2627 67.184 37.2056C66.9277 33.4565 66.6714 29.7073 66.4153 25.9582Z" fill="#181F51"/>
<path d="M76.4371 41.6639C70.8372 41.9065 65.2439 42.2992 59.6572 42.842C60.6758 43.2778 61.6901 43.7185 62.7001 44.1641C67.7268 43.7218 72.7598 43.403 77.7989 43.2079L77.6314 38.7063C77.1676 38.0315 76.7012 37.3577 76.2321 36.6848C76.3004 38.3447 76.3687 40.0044 76.4371 41.6639Z" fill="#181F51"/>
<path d="M94.4114 40.4433C92.7685 41.2565 90.7877 41.6569 88.4525 41.6686C86.1928 41.6796 84.2466 41.2961 82.5954 40.4996C81.2405 39.8445 80.132 38.9614 79.2676 37.8393C79.4397 38.2646 79.6457 38.6748 79.8833 39.0655C80.7065 40.4171 81.8591 41.4531 83.3412 42.1737C84.8243 42.8967 86.5741 43.247 88.6073 43.2376C90.709 43.2282 92.4909 42.8639 93.9686 42.1278C95.4462 41.3918 96.5899 40.349 97.4007 38.9901C97.7979 38.3242 98.1044 37.6057 98.3118 36.8547C98.2874 36.8973 98.263 36.939 98.2376 36.9803C97.3306 38.482 96.0547 39.6302 94.4114 40.4433Z" fill="#181F51"/>
<path d="M105.16 40.9843C103.718 40.216 102.655 39.1811 101.973 37.8667C101.29 36.5523 100.97 35.0233 101.027 33.275C101.114 30.6187 101.2 27.9625 101.287 25.3062L101.401 21.8113C100.999 22.9636 100.6 24.1167 100.203 25.2707C100.101 28.725 99.9991 32.1793 99.8974 35.6338C99.8508 37.2152 100.141 38.5959 100.758 39.7815C101.375 40.967 102.334 41.8989 103.634 42.5865C104.933 43.2741 106.602 43.6706 108.648 43.7935C110.695 43.9165 112.396 43.722 113.766 43.1941C114.608 42.8688 115.333 42.436 115.94 41.8957C114.501 42.3403 112.768 42.4876 110.727 42.351C108.454 42.1998 106.602 41.7532 105.16 40.9843Z" fill="#181F51"/>
<path d="M58.4036 29.2868C58.5622 31.0016 58.7208 32.7163 58.8794 34.4311C57.5335 34.5612 56.1879 34.7006 54.8426 34.8494L54.5571 34.6893C53.3161 33.997 52.0672 33.3116 50.8105 32.6334C52.9151 32.3771 55.0212 32.1416 57.1289 31.9269C57.113 31.7604 57.097 31.5937 57.0807 31.427C56.9443 30.0214 56.5441 28.8059 55.8803 27.7805C56.8736 28.1385 57.7147 28.6406 58.4036 29.2868Z" fill="#181F51"/>
<path d="M122.672 43.0779C123.325 36.5274 123.978 29.977 124.63 23.4268C123.869 24.0773 123.112 24.73 122.359 25.3848L121.493 34.6339C121.33 36.375 120.821 37.85 119.979 39.0619C119.939 39.1192 119.898 39.1754 119.858 39.2304C119.704 40.9393 119.55 42.6482 119.396 44.3571C122.359 44.6375 125.317 44.9602 128.273 45.3251C130.208 45.5645 131.921 45.4409 133.431 44.9442C133.745 44.84 134.054 44.7177 134.355 44.578C134.459 44.5305 134.561 44.4804 134.661 44.4287C133.949 44.4203 133.238 44.3668 132.532 44.2683C129.25 43.8182 125.964 43.4214 122.672 43.0779Z" fill="#181F51"/>
<path d="M113.253 35.9264C113.231 36.2903 113.181 36.652 113.105 37.0082C113.394 36.9879 113.68 36.9444 113.962 36.8781C114.629 36.7122 115.102 36.3746 115.38 35.8653C115.659 35.3559 115.834 34.6306 115.907 33.6893C116.188 30.0247 116.469 26.3601 116.751 22.6956C115.806 23.7884 114.87 24.8853 113.941 25.9862C113.713 29.2988 113.483 32.6123 113.253 35.9264Z" fill="#181F51"/>
<path d="M115.407 7.07415C113.459 6.93104 111.51 6.80452 109.561 6.69458C109.483 8.14523 109.405 9.59599 109.327 11.0469C110.265 11.0996 111.203 11.1563 112.14 11.217C113.217 9.83115 114.306 8.45021 115.407 7.07415Z" fill="#181F51"/>
<path d="M97.9409 7.22522L97.8676 10.5916C99.5744 10.6311 101.281 10.683 102.987 10.7474L102.627 20.7247C103.944 20.7744 105.26 20.8321 106.576 20.8978C107.362 19.9298 108.156 18.9649 108.955 18.003C107.45 17.9182 105.945 17.8434 104.44 17.7786L104.903 6.4638C102.944 6.37966 100.985 6.31211 99.0249 6.26116L99.1201 2.44263C98.8049 3.70658 98.4927 4.97097 98.1833 6.23579C98.1834 6.2373 98.1834 6.23883 98.1833 6.24034C94.7853 6.15989 91.3869 6.12965 87.9883 6.1496C87.9925 6.90354 87.9968 7.65728 88.001 8.41079C91.2131 8.39214 94.425 8.41838 97.6367 8.4895C97.7361 8.06753 97.8375 7.64611 97.9409 7.22522Z" fill="#181F51"/>
<path d="M65.8496 18.3357C66.8722 19.2705 67.8865 20.21 68.8925 21.1541C70.2078 21.0708 71.5231 20.9949 72.8386 20.9264C72.754 19.1884 72.6689 17.4505 72.5832 15.7125C72.4847 14.8668 72.3858 14.0205 72.2866 13.1735L72.5655 13.1592C73.2162 14.0049 73.8624 14.8514 74.5041 15.6988C75.9845 17.3468 77.4453 19.0038 78.8864 20.6698C80.2867 20.6229 81.6871 20.5851 83.0878 20.5562C83.0003 16.1067 82.9125 11.6571 82.8245 7.20732C82.4699 5.61052 82.1103 4.01447 81.7459 2.41919C81.7817 4.02228 81.8176 5.62548 81.8538 7.22878L82.0851 17.5596C80.483 17.5974 78.8812 17.6466 77.2796 17.7073C75.6236 15.8245 73.9423 13.9542 72.2355 12.0963C71.4953 11.1389 70.7492 10.1841 69.9971 9.23173L69.6767 9.25059C69.796 10.209 69.915 11.1679 70.0336 12.1272C70.1434 14.0982 70.253 16.0693 70.3626 18.0404C68.8578 18.1293 67.3535 18.2277 65.8496 18.3357Z" fill="#181F51"/>
<path d="M88.297 20.4899C88.2893 18.9423 88.2818 17.3946 88.2744 15.8468C91.0845 15.8325 93.8946 15.8532 96.7046 15.9089C97.0257 14.7011 97.3498 13.4939 97.6769 12.2872C94.4574 12.2145 91.2374 12.1877 88.0168 12.2065C88.0264 13.9629 88.036 15.7186 88.0457 17.4734C86.5395 17.4819 85.0334 17.5006 83.5273 17.5297C83.8023 18.5308 84.0753 19.5321 84.3464 20.5335C85.6642 20.5111 86.9811 20.4966 88.297 20.4899Z" fill="#181F51"/>
<path d="M83.7473 34.562C83.8155 34.7225 83.8989 34.8758 83.9963 35.0197C83.9701 34.7334 83.9541 34.4262 83.9484 34.0979C83.9273 32.9079 84.0428 31.9948 84.2951 31.3585C84.5474 30.7223 85.0091 30.28 85.6802 30.0315C86.3511 29.7827 87.3089 29.6522 88.5496 29.6464C89.7903 29.6405 90.7572 29.7628 91.4494 30.0061C92.1416 30.2494 92.6232 30.6892 92.8998 31.3211C93.1764 31.9531 93.3062 32.8674 93.2948 34.0575C93.2948 34.1164 93.2948 34.1737 93.2919 34.2303C93.5328 33.5498 93.6597 32.6447 93.6726 31.515C93.687 30.1975 93.5409 29.1881 93.2345 28.4868C92.928 27.7856 92.3887 27.2999 91.6166 27.0297C90.8441 26.7607 89.7643 26.626 88.3808 26.6325C86.9973 26.6391 85.9267 26.7848 85.1767 27.0612C84.4268 27.3377 83.9129 27.8292 83.6331 28.5327C83.3533 29.2362 83.2261 30.2471 83.2524 31.5644C83.2803 32.8596 83.4465 33.8598 83.7473 34.562Z" fill="#181F51"/>
<path d="M138.748 33.5179C138.771 32.8381 138.724 32.2859 138.605 31.8613C138.4 31.1363 137.958 30.6224 137.279 30.3258C137.003 30.2066 136.719 30.1062 136.429 30.0252C135.872 29.8652 135.208 29.7321 134.437 29.6258C132.91 29.4168 131.382 29.2186 129.853 29.0312L129.504 32.0279L129.831 32.0679C130.92 32.2025 131.77 32.4007 132.383 32.6624C132.995 32.9226 133.398 33.38 133.588 34.0331C133.779 34.6862 133.786 35.6818 133.611 37.0206C133.486 37.9801 133.314 38.746 133.096 39.3182L133.175 39.3289C134.354 39.4916 135.3 39.527 136.016 39.4324C136.731 39.3377 137.285 38.9692 137.679 38.3232C138.073 37.6773 138.379 36.6264 138.589 35.1682C138.672 34.6215 138.725 34.0706 138.748 33.5179Z" fill="#181F51"/>
<path d="M57.3663 34.3893C55.2741 34.6027 53.1833 34.8365 51.094 35.0909C51.113 35.257 51.1323 35.4232 51.1517 35.5895C51.2786 36.7013 51.0543 37.5362 50.4811 38.094C49.9078 38.6518 48.8039 39.0321 47.1736 39.2529C47.0879 39.2643 47.0032 39.276 46.9198 39.2854C45.7019 39.435 44.7325 39.4416 44.0089 39.2955C43.2354 39.14 42.6501 38.7374 42.2539 38.0813C41.8577 37.4253 41.5658 36.455 41.3802 35.1742C41.2958 34.6216 41.2497 34.0636 41.2422 33.5043C41.2403 32.9644 41.2917 32.5002 41.3987 32.1151C41.6002 31.3794 42.0614 30.8244 42.7824 30.4501C42.8985 30.3909 43.0213 30.333 43.1542 30.279C43.8466 29.9889 44.7713 29.7648 45.9281 29.6067C47.6066 29.379 48.801 29.4714 49.5046 29.8692C50.1854 30.2534 50.596 30.9731 50.7364 32.0283C50.7425 32.0631 50.7469 32.0982 50.7511 32.1346C50.7703 32.3007 50.7895 32.4669 50.8088 32.6332C52.9133 32.3769 55.0194 32.1415 57.1272 31.9268C57.1109 31.7603 57.0948 31.5936 57.0789 31.4269C56.9429 30.0211 56.5428 28.8056 55.8785 27.7804C55.7107 27.5229 55.5261 27.2775 55.3259 27.0456C54.3257 25.8884 52.9615 25.0661 51.2336 24.5964C49.5056 24.1268 47.4769 24.0435 45.1553 24.3574C42.7723 24.6826 40.7861 25.3982 39.2119 26.4878C37.6378 27.5774 36.5275 28.9539 35.8791 30.6056C35.7136 31.0261 35.5803 31.4593 35.4806 31.9011C35.1834 33.2073 35.1634 34.6196 35.4118 36.1395C35.5723 37.1238 35.8243 38.0287 36.1678 38.8545C36.5186 39.7119 36.9903 40.5119 37.5677 41.2288C37.5865 41.2534 37.6066 41.2769 37.6277 41.2994C38.1413 41.9276 38.7386 42.4784 39.402 42.9358C39.514 43.0148 39.6275 43.0897 39.743 43.1635C40.3937 43.5669 41.088 43.891 41.812 44.1292C42.5512 44.3727 43.3134 44.5353 44.0859 44.6145C44.0883 44.6146 44.0906 44.6146 44.0929 44.6145C44.5981 44.6674 45.1057 44.6917 45.6134 44.6873C46.3329 44.6794 47.0512 44.6259 47.7643 44.527C47.8046 44.5214 47.8455 44.5159 47.8861 44.5091C49.441 44.2905 50.8157 43.9327 52.0102 43.4357C52.4436 43.256 52.8657 43.0488 53.274 42.8155C54.765 41.9678 55.8687 40.875 56.5847 39.5245C57.0277 38.688 57.3079 37.7711 57.4095 36.8248C57.4794 36.1815 57.4817 35.5324 57.4165 34.8886L57.3663 34.3893Z" fill="url(#paint3_linear_1_33)"/>
<path d="M64.7619 37.3887C64.3905 32.4795 64.0191 27.5704 63.6477 22.6614C61.7105 22.8153 59.7742 22.9864 57.8389 23.1746C58.445 29.7303 59.0511 36.2861 59.6573 42.842C65.2421 42.2999 70.8354 41.9072 76.4371 41.6639C76.3688 40.0043 76.3005 38.3446 76.2322 36.6849C72.4061 36.8503 68.5827 37.085 64.7619 37.3887Z" fill="url(#paint4_linear_1_33)"/>
<path d="M94.6499 22.6068C92.9419 21.7475 90.8373 21.3129 88.3572 21.325C85.9576 21.3367 83.8978 21.7907 82.1962 22.666C80.4945 23.5413 79.2234 24.7639 78.3767 26.318C77.53 27.8721 77.1569 29.6828 77.2346 31.7462C77.3124 33.8097 77.8202 35.5817 78.7396 37.0733C78.9028 37.3384 79.0792 37.5948 79.2681 37.8412C80.1326 38.9634 81.2407 39.8465 82.5959 40.5015C84.2455 41.2981 86.193 41.6819 88.453 41.6705C90.7882 41.6588 92.7674 41.2578 94.412 40.4453C96.0565 39.6328 97.3305 38.4836 98.2369 36.9822C98.2622 36.9409 98.2863 36.8993 98.3111 36.8567C99.1708 35.3833 99.6381 33.6461 99.6955 31.6412C99.7545 29.5768 99.363 27.7706 98.5021 26.224C97.6411 24.6774 96.3595 23.4674 94.6499 22.6068ZM93.6734 31.515C93.6612 32.6443 93.5343 33.5494 93.2927 34.2302C93.2582 34.3304 93.2191 34.4254 93.1789 34.5165C92.8642 35.2216 92.329 35.702 91.5765 35.9639C90.824 36.2257 89.7727 36.3542 88.4286 36.362C87.0844 36.3698 86.0423 36.2494 85.3051 35.9944C84.7412 35.7993 84.3053 35.474 83.9971 35.0187C83.8998 34.8748 83.8163 34.7215 83.7481 34.561C83.4474 33.8585 83.2811 32.8586 83.2551 31.5634C83.2291 30.2461 83.356 29.2356 83.6358 28.5317C83.9156 27.8278 84.4301 27.3374 85.1795 27.0602C85.9288 26.7838 86.9969 26.6374 88.3835 26.6315C89.7702 26.6257 90.8465 26.7597 91.6193 27.0287C92.3921 27.2977 92.9301 27.7846 93.2372 28.4858C93.5443 29.1871 93.6877 30.1977 93.6734 31.515Z" fill="url(#paint5_linear_1_33)"/>
<path d="M144.206 30.893C144.176 30.8117 144.145 30.7301 144.111 30.6484C143.454 29.0458 142.355 27.7243 140.816 26.6997C139.277 25.6752 137.358 24.9986 135.08 24.687C131.602 24.21 128.118 23.7893 124.63 23.425C123.977 29.9755 123.325 36.5265 122.672 43.0778C125.963 43.4221 129.249 43.819 132.532 44.2683C133.237 44.3667 133.949 44.4202 134.661 44.4286C135.965 44.4397 137.167 44.2751 138.273 43.931C138.624 43.8216 138.969 43.6919 139.306 43.5423C139.72 43.3618 140.119 43.1475 140.5 42.9015C140.994 42.5857 141.455 42.2159 141.872 41.7986C142.07 41.6044 142.259 41.3996 142.436 41.1851C143.082 40.4099 143.597 39.5054 143.981 38.4715C144.256 37.7167 144.458 36.9357 144.584 36.14C144.903 34.1856 144.783 32.4357 144.206 30.893ZM138.75 33.5178C138.727 34.0707 138.674 34.6219 138.591 35.1688C138.38 36.6262 138.076 37.6779 137.681 38.3238C137.286 38.9698 136.732 39.3395 136.018 39.433C135.302 39.5276 134.356 39.4909 133.177 39.3295C131.693 39.1266 130.208 38.934 128.722 38.7519C129.1 35.5121 129.478 32.2721 129.855 29.0319C131.384 29.2192 132.913 29.4174 134.44 29.6264C135.211 29.7318 135.875 29.8649 136.432 30.0258C136.721 30.1068 137.005 30.2072 137.282 30.3264C137.961 30.623 138.403 31.1369 138.608 31.8619C138.725 32.2863 138.772 32.8382 138.748 33.5178H138.75Z" fill="url(#paint6_linear_1_33)"/>
<path d="M115.908 33.6878C115.836 34.6288 115.66 35.3542 115.382 35.8637C115.103 36.3733 114.63 36.7109 113.963 36.8766C113.681 36.9429 113.395 36.9864 113.107 37.0067C112.546 37.0522 111.865 37.0482 111.066 36.9947C109.822 36.912 108.875 36.7488 108.223 36.4941C107.571 36.2394 107.141 35.8436 106.929 35.3017C106.718 34.7598 106.635 34.0169 106.681 33.0743L107.225 22.0601C105.284 21.9597 103.344 21.8761 101.402 21.8093C101.278 25.6309 101.153 29.4522 101.028 33.2734C100.971 35.0216 101.291 36.5517 101.974 37.8651C102.657 39.1784 103.719 40.2144 105.161 40.9827C106.603 41.7509 108.455 42.1991 110.728 42.3487C112.769 42.4844 114.503 42.337 115.941 41.8934C116.106 41.8426 116.266 41.7883 116.423 41.7308C117.878 41.1866 119.022 40.3562 119.857 39.2285C119.898 39.1736 119.939 39.1173 119.979 39.0601C120.821 37.8481 121.33 36.3731 121.493 34.632C121.85 30.8258 122.206 27.0196 122.562 23.2135C120.627 23.0233 118.691 22.8498 116.753 22.6931C116.471 26.3583 116.19 30.0232 115.908 33.6878Z" fill="url(#paint7_linear_1_33)"/>
</g>
<defs>
<linearGradient id="paint0_linear_1_33" x1="73.4509" y1="2.78038" x2="73.4509" y2="16.6259" gradientUnits="userSpaceOnUse">
<stop stop-color="#FFDBDF"/>
<stop offset="0.03" stop-color="#FFCED4"/>
<stop offset="0.13" stop-color="#FFB0B9"/>
<stop offset="0.24" stop-color="#FF97A3"/>
<stop offset="0.37" stop-color="#FF8392"/>
<stop offset="0.51" stop-color="#FF7586"/>
<stop offset="0.68" stop-color="#FF6D7F"/>
<stop offset="1" stop-color="#FF6B7D"/>
</linearGradient>
<linearGradient id="paint1_linear_1_33" x1="90.7613" y1="2.66534" x2="90.7613" y2="15.8957" gradientUnits="userSpaceOnUse">
<stop stop-color="#FFDBDF"/>
<stop offset="0.03" stop-color="#FFCED4"/>
<stop offset="0.13" stop-color="#FFB0B9"/>
<stop offset="0.24" stop-color="#FF97A3"/>
<stop offset="0.37" stop-color="#FF8392"/>
<stop offset="0.51" stop-color="#FF7586"/>
<stop offset="0.68" stop-color="#FF6D7F"/>
<stop offset="1" stop-color="#FF6B7D"/>
</linearGradient>
<linearGradient id="paint2_linear_1_33" x1="107.348" y1="2.79195" x2="107.348" y2="16.3299" gradientUnits="userSpaceOnUse">
<stop stop-color="#FFDBDF"/>
<stop offset="0.03" stop-color="#FFCED4"/>
<stop offset="0.13" stop-color="#FFB0B9"/>
<stop offset="0.24" stop-color="#FF97A3"/>
<stop offset="0.37" stop-color="#FF8392"/>
<stop offset="0.51" stop-color="#FF7586"/>
<stop offset="0.68" stop-color="#FF6D7F"/>
<stop offset="1" stop-color="#FF6B7D"/>
</linearGradient>
<linearGradient id="paint3_linear_1_33" x1="46.3532" y1="47.3404" x2="46.3532" y2="17.0046" gradientUnits="userSpaceOnUse">
<stop offset="0.35" stop-color="#FFB524"/>
<stop offset="0.36" stop-color="#FFB626"/>
<stop offset="0.44" stop-color="#FFC648"/>
<stop offset="0.53" stop-color="#FFD365"/>
<stop offset="0.62" stop-color="#FFDD7B"/>
<stop offset="0.72" stop-color="#FFE48B"/>
<stop offset="0.84" stop-color="#FFE994"/>
<stop offset="1" stop-color="#FFEA97"/>
</linearGradient>
<linearGradient id="paint4_linear_1_33" x1="67.138" y1="47.3404" x2="67.138" y2="17.0045" gradientUnits="userSpaceOnUse">
<stop offset="0.35" stop-color="#FFB524"/>
<stop offset="0.36" stop-color="#FFB626"/>
<stop offset="0.44" stop-color="#FFC648"/>
<stop offset="0.53" stop-color="#FFD365"/>
<stop offset="0.62" stop-color="#FFDD7B"/>
<stop offset="0.72" stop-color="#FFE48B"/>
<stop offset="0.84" stop-color="#FFE994"/>
<stop offset="1" stop-color="#FFEA97"/>
</linearGradient>
<linearGradient id="paint5_linear_1_33" x1="88.4628" y1="47.3404" x2="88.4628" y2="17.0045" gradientUnits="userSpaceOnUse">
<stop offset="0.35" stop-color="#FFB524"/>
<stop offset="0.36" stop-color="#FFB626"/>
<stop offset="0.44" stop-color="#FFC648"/>
<stop offset="0.53" stop-color="#FFD365"/>
<stop offset="0.62" stop-color="#FFDD7B"/>
<stop offset="0.72" stop-color="#FFE48B"/>
<stop offset="0.84" stop-color="#FFE994"/>
<stop offset="1" stop-color="#FFEA97"/>
</linearGradient>
<linearGradient id="paint6_linear_1_33" x1="133.715" y1="47.3403" x2="133.715" y2="17.0044" gradientUnits="userSpaceOnUse">
<stop offset="0.35" stop-color="#FFB524"/>
<stop offset="0.36" stop-color="#FFB626"/>
<stop offset="0.44" stop-color="#FFC648"/>
<stop offset="0.53" stop-color="#FFD365"/>
<stop offset="0.62" stop-color="#FFDD7B"/>
<stop offset="0.72" stop-color="#FFE48B"/>
<stop offset="0.84" stop-color="#FFE994"/>
<stop offset="1" stop-color="#FFEA97"/>
</linearGradient>
<linearGradient id="paint7_linear_1_33" x1="111.791" y1="47.3405" x2="111.791" y2="17.0046" gradientUnits="userSpaceOnUse">
<stop offset="0.35" stop-color="#FFB524"/>
<stop offset="0.36" stop-color="#FFB626"/>
<stop offset="0.44" stop-color="#FFC648"/>
<stop offset="0.53" stop-color="#FFD365"/>
<stop offset="0.62" stop-color="#FFDD7B"/>
<stop offset="0.72" stop-color="#FFE48B"/>
<stop offset="0.84" stop-color="#FFE994"/>
<stop offset="1" stop-color="#FFEA97"/>
</linearGradient>
<clipPath id="clip0_1_33">
<rect width="180" height="48" fill="white"/>
</clipPath>
</defs>
</svg>
