<svg width="977" height="1267" viewBox="0 0 977 1267" fill="none" xmlns="http://www.w3.org/2000/svg">
<path d="M202.748 662.734C193.984 663.804 185.108 662.015 177.442 657.632C125.538 629.622 -11.7233 467.685 30.5554 0H8.85481C-33.4239 467.685 86.6265 634.997 138.582 663.007C145.589 667.064 153.682 668.846 161.745 668.109L202.748 662.734Z" fill="url(#paint0_linear_101_28)"/>
<path d="M284.84 651.918C274.683 653.608 264.254 651.809 255.249 646.816C203.344 618.874 31.6955 467.684 73.9572 0H52.2736C9.97792 467.684 164.433 624.316 216.337 652.309C224.677 656.983 234.324 658.776 243.786 657.411L284.84 651.918Z" fill="url(#paint1_linear_101_28)"/>
<path d="M243.786 657.326C234.324 658.691 224.676 656.898 216.337 652.224C164.433 624.248 9.97779 467.684 52.2735 0H30.5559C-11.7228 467.684 125.538 629.69 177.443 657.683C185.108 662.066 193.984 663.855 202.749 662.785L243.786 657.326Z" fill="url(#paint2_linear_101_28)"/>
<path d="M284.841 651.918C274.684 653.608 264.254 651.809 255.249 646.816C203.345 618.874 31.6959 467.685 73.9575 0H95.6751C53.3964 467.685 242.324 613.5 294.143 641.493C303.833 646.756 315.039 648.522 325.878 646.493L284.841 651.918Z" fill="url(#paint3_linear_101_28)"/>
<path d="M325.877 646.493C315.039 648.521 303.832 646.756 294.143 641.493C242.323 613.5 53.3957 467.684 95.6914 0H117.392C75.0963 467.684 281.15 608.126 333.054 636.051C343.408 641.645 355.389 643.449 366.931 641.153L325.877 646.493Z" fill="url(#paint4_linear_101_28)"/>
<path d="M398.444 388.45C334.516 394.946 282.135 652.7 202.748 662.734L161.693 668.142C238.002 659.639 272.968 393.552 337.271 387.021L398.444 388.45Z" fill="url(#paint5_linear_101_28)"/>
<path d="M643.136 394.182C580.755 400.542 458.664 624.657 366.93 641.153L325.875 646.561C414.531 631.748 519.174 399.199 581.962 392.821L643.136 394.182Z" fill="url(#paint6_linear_101_28)"/>
<path d="M459.619 389.879C396.082 396.342 326.236 645.49 243.787 657.327L202.75 662.735C282.137 652.701 334.518 394.947 398.446 388.451L459.619 389.879Z" fill="url(#paint7_linear_101_28)"/>
<path d="M520.791 391.324C457.628 397.736 370.401 638.687 284.84 651.918L243.786 657.326C326.234 645.422 396.081 396.341 459.618 389.879L520.791 391.324Z" fill="url(#paint8_linear_101_28)"/>
<path d="M581.964 392.753C519.175 399.131 414.533 631.68 325.877 646.493L284.84 651.918C370.401 638.687 457.628 397.736 520.791 391.325L581.964 392.753Z" fill="url(#paint9_linear_101_28)"/>
<g style="mix-blend-mode:overlay">
<path d="M398.445 388.45C334.517 394.947 282.136 652.701 202.749 662.735L161.694 668.143C238.003 659.639 272.969 393.552 337.272 387.022L398.445 388.45Z" fill="#C8FCF2"/>
<path d="M643.137 394.182C580.756 400.542 458.665 624.656 366.931 641.153L325.877 646.561C414.533 631.748 519.175 399.199 581.964 392.821L643.137 394.182Z" fill="#C8FCF2"/>
<path d="M459.617 389.878C396.08 396.341 326.233 645.489 243.785 657.326L202.748 662.734C282.135 652.7 334.516 394.946 398.444 388.45L459.617 389.878Z" fill="#C8FCF2"/>
<path d="M520.79 391.324C457.627 397.736 370.4 638.687 284.839 651.918L243.785 657.326C326.233 645.421 396.08 396.341 459.617 389.879L520.79 391.324Z" fill="#C8FCF2"/>
<path d="M581.965 392.752C519.176 399.13 414.534 631.68 325.878 646.492L284.841 651.918C370.402 638.686 457.629 397.735 520.792 391.324L581.965 392.752Z" fill="#C8FCF2"/>
</g>
<path d="M967.337 1267C1033.66 826.152 717.934 386.647 643.138 394.249L581.914 392.821C656.744 385.219 918.511 841.917 790.518 1246.56L967.337 1267Z" fill="url(#paint10_linear_101_28)"/>
<path d="M398.444 388.45L341.098 387.107C413.529 397.311 452.066 909.383 83.5649 1164.77L260.316 1185.18C573.511 889.162 473.24 380.848 398.444 388.45Z" fill="url(#paint11_linear_101_28)"/>
<path d="M459.617 389.879L402.424 388.552C476.658 398.756 567.984 894.383 260.315 1185.21L437.066 1205.62C688.527 873.397 534.413 382.277 459.617 389.879Z" fill="url(#paint12_linear_101_28)"/>
<path d="M520.792 391.325L463.803 389.981C539.908 400.185 683.938 879.451 437.068 1205.64L613.819 1226.05C803.546 857.615 595.588 383.706 520.792 391.325Z" fill="url(#paint13_linear_101_28)"/>
<path d="M581.964 392.753L525.195 391.427C603.324 401.631 799.956 864.605 613.817 1226.07L790.568 1246.47C918.561 841.833 656.759 385.151 581.964 392.753Z" fill="url(#paint14_linear_101_28)"/>
<defs>
<linearGradient id="paint0_linear_101_28" x1="217.527" y1="655.983" x2="42.307" y2="271.648" gradientUnits="userSpaceOnUse">
<stop stop-color="#9C00FF"/>
<stop offset="1" stop-color="#FC5CA0" stop-opacity="0"/>
</linearGradient>
<linearGradient id="paint1_linear_101_28" x1="226.303" y1="641.952" x2="68.6511" y2="195.509" gradientUnits="userSpaceOnUse">
<stop stop-color="#00BABC"/>
<stop offset="1" stop-color="#43FFDE" stop-opacity="0"/>
</linearGradient>
<linearGradient id="paint2_linear_101_28" x1="186.933" y1="647.173" x2="51.117" y2="217.618" gradientUnits="userSpaceOnUse">
<stop stop-color="#695DD7"/>
<stop offset="0.98" stop-color="#24EEFF" stop-opacity="0"/>
</linearGradient>
<linearGradient id="paint3_linear_101_28" x1="284.024" y1="631.306" x2="129.859" y2="283.315" gradientUnits="userSpaceOnUse">
<stop stop-color="#F19623"/>
<stop offset="1" stop-color="#FFFF11" stop-opacity="0"/>
</linearGradient>
<linearGradient id="paint4_linear_101_28" x1="319.262" y1="631.119" x2="125.791" y2="189.5" gradientUnits="userSpaceOnUse">
<stop stop-color="#F3180F"/>
<stop offset="1" stop-color="#FC7368" stop-opacity="0"/>
</linearGradient>
<linearGradient id="paint5_linear_101_28" x1="252.934" y1="648.295" x2="298.172" y2="448.296" gradientUnits="userSpaceOnUse">
<stop stop-color="#90229F"/>
<stop offset="0.59" stop-color="#701A83"/>
<stop offset="1" stop-color="#57146E"/>
</linearGradient>
<linearGradient id="paint6_linear_101_28" x1="491.64" y1="641.51" x2="488.562" y2="589.113" gradientUnits="userSpaceOnUse">
<stop stop-color="#D93933"/>
<stop offset="0.6" stop-color="#A22721"/>
<stop offset="1" stop-color="#811D17"/>
</linearGradient>
<linearGradient id="paint7_linear_101_28" x1="304.127" y1="647.412" x2="348.293" y2="449.675" gradientUnits="userSpaceOnUse">
<stop stop-color="#7D72C7"/>
<stop offset="1" stop-color="#494EA3"/>
</linearGradient>
<linearGradient id="paint8_linear_101_28" x1="343.751" y1="660.456" x2="390.673" y2="494.708" gradientUnits="userSpaceOnUse">
<stop stop-color="#00BABC"/>
<stop offset="0.22" stop-color="#00A3A6"/>
<stop offset="0.5" stop-color="#008C8F"/>
<stop offset="0.77" stop-color="#007E81"/>
<stop offset="1" stop-color="#00797C"/>
</linearGradient>
<linearGradient id="paint9_linear_101_28" x1="448.257" y1="642.99" x2="439.992" y2="575.83" gradientUnits="userSpaceOnUse">
<stop stop-color="#E28116"/>
<stop offset="1" stop-color="#A84B04"/>
</linearGradient>
<linearGradient id="paint10_linear_101_28" x1="837.678" y1="979.62" x2="712.322" y2="414.317" gradientUnits="userSpaceOnUse">
<stop stop-color="#F95248" stop-opacity="0"/>
<stop offset="0.5" stop-color="#FA5C52" stop-opacity="0.5"/>
<stop offset="1" stop-color="#FC7368"/>
</linearGradient>
<linearGradient id="paint11_linear_101_28" x1="273.088" y1="1003.72" x2="320.145" y2="402.022" gradientUnits="userSpaceOnUse">
<stop stop-color="#DD48A3" stop-opacity="0"/>
<stop offset="1" stop-color="#FC5CA0"/>
</linearGradient>
<linearGradient id="paint12_linear_101_28" x1="417.61" y1="996.814" x2="422.559" y2="399.352" gradientUnits="userSpaceOnUse">
<stop stop-color="#36C8F4" stop-opacity="0"/>
<stop offset="0.494792" stop-color="#36C8F4"/>
<stop offset="0.98" stop-color="#24EEFF"/>
</linearGradient>
<linearGradient id="paint13_linear_101_28" x1="564.687" y1="1029.88" x2="512.731" y2="423.654" gradientUnits="userSpaceOnUse">
<stop stop-color="#30ECD5" stop-opacity="0"/>
<stop offset="0.5" stop-color="#3EFADC"/>
<stop offset="1" stop-color="#43FFDE"/>
</linearGradient>
<linearGradient id="paint14_linear_101_28" x1="710.143" y1="1025.08" x2="579.685" y2="412.192" gradientUnits="userSpaceOnUse">
<stop stop-color="#F19623" stop-opacity="0"/>
<stop offset="0.505208" stop-color="#F6BA1D"/>
<stop offset="1" stop-color="#FFFF11"/>
</linearGradient>
</defs>
</svg>
