<svg width="956" height="620" viewBox="0 0 956 620" fill="none" xmlns="http://www.w3.org/2000/svg">
<mask id="mask0_1_118" style="mask-type:alpha" maskUnits="userSpaceOnUse" x="0" y="0" width="956" height="620">
<path d="M946.54 438.805C938.833 447.264 927.93 451.815 918.049 453.811C924.165 457.813 927.727 464.106 923.311 474.443C919.005 484.416 906.807 491.598 892.723 495.59C903.035 498.018 907.95 503.661 902.976 509.92C898.661 515.317 887.902 519.318 876.507 519.766C873.462 543.672 816.16 547.462 800.029 538.876C803.184 543.105 792.416 549.39 780.869 550.464C777.007 550.777 773.121 550.647 769.289 550.075C768.02 553.459 765.059 556.53 760.221 558.932C756.067 560.999 751.589 562.336 746.982 562.882C746.661 563.212 746.331 563.534 745.993 563.855C745.654 564.177 745.307 564.481 744.952 564.786C744.597 565.09 744.182 565.429 743.785 565.733C743.59 565.894 743.396 566.037 743.201 566.181C742.804 566.477 742.355 566.773 741.974 567.027L741.129 567.594C740.824 567.791 740.519 567.977 740.215 568.152L739.369 568.617C738.955 568.846 738.523 569.066 738.117 569.277C737.711 569.489 737.271 569.692 736.84 569.886L736.349 570.106C735.96 570.276 735.563 570.436 735.165 570.588C735.033 570.647 734.897 570.698 734.759 570.741L734.04 571.003C733.693 571.13 733.338 571.248 732.983 571.358L732.636 571.468L731.68 571.739C731.113 571.899 730.546 572.043 729.988 572.17C729.667 572.247 729.345 572.314 729.015 572.373C728.457 572.483 727.89 572.585 727.324 572.669C726.757 572.754 726.266 572.813 725.725 572.872C721.041 573.379 716.304 573.003 711.759 571.764C710.756 573.506 709.36 574.99 707.682 576.095C702.073 579.775 691.186 581.052 687.295 577.72C690.332 587.515 674.438 611.302 645.956 602.826C643.833 608.307 638.182 612.207 631.322 612.207C623.404 612.207 616.603 607.005 614.742 600.17C608.457 606.015 599.516 610.016 587.445 608.299C574.951 606.489 567.388 601.532 562.913 595.712C560.046 601.117 554.759 606.26 545.149 608.096C542.209 608.648 539.225 608.931 536.234 608.942C535.692 608.942 535.168 608.942 534.652 608.942C534.136 608.942 533.755 608.899 533.315 608.866H533.138L532.706 608.823L531.683 608.714H531.429C531.158 608.68 530.876 608.637 530.583 608.586L529.915 608.477C529.543 608.417 529.179 608.341 528.815 608.265C528.452 608.189 528.316 608.155 528.071 608.087C527.825 608.02 527.36 607.91 527.005 607.808C526.311 607.614 525.643 607.402 525 607.157L524.45 606.945C523.807 606.7 523.181 606.421 522.581 606.099L522.124 605.871L521.583 605.584C521.27 605.414 520.956 605.237 520.652 605.051C520.578 605.015 520.507 604.972 520.44 604.924L520.009 604.653C519.849 604.56 519.696 604.45 519.536 604.34L519.053 604.01L518.58 603.663L518.191 603.367C517.988 603.215 517.785 603.054 517.59 602.885L516.845 602.242L516.769 602.174L516.363 601.802L515.974 601.422C515.704 601.151 515.441 600.869 515.187 600.576C514.934 600.297 514.688 600.018 514.443 599.73C514.198 599.442 513.944 599.138 513.716 598.833L513.157 598.08C512.937 597.767 512.718 597.454 512.515 597.141C512.509 597.125 512.509 597.107 512.515 597.091C512.303 596.778 512.1 596.456 511.914 596.135L511.406 595.238C511.297 595.061 511.203 594.875 511.11 594.688C511.017 594.502 510.949 594.375 510.873 594.215C510.797 594.054 510.73 593.935 510.67 593.8C510.611 593.665 510.535 593.53 510.476 593.386C510.419 593.288 510.371 593.186 510.332 593.081C510.197 592.785 510.078 592.489 509.951 592.193C509.892 592.057 509.841 591.922 509.791 591.787L509.638 591.389C509.486 591 509.351 590.62 509.224 590.231C509.097 589.841 509.004 589.554 508.903 589.215C508.801 588.877 508.708 588.53 508.615 588.192C508.522 587.853 508.437 587.507 508.361 587.168C507.753 587.678 507.096 588.125 506.399 588.505C500.418 591.804 489.371 592.345 485.767 588.758C487.933 598.757 469.695 621.461 441.983 611.031C439.335 616.36 433.313 619.862 426.444 619.389C418.518 618.839 412.216 613.171 410.981 606.235C404.154 611.632 394.849 615.015 382.93 612.461C370.614 609.788 363.534 604.298 359.626 598.216C356.242 603.401 350.507 608.164 340.779 609.322C316.671 612.063 307.417 598.199 305.919 585.146C305.852 584.512 305.826 583.886 305.818 583.26C302.013 583.939 298.091 583.382 294.627 581.67C291.926 580.371 289.598 578.409 287.859 575.968C281.676 580.088 272.396 583.074 259.183 580.646C242.73 577.576 239.406 565.995 239.905 555.997C238.698 555.654 237.526 555.201 236.403 554.643C219.536 557.528 204.259 556.606 194.954 551.648C190.098 549.246 187.154 546.193 185.885 542.792C182.053 543.37 178.167 543.503 174.305 543.189C162.75 542.115 151.99 535.822 155.145 531.601C139.005 540.178 81.7122 536.397 78.6669 512.492C67.2726 512.044 56.5042 508.034 52.1985 502.637C47.2246 496.377 52.1479 490.735 62.451 488.307C48.3582 484.332 36.169 477.15 31.8634 467.16C27.4477 456.823 31.0172 450.529 37.1246 446.528C27.236 444.54 16.3406 439.955 8.63444 431.522C-9.84857 410.306 4.80273 402.812 20.2912 400.376C21.061 400.266 21.8391 400.181 22.6427 400.105C19.9442 397.466 18.058 394.184 18.1087 390.453C18.1087 387.958 19.3947 385.902 21.2896 384.142C12.8305 379.397 4.28687 371.352 0.987846 359.611C-2.87794 345.036 8.90526 342.101 19.5552 341.137C19.1912 339.077 19.3542 336.959 20.029 334.979C21.0948 331.857 24.0216 330.639 27.2022 330.225C21.4839 318.441 21.281 306.759 27.7776 297.057C23.7341 294.705 22.1437 285.392 29.0716 280.985L29.5115 280.841C26.3647 272.906 24.3261 258.103 36.7356 248.908C30.958 247.343 29.4946 241.295 33.7072 236.371C27.3798 235.627 19.9188 229.477 18.1847 222.888C16.8313 217.812 17.3391 209.844 25.4513 203.195C19.1663 196.783 18.8868 185.431 26.4323 176.329C32.6582 168.758 42.3099 165.231 50.1176 166.72C50.4644 161.501 53.8312 155.816 59.1012 152.483C62.7731 150.19 67.0857 149.14 71.4007 149.489C72.7334 147.678 74.3535 146.098 76.1969 144.811C78.2597 143.333 80.5438 142.191 82.9642 141.427C78.1425 130.625 83.218 115.872 98.0636 106.787C112.19 98.0746 130.081 98.1595 140.503 105.4C142.161 104.56 143.877 103.839 145.637 103.243C160.661 98.1677 171.962 101.196 177.731 103.886C182.253 100.384 187.461 97.8708 193.016 96.5098C202.711 94.0187 212.941 94.6101 222.285 98.2016C227.318 89.2603 238.221 78.3058 256.569 79.9299C251.79 74.0678 255.503 67.7405 263.962 66.8184C258.041 61.2101 255.706 50.0865 259.581 43.0402C262.55 37.5672 269.799 31.1215 283.13 31.7559C282.285 21.2667 291.496 11.2511 305.97 9.25479C317.965 7.56298 329.706 12.0883 335.89 19.5576C340.297 15.2774 347.876 12.9512 355.303 14.1439C358.005 17.034 361.42 19.1628 365.205 20.3164C368.989 21.47 373.01 21.608 376.865 20.7166C379.879 21.0083 382.83 21.7643 385.612 22.9582C389.326 9.62674 405.355 0.57579 425.268 3.73947C440.401 6.10801 453.183 14.9815 459.603 25.6483C464.264 21.275 472.292 17.477 483.525 19.6171C485.107 9.01793 496.662 0.347462 511.39 0.423593C523.596 0.465888 534 6.55614 538.365 14.7445C543.703 11.124 551.722 9.89776 558.743 12.0886C563.533 13.5735 567.686 16.6237 570.535 20.7505C573.194 20.5577 575.867 20.7921 578.453 21.4444C581.318 22.1302 584.054 23.2727 586.557 24.828C593.231 12.334 611.325 5.85435 630.188 11.6826C648.24 17.2148 660.049 31.9418 660.471 45.9162C662.374 46.622 664.221 47.4703 665.995 48.4539C680.976 56.7268 685.891 67.8081 687.448 74.3808C693.542 75.1141 699.404 77.1635 704.628 80.3868C705.897 81.1565 707.115 81.977 708.265 82.8398C718.737 76.8762 731.02 73.5941 741.856 74.6769C748.099 75.2352 753.14 77.0625 756.812 79.6763C768.282 73.8148 781.379 71.9452 794.031 74.3638C795.873 74.7176 797.683 75.2183 799.445 75.8611C813.936 67.6135 835.684 66.6409 850.36 74.3048C865.815 82.3239 867.964 95.3763 859.555 105.07C862.228 105.65 864.796 106.637 867.168 107.997C869.059 109.034 870.728 110.431 872.083 112.108C877.137 111.744 882.197 112.722 886.751 114.942C892.613 118.03 895.633 123.147 895.092 127.681C905.175 126.751 916.62 130.735 923.049 137.968C930.84 146.723 928.632 156.264 920.046 161.061C929.19 167.718 928.894 174.697 926.737 178.935C923.937 184.399 914.472 188.942 906.884 189.272C911.621 193.882 909.54 199.059 902.654 200.175C916.916 208.956 914.048 222.109 910.453 228.936L910.953 229.097C918.879 233.53 916.984 241.785 912.441 243.562C920.604 253.763 919.488 265.555 911.595 276.704C911.536 276.772 911.494 276.831 911.435 276.891C911.267 277.124 911.025 277.293 910.748 277.37C910.471 277.447 910.176 277.427 909.912 277.314C912.732 284.702 914.809 292.353 916.112 300.153C916.696 299.307 917.297 298.512 917.906 297.683C917.965 297.598 918.033 297.539 918.092 297.463C920.816 294.316 924.775 305.448 926.551 318.204C927.487 324.563 927.558 331.02 926.763 337.398C930.358 337.669 933.893 338.785 935.086 342.279C935.757 344.26 935.919 346.377 935.56 348.437C946.21 349.401 957.993 352.337 954.17 366.903C950.854 378.619 942.327 386.663 933.868 391.434C935.763 393.194 937.015 395.249 937.048 397.736C937.099 401.492 935.213 404.757 932.515 407.397C933.36 407.473 934.097 407.549 934.866 407.667C950.363 410.095 965.023 417.59 946.54 438.805Z" fill="white"/>
</mask>
<g mask="url(#mask0_1_118)">
<path d="M946.54 438.805C938.833 447.264 927.93 451.815 918.049 453.811C924.165 457.813 927.727 464.106 923.311 474.443C919.005 484.416 906.807 491.598 892.723 495.59C903.035 498.018 907.95 503.661 902.976 509.92C898.661 515.317 887.902 519.318 876.507 519.766C873.462 543.672 816.16 547.462 800.029 538.876C803.184 543.105 792.416 549.39 780.869 550.464C777.007 550.777 773.121 550.647 769.289 550.075C768.02 553.459 765.059 556.53 760.221 558.932C756.067 560.999 751.589 562.336 746.982 562.882C746.661 563.212 746.331 563.534 745.993 563.855C745.654 564.177 745.307 564.481 744.952 564.786C744.597 565.09 744.182 565.429 743.785 565.733C743.59 565.894 743.396 566.037 743.201 566.181C742.804 566.477 742.355 566.773 741.974 567.027L741.129 567.594C740.824 567.791 740.519 567.977 740.215 568.152L739.369 568.617C738.955 568.846 738.523 569.066 738.117 569.277C737.711 569.489 737.271 569.692 736.84 569.886L736.349 570.106C735.96 570.276 735.563 570.436 735.165 570.588C735.033 570.647 734.897 570.698 734.759 570.741L734.04 571.003C733.693 571.13 733.338 571.248 732.983 571.358L732.636 571.468L731.68 571.739C731.113 571.899 730.546 572.043 729.988 572.17C729.667 572.247 729.345 572.314 729.015 572.373C728.457 572.483 727.89 572.585 727.324 572.669C726.757 572.754 726.266 572.813 725.725 572.872C721.041 573.379 716.304 573.003 711.759 571.764C710.756 573.506 709.36 574.99 707.682 576.095C702.073 579.775 691.186 581.052 687.295 577.72C690.332 587.515 674.438 611.302 645.956 602.826C643.833 608.307 638.182 612.207 631.322 612.207C623.404 612.207 616.603 607.005 614.742 600.17C608.457 606.015 599.516 610.016 587.445 608.299C574.951 606.489 567.388 601.532 562.913 595.712C560.046 601.117 554.759 606.26 545.149 608.096C542.209 608.648 539.225 608.931 536.234 608.942C535.692 608.942 535.168 608.942 534.652 608.942C534.136 608.942 533.755 608.899 533.315 608.866H533.138L532.706 608.823L531.683 608.714H531.429C531.158 608.68 530.876 608.637 530.583 608.586L529.915 608.477C529.543 608.417 529.179 608.341 528.815 608.265C528.452 608.189 528.316 608.155 528.071 608.087C527.825 608.02 527.36 607.91 527.005 607.808C526.311 607.614 525.643 607.402 525 607.157L524.45 606.945C523.807 606.7 523.181 606.421 522.581 606.099L522.124 605.871L521.583 605.584C521.27 605.414 520.956 605.237 520.652 605.051C520.578 605.015 520.507 604.972 520.44 604.924L520.009 604.653C519.849 604.56 519.696 604.45 519.536 604.34L519.053 604.01L518.58 603.663L518.191 603.367C517.988 603.215 517.785 603.054 517.59 602.885L516.845 602.242L516.769 602.174L516.363 601.802L515.974 601.422C515.704 601.151 515.441 600.869 515.187 600.576C514.934 600.297 514.688 600.018 514.443 599.73C514.198 599.442 513.944 599.138 513.716 598.833L513.157 598.08C512.937 597.767 512.718 597.454 512.515 597.141C512.509 597.125 512.509 597.107 512.515 597.091C512.303 596.778 512.1 596.456 511.914 596.135L511.406 595.238C511.297 595.061 511.203 594.875 511.11 594.688C511.017 594.502 510.949 594.375 510.873 594.215C510.797 594.054 510.73 593.935 510.67 593.8C510.611 593.665 510.535 593.53 510.476 593.386C510.419 593.288 510.371 593.186 510.332 593.081C510.197 592.785 510.078 592.489 509.951 592.193C509.892 592.057 509.841 591.922 509.791 591.787L509.638 591.389C509.486 591 509.351 590.62 509.224 590.231C509.097 589.841 509.004 589.554 508.903 589.215C508.801 588.877 508.708 588.53 508.615 588.192C508.522 587.853 508.437 587.507 508.361 587.168C507.753 587.678 507.096 588.125 506.399 588.505C500.418 591.804 489.371 592.345 485.767 588.758C487.933 598.757 469.695 621.461 441.983 611.031C439.335 616.36 433.313 619.862 426.444 619.389C418.518 618.839 412.216 613.171 410.981 606.235C404.154 611.632 394.849 615.015 382.93 612.461C370.614 609.788 363.534 604.298 359.626 598.216C356.242 603.401 350.507 608.164 340.779 609.322C316.671 612.063 307.417 598.199 305.919 585.146C305.852 584.512 305.826 583.886 305.818 583.26C302.013 583.939 298.091 583.382 294.627 581.67C291.926 580.371 289.598 578.409 287.859 575.968C281.676 580.088 272.396 583.074 259.183 580.646C242.73 577.576 239.406 565.995 239.905 555.997C238.698 555.654 237.526 555.201 236.403 554.643C219.536 557.528 204.259 556.606 194.954 551.648C190.098 549.246 187.154 546.193 185.885 542.792C182.053 543.37 178.167 543.503 174.305 543.189C162.75 542.115 151.99 535.822 155.145 531.601C139.005 540.178 81.7122 536.397 78.6669 512.492C67.2726 512.044 56.5042 508.034 52.1985 502.637C47.2246 496.377 52.1479 490.735 62.451 488.307C48.3582 484.332 36.169 477.15 31.8634 467.16C27.4477 456.823 31.0172 450.529 37.1246 446.528C27.236 444.54 16.3406 439.955 8.63444 431.522C-9.84857 410.306 4.80273 402.812 20.2912 400.376C21.061 400.266 21.8391 400.181 22.6427 400.105C19.9442 397.466 18.058 394.184 18.1087 390.453C18.1087 387.958 19.3947 385.902 21.2896 384.142C12.8305 379.397 4.28687 371.352 0.987846 359.611C-2.87794 345.036 8.90526 342.101 19.5552 341.137C19.1912 339.077 19.3542 336.959 20.029 334.979C21.0948 331.857 24.0216 330.639 27.2022 330.225C21.4839 318.441 21.281 306.759 27.7776 297.057C23.7341 294.705 22.1437 285.392 29.0716 280.985L29.5115 280.841C26.3647 272.906 24.3261 258.103 36.7356 248.908C30.958 247.343 29.4946 241.295 33.7072 236.371C27.3798 235.627 19.9188 229.477 18.1847 222.888C16.8313 217.812 17.3391 209.844 25.4513 203.195C19.1663 196.783 18.8868 185.431 26.4323 176.329C32.6582 168.758 42.3099 165.231 50.1176 166.72C50.4644 161.501 53.8312 155.816 59.1012 152.483C62.7731 150.19 67.0857 149.14 71.4007 149.489C72.7334 147.678 74.3535 146.098 76.1969 144.811C78.2597 143.333 80.5438 142.191 82.9642 141.427C78.1425 130.625 83.218 115.872 98.0636 106.787C112.19 98.0746 130.081 98.1595 140.503 105.4C142.161 104.56 143.877 103.839 145.637 103.243C160.661 98.1677 171.962 101.196 177.731 103.886C182.253 100.384 187.461 97.8708 193.016 96.5098C202.711 94.0187 212.941 94.6101 222.285 98.2016C227.318 89.2603 238.221 78.3058 256.569 79.9299C251.79 74.0678 255.503 67.7405 263.962 66.8184C258.041 61.2101 255.706 50.0865 259.581 43.0402C262.55 37.5672 269.799 31.1215 283.13 31.7559C282.285 21.2667 291.496 11.2511 305.97 9.25479C317.965 7.56298 329.706 12.0883 335.89 19.5576C340.297 15.2774 347.876 12.9512 355.303 14.1439C358.005 17.034 361.42 19.1628 365.205 20.3164C368.989 21.47 373.01 21.608 376.865 20.7166C379.879 21.0083 382.83 21.7643 385.612 22.9582C389.326 9.62674 405.355 0.57579 425.268 3.73947C440.401 6.10801 453.183 14.9815 459.603 25.6483C464.264 21.275 472.292 17.477 483.525 19.6171C485.107 9.01793 496.662 0.347462 511.39 0.423593C523.596 0.465888 534 6.55614 538.365 14.7445C543.703 11.124 551.722 9.89776 558.743 12.0886C563.533 13.5735 567.686 16.6237 570.535 20.7505C573.194 20.5577 575.867 20.7921 578.453 21.4444C581.318 22.1302 584.054 23.2727 586.557 24.828C593.231 12.334 611.325 5.85435 630.188 11.6826C648.24 17.2148 660.049 31.9418 660.471 45.9162C662.374 46.622 664.221 47.4703 665.995 48.4539C680.976 56.7268 685.891 67.8081 687.448 74.3808C693.542 75.1141 699.404 77.1635 704.628 80.3868C705.897 81.1565 707.115 81.977 708.265 82.8398C718.737 76.8762 731.02 73.5941 741.856 74.6769C748.099 75.2352 753.14 77.0625 756.812 79.6763C768.282 73.8148 781.379 71.9452 794.031 74.3638C795.873 74.7176 797.683 75.2183 799.445 75.8611C813.936 67.6135 835.684 66.6409 850.36 74.3048C865.815 82.3239 867.964 95.3763 859.555 105.07C862.228 105.65 864.796 106.637 867.168 107.997C869.059 109.034 870.728 110.431 872.083 112.108C877.137 111.744 882.197 112.722 886.751 114.942C892.613 118.03 895.633 123.147 895.092 127.681C905.175 126.751 916.62 130.735 923.049 137.968C930.84 146.723 928.632 156.264 920.046 161.061C929.19 167.718 928.894 174.697 926.737 178.935C923.937 184.399 914.472 188.942 906.884 189.272C911.621 193.882 909.54 199.059 902.654 200.175C916.916 208.956 914.048 222.109 910.453 228.936L910.953 229.097C918.879 233.53 916.984 241.785 912.441 243.562C920.604 253.763 919.488 265.555 911.595 276.704C911.536 276.772 911.494 276.831 911.435 276.891C911.267 277.124 911.025 277.293 910.748 277.37C910.471 277.447 910.176 277.427 909.912 277.314C912.732 284.702 914.809 292.353 916.112 300.153C916.696 299.307 917.297 298.512 917.906 297.683C917.965 297.598 918.033 297.539 918.092 297.463C920.816 294.316 924.775 305.448 926.551 318.204C927.487 324.563 927.558 331.02 926.763 337.398C930.358 337.669 933.893 338.785 935.086 342.279C935.757 344.26 935.919 346.377 935.56 348.437C946.21 349.401 957.993 352.337 954.17 366.903C950.854 378.619 942.327 386.663 933.868 391.434C935.763 393.194 937.015 395.249 937.048 397.736C937.099 401.492 935.213 404.757 932.515 407.397C933.36 407.473 934.097 407.549 934.866 407.667C950.363 410.095 965.023 417.59 946.54 438.805Z" fill="#FFFBED"/>
<g opacity="0.6" filter="url(#filter0_f_1_118)">
<path fill-rule="evenodd" clip-rule="evenodd" d="M932.532 407.388C933.335 407.464 934.113 407.54 934.883 407.659C950.363 410.095 965.023 417.59 946.574 438.873C938.868 447.306 927.972 451.883 918.084 453.879C924.191 457.88 927.761 464.173 923.345 474.51C919.04 484.492 906.842 491.674 892.757 495.658C903.069 498.086 907.984 503.728 903.01 509.988C898.696 515.384 887.936 519.386 876.541 519.834C873.496 543.739 816.194 547.529 800.063 538.943C803.218 543.172 792.45 549.458 780.903 550.532C777.041 550.845 773.156 550.714 769.323 550.143C768.054 553.543 765.11 556.597 760.255 559C756.102 561.067 751.623 562.403 747.016 562.95C746.695 563.28 746.365 563.61 746.027 563.923C745.688 564.236 745.367 564.532 744.986 564.853C744.606 565.175 744.217 565.496 743.819 565.8C743.624 565.961 743.43 566.105 743.235 566.249C742.855 566.52 742.423 566.816 742.009 567.095L741.163 567.661C740.858 567.859 740.554 568.045 740.249 568.22L739.403 568.685C738.997 568.913 738.583 569.134 738.151 569.345C737.72 569.557 737.306 569.759 736.874 569.954L736.383 570.174C735.994 570.343 735.597 570.504 735.199 570.656C735.137 570.683 735.074 570.709 735.01 570.733C734.939 570.76 734.866 570.786 734.793 570.808L734.074 571.071C733.727 571.198 733.372 571.316 733.017 571.426L732.67 571.536L731.714 571.806C731.164 571.967 730.597 572.111 730.022 572.238C729.701 572.314 729.379 572.382 729.05 572.441C728.491 572.551 727.924 572.652 727.358 572.737C726.856 572.81 726.323 572.878 725.759 572.94C721.075 573.446 716.338 573.07 711.793 571.832C710.79 573.574 709.394 575.057 707.716 576.163C702.107 579.842 691.22 581.12 687.329 577.787C690.366 587.583 674.472 611.352 645.99 602.893C643.867 608.375 638.216 612.275 631.356 612.275C623.438 612.266 616.637 607.072 614.776 600.237C608.491 606.083 599.567 610.058 587.479 608.367C574.951 606.556 567.388 601.574 562.947 595.78C560.055 601.185 554.768 606.328 545.183 608.163C542.243 608.716 539.259 608.999 536.268 609.009C536.086 609.009 535.903 609.011 535.721 609.013C535.363 609.017 535.012 609.02 534.686 609.009C534.469 609.002 534.269 608.986 534.076 608.971C533.83 608.952 533.595 608.933 533.349 608.933H533.172L532.74 608.891L531.717 608.781H531.463C531.17 608.747 530.888 608.705 530.617 608.654L529.949 608.544C529.654 608.497 529.296 608.424 529.033 608.37C528.964 608.356 528.902 608.343 528.849 608.333C528.595 608.282 528.35 608.223 528.105 608.155C527.749 608.07 527.394 607.977 527.039 607.876C526.354 607.681 525.686 607.461 525.034 607.224L524.484 607.013L524.427 606.988C523.804 606.718 523.198 606.454 522.615 606.167L522.158 605.939L521.617 605.651C521.449 605.561 521.282 605.468 521.116 605.373C520.971 605.29 520.828 605.205 520.686 605.118C520.612 605.082 520.541 605.04 520.475 604.991L520.043 604.721C519.956 604.67 519.871 604.615 519.786 604.557C519.715 604.508 519.643 604.458 519.57 604.408L519.088 604.078L518.614 603.731L518.225 603.435C518.022 603.283 517.819 603.122 517.624 602.953L516.88 602.31L516.804 602.242L516.398 601.87L516.008 601.489C515.738 601.185 515.475 600.923 515.222 600.643C514.968 600.364 514.731 600.094 514.477 599.798C514.224 599.502 513.978 599.205 513.75 598.901L513.192 598.148C513.086 597.998 512.981 597.848 512.877 597.698C512.765 597.535 512.655 597.372 512.549 597.209C512.545 597.197 512.544 597.185 512.545 597.173C512.546 597.168 512.547 597.163 512.549 597.158C512.418 596.964 512.29 596.767 512.168 596.569C512.092 596.447 512.019 596.325 511.948 596.203L511.441 595.306C511.388 595.221 511.337 595.126 511.289 595.033C511.237 594.933 511.189 594.835 511.145 594.756C511.102 594.679 511.061 594.594 511.022 594.511C510.983 594.429 510.945 594.349 510.907 594.282C510.873 594.222 510.843 594.16 510.813 594.097C510.777 594.02 510.742 593.943 510.705 593.868L510.703 593.865C510.636 593.73 510.569 593.596 510.51 593.453C510.454 593.356 510.406 593.254 510.366 593.148C510.231 592.852 510.112 592.557 509.986 592.26C509.926 592.125 509.876 591.99 509.825 591.854L509.672 591.457C509.52 591.068 509.368 590.636 509.258 590.298C509.204 590.132 509.151 589.967 509.098 589.801C509.043 589.628 508.989 589.456 508.937 589.283C508.865 589.044 508.797 588.8 508.731 588.558C508.703 588.458 508.676 588.358 508.649 588.259C508.556 587.921 508.471 587.574 508.395 587.236C507.787 587.745 507.129 588.193 506.433 588.572C500.452 591.871 489.405 592.413 485.801 588.826C487.967 598.825 469.746 621.529 442.017 611.099C439.369 616.428 433.347 619.93 426.478 619.456C418.552 618.906 412.25 613.239 411.015 606.303C404.188 611.682 394.883 615.066 382.964 612.528C370.656 609.855 363.568 604.365 359.66 598.283C356.302 603.469 350.541 608.231 340.813 609.39C316.705 612.131 307.45 598.266 305.953 585.214C305.852 584.582 305.852 583.958 305.852 583.334V583.328C302.047 584.007 298.125 583.45 294.661 581.737C291.96 580.438 289.632 578.477 287.893 576.036C281.71 580.155 272.43 583.142 259.217 580.714C242.764 577.643 239.44 566.063 239.939 556.064C238.733 555.722 237.56 555.269 236.437 554.711C219.595 557.595 204.293 556.673 194.988 551.716C190.149 549.314 187.188 546.243 185.919 542.86C182.087 543.438 178.202 543.571 174.339 543.257C162.792 542.183 152.024 535.898 155.179 531.668C139.04 540.246 81.7463 536.464 78.7011 512.559C67.3067 512.111 56.5383 508.101 52.2327 502.704C47.2588 496.445 52.182 490.803 62.4852 488.375C48.3924 484.391 36.2028 477.209 31.8971 467.227C27.4815 456.89 31.0429 450.597 37.1588 446.596C27.2787 444.608 16.3748 440.048 8.66862 431.589C-9.81439 410.374 4.83691 402.879 20.3254 400.443C21.0952 400.333 21.8732 400.249 22.6768 400.172C19.9784 397.533 18.0922 394.268 18.1429 390.521C18.1768 388.025 19.4285 385.97 21.3233 384.21C12.8643 379.431 4.33756 371.386 1.02161 359.679C-2.84417 345.104 8.93944 342.169 19.5894 341.204C19.2254 339.145 19.3884 337.026 20.0631 335.046C21.129 331.925 24.0558 330.707 27.2364 330.292C27.8285 331.502 28.4712 332.72 29.1818 333.938L29.326 334.158C31.1182 331.421 31.5297 327.587 31.9166 323.982C32.0392 322.84 32.1593 321.72 32.3201 320.666C32.5743 318.929 32.7904 317.219 32.9999 315.561C33.5921 310.875 34.1318 306.605 35.3315 303.299V303.52C35.3378 303.47 35.3476 303.418 35.3574 303.367C35.3741 303.279 35.391 303.19 35.391 303.105C36.5922 299.865 38.4616 297.589 41.6676 296.803C42.5298 296.6 43.4125 296.498 44.2982 296.498C42.8352 296.06 41.4464 295.404 40.1786 294.553C39.1649 293.887 38.2459 293.088 37.4463 292.176C37.4928 291.994 37.5373 291.81 37.5818 291.626C37.6263 291.442 37.6707 291.258 37.7173 291.076L37.2518 290.45C37.2127 290.4 37.17 290.353 37.1285 290.308C37.1071 290.285 37.086 290.262 37.0659 290.239C36.9272 290.037 36.7316 289.881 36.5042 289.791C36.2767 289.701 36.0276 289.68 35.7884 289.731C34.9028 288.025 34.4993 286.109 34.6211 284.191C34.951 278.819 38.8508 274.175 43.6217 273.329C45.1312 273.058 46.6846 273.171 48.1387 273.659C45.9478 265.826 55.667 259.143 61.9098 264.134C60.531 254 66.1985 243.672 75.0383 240.051C70.8778 240.209 66.912 241.854 63.8606 244.686C60.8092 247.519 58.8746 251.352 58.4081 255.489C57.2951 254.095 56.2884 252.619 55.3966 251.074C51.9061 244.846 54.5944 242.172 59.6343 237.158L59.795 236.998C59.798 236.996 59.7701 236.986 59.7159 236.967C58.9934 236.712 53.5943 234.807 54.2632 228.378C54.8723 222.837 61.4448 219.978 61.5125 219.978C57.8328 216.873 54.9146 212.17 57.2408 204.802C58.2051 201.639 63.4496 194.592 70.0054 193.349C69.9978 203.352 77.1734 211.605 78.557 213.196C78.6723 213.328 78.7474 213.415 78.7748 213.452C70.0818 196.913 80.63 189.745 80.63 189.83C70.7667 183.062 69.7177 170.256 78.659 162.702C83.9459 158.235 91.889 158.455 96.9644 161.526C97.7793 162.029 98.554 162.595 99.282 163.218C101.524 159.857 104.456 157.014 107.885 154.877C115.295 150.225 124.067 149.167 131.232 151.307C120.573 157.476 119.885 165.518 119.805 166.445C119.8 166.503 119.798 166.533 119.795 166.533C151.068 146.232 167.834 157.457 168.401 157.982C168.401 157.821 161.287 142.409 140.545 147.611L140.106 147.729C142.22 141.182 146.999 133.019 158.977 129.864C165.378 128.087 172.077 127.652 178.653 128.586C173.39 134.413 169.428 141.293 167.03 148.769C167.023 148.792 167.016 148.815 167.009 148.837C166.981 148.922 166.954 149.002 166.954 149.083C171.961 147.776 176.557 144.516 180.809 141.5C182.145 140.552 183.448 139.628 184.718 138.797C187.028 137.282 189.225 135.773 191.33 134.326C196.241 130.953 200.654 127.922 204.834 125.956C205.715 126.418 206.563 126.941 207.372 127.521C207.518 126.555 207.727 125.6 207.998 124.661C212.904 122.969 217.565 123.147 222.454 126.353C218.436 121.574 217.683 115.864 220.5 111.423C221.223 110.301 222.119 109.302 223.156 108.462C225.991 106.224 229.408 104.847 233.003 104.495C238.603 103.928 244.389 105.62 247.696 109.85C252.188 101.509 268.438 103.455 271.238 112.65C278.183 103.032 292.58 98.785 304.786 102.879C295.295 96.3065 283.038 95.9852 274.503 102.575C274.209 88.4341 279.36 88.2974 290.617 87.9988L290.888 87.9916C290.891 87.9916 290.871 87.9632 290.833 87.9086C290.288 87.141 286.067 81.1911 291.912 76.1997C296.978 71.9195 306.012 74.7867 305.97 74.7867C304.574 69.1615 305.336 62.8002 313.364 58.2747C316.789 56.3037 327.372 54.3668 334.723 58.4948C326.999 67.3639 328.33 80.6497 328.54 82.7527C328.555 82.9022 328.565 82.9952 328.565 83.026C332.041 61.65 347.834 63.7564 347.724 63.8494C342.996 50.0358 351.844 38.0323 365.835 38.3707C374.099 38.5653 381.256 44.9687 383.793 51.6768C384.196 52.756 384.516 53.8645 384.75 54.9926C389.281 53.7509 394.025 53.4914 398.664 54.2314C407.8 55.605 416.039 60.4879 421.631 67.8419C421.935 68.231 422.214 68.612 422.477 69.0095C421.698 68.8657 420.946 68.7556 420.218 68.6626C416.955 70.6298 413.966 73.0189 411.328 75.7681C409.504 77.6565 407.859 79.7095 406.413 81.9009C406.227 81.7961 406.035 81.7028 405.838 81.6217C394.494 78.6949 385.316 87.3992 386.45 92.8469C375.189 93.9538 364.592 98.6853 356.251 106.331C351.908 110.301 348.139 114.856 345.051 119.865L344.755 119.552C344.754 119.554 344.754 119.557 344.753 119.559L345.043 119.865C344.731 120.342 344.434 120.827 344.145 121.32C344.14 121.334 344.135 121.348 344.129 121.362C344.096 121.417 344.063 121.472 344.03 121.527L343.952 121.726C343.918 121.834 343.876 121.939 343.825 122.039C343.7 122.356 343.544 122.697 343.409 122.993C343.371 123.077 343.334 123.157 343.301 123.232C343.156 123.552 342.997 123.857 342.83 124.169C344.64 123.847 346.415 123.352 348.13 122.691C351.514 121.418 354.842 119.632 358.006 117.934C359.596 117.081 361.144 116.25 362.637 115.517C365.181 114.265 367.613 113.013 369.945 111.813C384.075 104.542 394.527 99.1637 403.639 106.991C402.541 105.237 401.818 103.276 401.515 101.23C400.864 96.4252 402.962 91.8065 407.682 88.9474C415.879 83.9481 428.094 85.5974 432.374 93.2529C433.392 92.0141 434.661 91.0049 436.097 90.2906C437.533 89.5763 439.104 89.1732 440.706 89.108C444.052 88.8634 447.395 89.6234 450.307 91.2905C451.667 92.0065 452.859 93.0033 453.804 94.2153C454.749 95.4272 455.426 96.8266 455.789 98.32C455.794 98.3485 455.8 98.3767 455.806 98.4048L456.336 98.3975L456.423 98.3114C463.605 91.4426 474.906 88.702 485.057 90.9944C485.827 91.1636 486.588 91.3665 487.332 91.5949C488.724 92.019 490.081 92.5479 491.393 93.1769C490.452 92.3263 489.458 91.5379 488.415 90.8168C486.866 89.7544 485.213 88.8504 483.483 88.1184C479.886 86.5318 475.97 85.801 472.042 85.983C468.114 86.165 464.282 87.2546 460.847 89.1671C462.446 78.5256 465.821 76.1571 472.207 76.1064C474.343 76.0898 476.818 76.3325 479.673 76.6123L479.863 76.6309C479.865 76.6314 479.853 76.6069 479.829 76.5593C479.452 75.8059 476.183 69.281 483.01 65.0084C488.863 61.388 497.323 65.3888 497.323 65.3888C497.177 63.4793 497.363 61.5589 497.872 59.7129C498.98 55.8555 501.84 52.2604 507.812 49.9341C511.61 48.42 522.48 47.8871 528.959 52.9118C524.315 56.7691 521.727 61.9712 520.272 66.5053C519.245 69.7352 518.62 73.0791 518.411 76.4616C519.409 73.4621 520.818 70.6154 522.598 68.0026C530.321 56.9889 540.954 59.8651 540.81 59.9243C538.704 45.6539 550.014 35.0123 563.717 37.1948C571.821 38.4721 577.54 45.6709 578.69 52.5565C578.873 53.6754 578.972 54.8065 578.986 55.9402C583.61 55.2901 588.319 55.6332 592.799 56.9467C602.443 59.7636 609.794 66.4465 613.296 74.2964C599.304 69.8385 591.852 76.7069 591.911 76.6561C631.559 87.2219 634.856 108.824 635.165 110.851C635.185 110.981 635.192 111.03 635.196 110.992C635.185 111 635.21 110.921 635.262 110.762C635.969 108.59 641.525 91.4975 623.295 79.1939L622.863 78.9151C629.909 75.3623 640.424 72.85 651.624 80.0232C662.553 87.0527 668.94 96.0696 670.716 104.994C674.573 100.807 681.357 101.763 685.003 107.532C686.487 109.993 687.325 112.789 687.44 115.661C701.448 105.29 714.804 112.235 724.041 122.098C725.354 117.117 725.436 111.892 724.279 106.872C733.161 102.143 739.733 105.036 738.346 110.763C747.135 104.859 759.087 101.628 771.835 102.533C784.862 103.514 788.779 110.772 790.124 116.735L789.625 116.693C773.316 115.661 763.554 124.078 759.231 129.153C758.136 128.1 756.921 127.181 755.611 126.412C756.912 127.192 758.111 128.129 759.18 129.204C758.185 130.327 757.314 131.555 756.584 132.867C757.735 131.93 758.982 131.119 760.305 130.447C760.611 130.816 760.893 131.203 761.151 131.606C761.695 130.752 762.291 129.933 762.937 129.153C766.851 127.442 770.98 126.276 775.21 125.685C784.143 124.382 796.206 125.059 810.891 131.378C810.883 131.378 810.884 131.325 810.885 131.225C810.896 130.085 810.964 122.82 799.801 118.689C808.514 115.5 818.707 115.365 826.735 118.884C830.244 120.339 833.312 122.686 835.634 125.693C836.61 125.04 837.63 124.455 838.687 123.943C845.302 120.652 855.03 120.017 860.681 123.841C870.273 130.397 866.966 141.605 854.489 148.372C854.649 148.304 866.069 153.972 854.835 169.52C854.9 169.449 855.066 169.296 855.312 169.07C857.464 167.088 865.778 159.435 866.856 150.91C874.613 151.764 880.238 157.982 881.084 160.765C883.19 167.261 879.358 171.44 874.799 174.342C874.951 174.342 882.505 176.727 882.936 181.633C883.384 187.229 877.267 189.092 876.232 189.408C876.133 189.438 876.08 189.454 876.085 189.458L876.166 189.519C883.213 194.795 886.185 197.02 877.429 205.936C876.169 198.094 868.218 192.841 858.405 193.247C868.539 195.709 874.926 204.743 873.522 213.904C880.526 208.989 891.717 214.92 889.255 221.924C896.75 219.885 904.219 225.273 904.71 231.55C905.141 236.642 900.489 240.762 894.018 242.36C903.92 242.492 905.293 250.13 907.01 259.683C907.287 261.229 907.574 262.825 907.908 264.447C908.111 265.41 908.272 266.436 908.436 267.486C908.946 270.751 909.493 274.254 911.503 276.865C911.335 277.098 911.093 277.268 910.816 277.345C910.539 277.422 910.244 277.402 909.98 277.288C912.8 284.676 914.877 292.327 916.18 300.127C907.823 311.919 903.001 323.28 905.327 336.45C899.55 336.941 892.326 344.419 896.742 352.311C896.767 352.339 896.793 352.366 896.818 352.393C896.917 352.501 897.014 352.606 897.122 352.7C888.037 358.359 873.615 367.766 876.076 382.992C868.548 379.795 860.926 382.298 859.158 388.313C852.281 383.728 838.907 380.759 829.966 381.546C822.936 382.332 814.198 384.87 811.458 393.388C798.634 388.981 784.532 389.227 776.158 395.427C769.281 400.587 768.596 409.037 774.779 416.972C766.946 416.371 759.739 417.962 756.474 421.87C754.181 424.704 754.173 428.629 756.22 432.638C753.971 433.089 751.835 433.984 749.935 435.269C748.165 436.424 746.813 438.118 746.078 440.099C725.869 430.354 703.452 424.594 688.429 428.595C685.824 429.237 683.379 430.409 681.247 432.038L458.394 312.063L603.052 227.498C601.545 226.928 600.281 225.854 599.475 224.459C598.669 223.064 598.37 221.433 598.628 219.842C599.448 214.97 608.051 209.979 614.514 211.587C614.455 211.57 613.237 206.443 619.733 197.384C625.959 188.849 640.128 181.185 649.83 184.162C649.832 184.143 649.832 184.123 649.83 184.103L661.352 190.752C660.772 187.793 660.994 184.732 661.995 181.887C663.788 176.118 668.753 170.712 674.92 169.257C681.087 167.803 688.192 171.212 688.59 177.04C688.869 175.348 691.796 172.81 694.334 172.81C696.347 172.819 698.191 175.035 698.419 176.261C697.785 171.541 700.779 166.136 705.457 163.412C710.135 160.688 716.259 160.773 719.947 163.717C715.786 156.332 703.706 154.928 695.949 160.375C703.909 148.118 720.201 141.275 730.132 150.335C729.226 147.478 729.159 144.422 729.938 141.529C730.199 140.539 730.548 139.573 730.978 138.644C735.064 129.661 746.018 123.613 750.662 124.526L749.715 124.323C743.328 123.02 735.284 125.913 729.751 133.044C727.921 132.27 725.94 131.922 723.956 132.026C721.971 132.13 720.037 132.683 718.298 133.645C718.044 133.78 717.79 133.924 717.545 134.076C717.116 134.337 716.701 134.619 716.302 134.922C715.188 135.773 714.205 136.782 713.383 137.917C713.121 138.281 712.876 138.661 712.647 139.042H712.597C712.572 139.037 712.547 139.032 712.522 139.027C711.783 139.597 711.015 140.127 710.22 140.615V140.581C710.227 140.577 710.234 140.573 710.241 140.569C711.007 140.094 711.735 139.573 712.485 139.02C711.272 138.782 709.957 138.545 708.562 138.34C705.483 137.863 702.372 137.617 699.257 137.604C691.586 137.532 684.016 139.348 677.212 142.891C674.245 144.448 671.445 146.305 668.855 148.431C653.171 161.041 650.197 181.988 649.919 183.947L649.907 184.036L642.607 179.806L215.12 430.194C213.149 431.04 211.195 431.945 209.258 432.875C208.529 430.893 207.179 429.199 205.409 428.045C203.513 426.753 201.375 425.858 199.124 425.414C201.171 421.405 201.154 417.471 198.87 414.638C195.605 410.729 188.389 409.148 180.565 409.74C186.74 401.814 186.064 393.354 179.178 388.194C170.812 382.002 156.71 381.749 143.887 386.156C141.146 377.604 132.408 375.066 125.378 374.313C116.437 373.467 103.063 376.487 96.1859 381.081C94.401 375.075 86.7963 372.562 79.2678 375.768C81.7294 360.516 67.2983 351.135 58.2218 345.476L58.6026 345.087C63.0182 337.186 55.7943 329.709 50.0167 329.226C51.6493 319.981 49.7628 311.64 45.6009 303.409C44.8265 303.347 44.0608 303.202 43.3168 302.978C42.1664 307.47 40.6185 312.537 38.5884 318.247C38.2331 319.219 37.8863 320.184 37.5479 321.131C38.3769 326.663 38.5716 331.231 35.6025 334.556C34.2059 336.026 32.4854 337.15 30.5779 337.838C32.4231 337.656 34.2814 337.656 36.1266 337.838C42.1749 338.455 47.3351 341.086 50.0927 345.366C54.2884 351.93 52.3936 360.66 43.5539 363.198C43.2409 363.291 42.928 363.367 42.5981 363.443C43.1364 363.782 43.6483 364.161 44.1293 364.577C45.3063 365.507 46.2491 366.701 46.8822 368.061C47.5153 369.421 47.8207 370.91 47.7748 372.41C47.5041 377.223 43.1986 381.647 35.6616 381.563C47.851 390.258 54.7284 402.135 51.0233 412.168C59.0171 404.681 57.9004 395.063 49.1791 386.841C52.1905 387.188 54.7368 387.602 56.8938 388.034C68.0546 390.272 68.7443 393.63 70.2004 400.719C70.274 401.077 70.3494 401.445 70.4283 401.822C70.4326 401.823 70.4696 401.808 70.5373 401.781C71.5363 401.379 79.2209 398.292 87.1432 402.38C89.0565 403.293 90.6092 404.82 91.5536 406.718C92.498 408.616 92.7799 410.776 92.3541 412.853C100.103 411.059 108.993 410.492 118.137 414.663C122.02 416.524 129.1 422.741 126.901 429.043C115.625 427.986 103.055 429.179 95.2809 430.177C92.5196 430.525 90.3666 430.857 89.0935 431.053C88.3581 431.166 87.9162 431.234 87.8202 431.234C90.9331 431.133 93.8004 431.082 96.4312 431.133C121.8 431.573 125.801 439.186 125.928 439.592C143.785 431.378 164.671 429.729 173.908 436.36C179.355 440.362 176.251 447.975 168.68 453.634C167.396 454.577 166.063 455.452 164.687 456.256C169.864 457.542 174.373 459.42 177.757 462.042C184.583 467.295 185.37 474.646 180.294 482.124L180.083 482.428C169.36 475.66 154.462 476.416 151.791 476.552C151.525 476.566 151.38 476.573 151.373 476.566C186.782 501.157 165.55 518.887 164.628 519.081C165.017 519.512 198.16 504.971 187.011 489.119C186.951 489.041 186.895 488.959 186.841 488.878C186.818 488.846 186.796 488.813 186.774 488.781C189.176 488.544 191.638 488.307 194.176 488.113C206.128 487.174 218.724 487.19 225.855 492.892C229.467 495.802 231.793 499.042 232.791 502.425C234.136 506.976 233.096 511.967 229.568 517.127C242.333 511.604 254.818 511.942 250.716 521.247C244.355 516.62 236.352 518.591 234.204 522.82C220.06 512.839 204.792 511.511 186.909 516.053L186.605 516.154C190.439 520.024 196.261 522.005 201.447 523.77C202.451 524.111 203.431 524.445 204.369 524.783C208.482 526.266 212.41 527.391 216.044 528.432C227.641 531.754 236.243 534.218 238.298 544.729C239.152 536.879 244.532 531.651 251.537 531.803C259.15 532.007 266.813 537.64 268.556 545.067C268.797 546.082 268.919 547.121 268.92 548.164C277.565 544.095 289.627 554.229 287.216 563.643C298.975 559.025 313.44 561.537 323.59 569.903C317.077 560.158 306.672 554.829 295.676 556.453C302.726 544.188 306.708 545.926 315.954 549.959C316.382 550.145 316.821 550.337 317.272 550.532C317.255 550.523 315.732 542.505 323.345 539.967C329.368 537.937 335.949 543.646 335.949 543.646C336.88 537.776 339.976 532.083 348.122 530.019C348.716 529.875 349.322 529.788 349.932 529.756C352.921 530.196 355.924 530.622 358.941 531.034C361.656 531.913 364.12 533.433 366.123 535.466C356.31 543.266 353.578 558.247 353.578 558.306C363.007 538.997 375.356 542.966 376.195 543.235C376.222 543.244 376.237 543.249 376.24 543.249C376.012 539.914 376.408 536.567 377.407 533.377C380.317 524.284 388.04 518.684 396.499 519.792C398.327 520.04 400.078 520.69 401.625 521.695C405.804 524.317 408.866 529.19 410.033 534.164C410.118 534.51 410.186 534.866 410.245 535.213C411.739 535.518 413.192 535.836 414.6 536.145C415.106 536.256 415.605 536.366 416.099 536.473C416.934 536.657 417.768 536.849 418.603 537.041L418.637 537.048C427.586 539.146 434.159 541.768 436.798 549.999C436.827 550.09 436.855 550.183 436.882 550.277C436.918 550.402 436.954 550.529 436.992 550.659V549.957C437.096 547.774 437.652 545.637 438.625 543.68C439.725 541.413 441.497 539.54 443.701 538.317C445.372 537.42 447.227 536.916 449.123 536.845C452.138 536.749 455.132 537.391 457.844 538.715C460.397 539.923 462.655 541.675 464.459 543.849C466.402 546.158 467.602 549.001 467.902 552.004C476.225 547.352 489.134 556.648 487.527 566.215C498.87 560.801 513.572 562.315 524.383 569.971C517.074 560.691 506.221 556.09 495.385 558.458C496.522 555.84 498.02 553.394 499.835 551.192C503.667 546.937 507.499 547.935 513.758 550.135L516.457 551.082C516.454 551.066 516.448 551.038 516.439 550.998C516.418 550.905 516.382 550.748 516.347 550.541C516.008 548.697 515.45 542.665 521.667 540.127C527.289 537.791 533.971 542.534 534.515 542.92L534.525 542.927C534.66 540.856 535.138 538.82 535.938 536.905C537.469 533.326 540.404 530.23 545.589 528.538C546.177 528.354 546.78 528.224 547.392 528.149C551.604 527.566 559.115 528.318 563.954 532.751C563.272 533.38 562.626 534.047 562.017 534.747C559.864 537.304 558.112 540.173 556.823 543.257C555.036 547.436 553.851 551.848 553.304 556.36C554.471 553.274 556.026 550.349 557.932 547.656C565.347 537.453 573.987 539.639 574.611 539.797C574.632 539.803 574.644 539.806 574.646 539.806C574.34 537.694 574.274 535.555 574.452 533.428C575.433 522.211 583.461 514.437 592.969 515.046C599.685 515.461 605.378 521.746 607.518 528.471L607.548 528.571C607.589 528.704 607.628 528.834 607.662 528.97C607.928 529.903 608.146 530.848 608.314 531.803C612.173 530.355 616.299 529.758 620.41 530.053C624.673 530.389 628.825 531.572 632.625 533.532C636.425 535.493 639.795 538.193 642.539 541.472C629.081 541.489 623.929 549.771 623.929 549.771C664.575 549.517 676.045 567.349 676.189 567.746C676.189 567.222 673.956 547.876 652.808 542.8L652.343 542.682C654.403 540.151 656.803 537.916 659.474 536.042C664.48 532.585 670.608 531.15 676.629 532.024C688.243 533.47 697.548 537.818 703.774 544.467C704.992 536.718 714.618 533.935 722.705 543.485C726.884 526.474 739.251 523.421 751.415 523.81C748.633 518.929 744.838 514.7 740.286 511.407C735.734 508.114 730.529 505.833 725.023 504.718C726.299 502.998 727.798 501.456 729.481 500.133C738.109 493.222 754.757 494.66 768.562 496.013L768.325 496.352C757.167 512.213 790.344 526.753 790.707 526.322C789.785 526.102 768.553 508.398 803.963 483.807C803.956 483.814 803.812 483.807 803.547 483.793C800.885 483.656 786.022 482.892 775.253 489.669C773.579 487.417 772.439 484.813 771.92 482.056C771.125 477.251 772.994 472.793 777.537 469.274C780.937 466.644 785.429 464.774 790.614 463.48C789.237 462.682 787.904 461.809 786.622 460.866C779.051 455.207 775.946 447.594 781.394 443.593C790.623 436.952 811.517 438.61 829.365 446.824C829.458 446.511 831.928 441.799 845.074 439.541C850.513 438.602 857.788 438.086 867.473 438.475C867.374 438.473 866.928 438.405 866.187 438.292C863.527 437.884 857.068 436.894 849.252 436.318C842.311 435.746 835.334 435.746 828.393 436.318C826.159 429.991 833.273 423.765 837.156 421.938C846.3 417.767 855.199 418.334 862.939 420.119C862.514 418.043 862.796 415.885 863.74 413.989C864.685 412.092 866.237 410.566 868.15 409.655C871.767 407.813 875.871 407.153 879.883 407.769C881.592 408.004 883.265 408.45 884.865 409.097C884.941 408.729 885.015 408.371 885.086 408.022C886.824 399.532 887.468 396.391 906.114 394.116C897.393 402.329 896.276 411.956 904.27 419.442C900.556 409.401 907.442 397.525 919.632 388.837C907.036 388.964 903.458 376.555 912.695 370.718C910.429 370.259 908.322 369.218 906.579 367.698C902.341 363.875 902.011 357.632 905.201 352.632C907.353 349.487 910.531 347.188 914.192 346.128C917.595 345.078 921.174 344.728 924.716 345.096C915.561 341.428 916.735 334.386 918.29 325.062C918.882 321.506 919.531 317.618 919.682 313.459C919.71 312.946 919.741 312.421 919.774 311.887C920.06 307.126 920.391 301.637 918.109 297.454C920.816 294.307 924.775 305.439 926.568 318.196C927.504 324.555 927.575 331.012 926.78 337.39C930.375 337.66 933.911 338.777 935.103 342.27C935.774 344.251 935.937 346.368 935.577 348.429C946.269 349.393 958.053 352.328 954.187 366.895C950.888 378.636 942.344 386.68 933.885 391.426C935.78 393.185 937.066 395.241 937.066 397.728C937.116 401.467 935.23 404.749 932.532 407.388ZM712.487 139.02C712.273 139.184 712.058 139.345 711.839 139.502C711.936 139.435 712.032 139.368 712.128 139.3C712.258 139.209 712.389 139.118 712.52 139.026C712.509 139.024 712.498 139.022 712.487 139.02ZM455.884 98.8426C455.883 98.8392 455.882 98.8359 455.881 98.8325C455.881 98.8365 455.882 98.8406 455.882 98.8446L455.884 98.8426ZM342.819 124.188C342.813 124.199 342.807 124.21 342.801 124.222C342.803 124.233 342.804 124.245 342.803 124.256C342.808 124.248 342.813 124.239 342.818 124.23C342.819 124.221 342.82 124.211 342.82 124.202C342.82 124.197 342.82 124.193 342.819 124.188ZM342.432 124.454C342.453 124.392 342.478 124.331 342.506 124.272C342.548 124.163 342.596 124.055 342.649 123.951C342.867 123.554 343.087 123.159 343.306 122.768C343.09 123.145 342.877 123.523 342.666 123.9C342.612 124.005 342.564 124.112 342.522 124.222C342.486 124.297 342.456 124.375 342.432 124.454ZM896.192 250.405C895.921 249.661 895.659 248.933 895.414 248.223L894.821 248.35C895.295 249.035 895.743 249.72 896.192 250.405ZM122.722 261.436C117.173 254.322 109.162 251.42 102.792 252.706L101.811 252.892C101.944 252.868 102.078 252.848 102.212 252.834L102.793 252.706H102.818C102.808 252.726 102.794 252.744 102.78 252.761C102.767 252.777 102.755 252.792 102.748 252.807C109.906 252.707 126.784 264.519 122.342 278.692C132.281 269.633 148.565 276.476 156.533 288.741C148.768 283.285 136.696 284.698 132.535 292.074C136.214 289.131 142.355 289.063 147.025 291.77C151.694 294.477 154.689 299.907 154.063 304.627C154.283 303.392 156.135 301.176 158.148 301.176C160.711 301.176 163.613 303.714 163.892 305.406C164.281 299.578 171.396 296.152 177.554 297.632C183.712 299.112 188.669 304.492 190.479 310.253C192.289 316.014 191.503 319.871 188.906 324.946C178.019 319.651 169.983 321.833 163.385 329.692C168.723 326.071 174.711 324.828 181.876 326.841C188.49 328.532 194.574 331.853 199.572 336.501C200.926 331.561 206.585 328.152 212.413 328.38C218.242 328.609 224.146 332.221 226.379 337.068C219.223 334.243 210.036 335.994 207.727 342.33C216.544 339.038 225.284 344.377 233.739 349.543C237.451 351.81 241.108 354.045 244.693 355.5C245.53 355.855 246.41 356.194 247.315 356.515C252.002 355.576 254.472 352.117 253.854 348.217C253.042 343.302 244.439 338.345 237.976 339.961C238.027 339.944 239.254 334.818 232.749 325.75C226.523 317.215 212.354 309.551 202.66 312.537C202.658 312.531 202.651 312.481 202.638 312.39C202.358 310.431 199.368 289.467 183.704 276.874C167.327 263.491 150.079 265.462 139.868 267.484C138.926 265.872 137.676 264.46 136.189 263.33C134.317 261.842 132.082 260.881 129.714 260.548C127.346 260.215 124.932 260.521 122.722 261.436ZM269.977 422.437L383.413 355.991L615.851 486.083C612.734 489.89 610.532 494.361 609.414 499.152C607.333 498.079 605.074 497.393 602.748 497.13C600.699 496.875 598.619 497.015 596.623 497.544C594.326 494.001 590.898 491.339 586.896 489.991C584.243 489.234 581.439 489.181 578.76 489.838C576.081 490.496 573.62 491.839 571.618 493.738C568.116 485.465 560.673 479.316 551.977 478.427C541.53 477.361 532.377 484.238 529.535 494.635C520.187 489.991 513.006 493.29 508.683 497.266C504.039 501.563 501.011 510.242 501.561 517.432C495.578 511.53 487.771 507.829 479.415 506.934C477.824 506.733 476.22 506.665 474.619 506.731C469.763 493.713 457.904 484.111 444.428 483.325C430.361 482.513 418.374 491.564 414.069 505.056C412.056 503.846 409.841 503.012 407.53 502.595C405.493 502.203 403.4 502.203 401.363 502.595C399.309 498.904 396.065 496.017 392.16 494.406C389.557 493.474 386.757 493.233 384.033 493.707C381.309 494.182 378.755 495.356 376.62 497.113C373.702 488.629 366.681 481.997 358.07 480.516C347.716 478.749 338.141 485.017 334.562 495.167C329.487 492.19 324.919 491.835 321.087 492.68C321.417 484.864 316.434 479.535 306.707 478.207C300.557 477.26 293.113 477.81 285.001 479.315C288.283 472.159 289.62 461.602 276.931 456.408C275.317 455.737 273.635 455.243 271.915 454.937C282.861 440.082 281.38 427.326 269.977 422.437ZM437.526 324.286L678.406 454.006V453.972C679.751 456.868 681.395 459.615 683.312 462.169C681.589 462.484 679.905 462.981 678.287 463.649C665.582 468.843 666.944 479.392 670.226 486.556C667.189 485.99 664.237 485.558 661.42 485.296C655.616 479.498 647.9 476.011 639.714 475.484L404.282 343.742L437.526 324.286Z" fill="#CCE1F4"/>
</g>
</g>
<rect width="189.072" height="201.842" transform="matrix(-0.866044 -0.499967 0.866044 -0.499967 340.874 312.813)" fill="#FFB524"/>
<rect width="103.954" height="111.296" transform="matrix(-0.866044 -0.499967 0.866044 -0.499967 372.199 480.026)" fill="#FFB524"/>
<rect width="103.954" height="111.296" transform="matrix(-0.866044 -0.499967 0.866044 -0.499967 578.077 362.27)" fill="#FFB524"/>
<rect width="103.954" height="111.296" transform="matrix(-0.866044 -0.499967 0.866044 -0.499967 709.87 285.065)" fill="#FFB524"/>
<rect width="103.954" height="111.296" transform="matrix(-0.866044 -0.499967 0.866044 -0.499967 706.75 427.776)" fill="#FFB524"/>
<defs>
<filter id="filter0_f_1_118" x="-19.9658" y="16.9103" width="995.148" height="622.589" filterUnits="userSpaceOnUse" color-interpolation-filters="sRGB">
<feFlood flood-opacity="0" result="BackgroundImageFix"/>
<feBlend mode="normal" in="SourceGraphic" in2="BackgroundImageFix" result="shape"/>
<feGaussianBlur stdDeviation="10" result="effect1_foregroundBlur_1_118"/>
</filter>
</defs>
</svg>
