<svg width="18" height="18" viewBox="0 0 18 18" fill="none" xmlns="http://www.w3.org/2000/svg">
<path d="M4.67584 15.4688C4.45999 15.4684 4.24796 15.4118 4.06061 15.3046C3.63873 15.0656 3.37646 14.6015 3.37646 14.0977V3.90241C3.37646 3.39721 3.63873 2.93455 4.06061 2.69549C4.25242 2.58525 4.47032 2.52856 4.69154 2.53135C4.91276 2.53413 5.12916 2.59628 5.31814 2.71131L14.0316 7.92709C14.2132 8.04096 14.3629 8.19908 14.4667 8.38663C14.5705 8.57418 14.6249 8.78502 14.6249 8.99936C14.6249 9.2137 14.5705 9.42454 14.4667 9.61209C14.3629 9.79964 14.2132 9.95776 14.0316 10.0716L5.31674 15.2888C5.12334 15.4057 4.90183 15.4679 4.67584 15.4688V15.4688Z" fill="#FFEA97"/>
</svg>
